<svg width="16" height="13" viewBox="0 0 16 13" fill="none" xmlns="http://www.w3.org/2000/svg">
<path d="M1.25 3.5L5.33744 6.22496C6.29971 6.86647 6.78085 7.18723 7.30088 7.31185C7.76046 7.42198 8.23954 7.42198 8.69912 7.31185C9.21915 7.18723 9.70029 6.86647 10.6626 6.22496L14.75 3.5M3.65 11.75H12.35C13.1901 11.75 13.6101 11.75 13.931 11.5865C14.2132 11.4427 14.4427 11.2132 14.5865 10.931C14.75 10.6101 14.75 10.1901 14.75 9.35V3.65C14.75 2.80992 14.75 2.38988 14.5865 2.06901C14.4427 1.78677 14.2132 1.5573 13.931 1.41349C13.6101 1.25 13.1901 1.25 12.35 1.25H3.65C2.80992 1.25 2.38988 1.25 2.06901 1.41349C1.78677 1.5573 1.5573 1.78677 1.41349 2.06901C1.25 2.38988 1.25 2.80992 1.25 3.65V9.35C1.25 10.1901 1.25 10.6101 1.41349 10.931C1.5573 11.2132 1.78677 11.4427 2.06901 11.5865C2.38988 11.75 2.80992 11.75 3.65 11.75Z" stroke="#FBFFFB" stroke-linecap="round" stroke-linejoin="round"/>
</svg>
