<svg width="117" height="117" viewBox="0 0 117 117" fill="none" xmlns="http://www.w3.org/2000/svg">
<path d="M84.6467 84.6467L106.413 106.413M96.7391 53.2064C96.7391 41.6609 92.1526 30.5882 83.9886 22.4242C75.8247 14.2603 64.752 9.67383 53.2064 9.67383C41.6609 9.67383 30.5882 14.2603 22.4242 22.4242C14.2603 30.5882 9.67383 41.6609 9.67383 53.2064C9.67383 64.752 14.2603 75.8247 22.4242 83.9886C30.5882 92.1526 41.6609 96.7391 53.2064 96.7391C64.752 96.7391 75.8247 92.1526 83.9886 83.9886C92.1526 75.8247 96.7391 64.752 96.7391 53.2064Z" stroke="#051F20" stroke-width="9.67391" stroke-linecap="round" stroke-linejoin="round"/>
<path d="M31.4395 67.7175L40.3491 40.9885C40.5728 40.3215 41.0004 39.7416 41.5715 39.3307C42.1426 38.9198 42.8283 38.6988 43.5318 38.6988C44.2354 38.6988 44.9211 38.9198 45.4922 39.3307C46.0633 39.7416 46.4909 40.3215 46.7146 40.9885L55.6242 67.7175M70.1351 38.6958V67.7175M36.2764 58.0436H50.7873" stroke="#051F20" stroke-width="7.25544" stroke-linecap="round" stroke-linejoin="round"/>
</svg>
