<svg width="22" height="22" viewBox="0 0 22 22" fill="none" xmlns="http://www.w3.org/2000/svg">
<g id="akar-icons:link-chain">
<g id="Group">
<path id="Vector" d="M12.4156 9.58546C11.6645 8.83537 10.6464 8.41406 9.58494 8.41406C8.52345 8.41406 7.50536 8.83537 6.75427 9.58546L3.92269 12.4161C3.17183 13.167 2.75 14.1854 2.75 15.2473C2.75 16.3091 3.17183 17.3275 3.92269 18.0784C4.67355 18.8292 5.69194 19.2511 6.75381 19.2511C7.81569 19.2511 8.83408 18.8292 9.58494 18.0784L11.0003 16.663" stroke="#0A612B" stroke-width="2" stroke-linecap="round" stroke-linejoin="round"/>
<path id="Vector_2" d="M9.58398 12.4156C10.3351 13.1657 11.3532 13.587 12.4147 13.587C13.4761 13.587 14.4942 13.1657 15.2453 12.4156L18.0769 9.58494C18.8278 8.83408 19.2496 7.81569 19.2496 6.75382C19.2496 5.69194 18.8278 4.67355 18.0769 3.92269C17.326 3.17183 16.3077 2.75 15.2458 2.75C14.1839 2.75 13.1655 3.17183 12.4147 3.92269L10.9993 5.33802" stroke="#0A612B" stroke-width="2" stroke-linecap="round" stroke-linejoin="round"/>
</g>
</g>
</svg>
