<svg width="22" height="23" viewBox="0 0 22 23" fill="none" xmlns="http://www.w3.org/2000/svg">
<g id="Frame 259">
<path id="Ellipse" d="M21.7998 11.3999C21.7998 17.4198 16.9198 22.2998 10.8999 22.2998C4.88005 22.2998 0 17.4198 0 11.3999C0 5.38005 4.88005 0.5 10.8999 0.5C16.9198 0.5 21.7998 5.38005 21.7998 11.3999ZM2.17998 11.3999C2.17998 16.2158 6.08402 20.1198 10.8999 20.1198C15.7158 20.1198 19.6198 16.2158 19.6198 11.3999C19.6198 6.58402 15.7158 2.67998 10.8999 2.67998C6.08402 2.67998 2.17998 6.58402 2.17998 11.3999Z" fill="#FBFFFB"/>
<path id="Ellipse_2" d="M21.7998 11.3999C21.7998 17.4198 16.9198 22.2998 10.8999 22.2998C4.88005 22.2998 0 17.4198 0 11.3999C0 5.38005 4.88005 0.5 10.8999 0.5C16.9198 0.5 21.7998 5.38005 21.7998 11.3999ZM2.86149 11.3999C2.86149 15.8394 6.46041 19.4383 10.8999 19.4383C15.3394 19.4383 18.9383 15.8394 18.9383 11.3999C18.9383 6.96041 15.3394 3.36149 10.8999 3.36149C6.46041 3.36149 2.86149 6.96041 2.86149 11.3999Z" fill="#0A612B"/>
</g>
</svg>
