<svg width="22" height="22" viewBox="0 0 22 22" fill="none" xmlns="http://www.w3.org/2000/svg">
<g id="Frame 258">
<path id="Ellipse" d="M21.7998 10.8999C21.7998 16.9198 16.9198 21.7998 10.8999 21.7998C4.88005 21.7998 0 16.9198 0 10.8999C0 4.88005 4.88005 0 10.8999 0C16.9198 0 21.7998 4.88005 21.7998 10.8999ZM2.17998 10.8999C2.17998 15.7158 6.08402 19.6198 10.8999 19.6198C15.7158 19.6198 19.6198 15.7158 19.6198 10.8999C19.6198 6.08402 15.7158 2.17998 10.8999 2.17998C6.08402 2.17998 2.17998 6.08402 2.17998 10.8999Z" fill="#FBFFFB"/>
<path id="Ellipse_2" d="M10.8999 0C12.8465 2.32133e-08 14.7576 0.521314 16.4346 1.50977C18.1116 2.49823 19.4933 3.91775 20.4361 5.62084C21.3789 7.32392 21.8484 9.24842 21.7958 11.1943C21.7432 13.1403 21.1705 15.0366 20.1371 16.6863C19.1037 18.336 17.6474 19.6788 15.9194 20.5752C14.1915 21.4717 12.255 21.889 10.3113 21.7839C8.36747 21.6788 6.4873 21.055 4.86613 19.9774C3.24496 18.8998 1.94196 17.4078 1.09251 15.6563L3.66719 14.4076C4.29364 15.6993 5.25457 16.7997 6.45015 17.5944C7.64572 18.389 9.03229 18.8491 10.4658 18.9266C11.8993 19.0041 13.3274 18.6963 14.6017 18.0352C15.876 17.3741 16.95 16.3838 17.7121 15.1672C18.4742 13.9506 18.8966 12.5521 18.9354 11.117C18.9742 9.68197 18.6279 8.2627 17.9326 7.00672C17.2373 5.75074 16.2184 4.70387 14.9816 3.97491C13.7449 3.24595 12.3355 2.86149 10.8999 2.86149V0Z" fill="#0A612B"/>
</g>
</svg>
