<svg width="24" height="24" viewBox="0 0 24 24" fill="none" xmlns="http://www.w3.org/2000/svg">
<path d="M8.667 22C9.201 21.466 9.735 20.932 9.241 18M8.667 15.334C7.334 10 8.334 9 8.667 8.667C9 8.334 10 7.334 15.334 8.667M8.667 15.334C3.334 14 2.667 14.666 2 15.333M8.667 15.334C14 16.668 15 15.666 15.333 15.333C15.666 15 16.668 14 15.334 8.667M15.334 8.667C20.667 10 21.333 9.334 22 8.667M15.333 2C14.799 2.534 14.265 3.068 14.759 6" stroke="#FBFFFB" stroke-width="1.5" stroke-linecap="round" stroke-linejoin="round"/>
</svg>
