<svg width="54" height="54" viewBox="0 0 54 54" fill="none" xmlns="http://www.w3.org/2000/svg">
<g id="material-symbols-light:download">
<path id="Vector" d="M10.9 39.114L10.9 39.1145C10.9016 40.2391 11.2816 41.1953 12.0443 41.958C12.807 42.7207 13.7626 43.1 14.886 43.1H39.114H39.1145C40.2391 43.0984 41.1953 42.7184 41.958 41.9557C42.7207 41.193 43.1 40.2374 43.1 39.114V34.2623C43.1 33.7376 42.6747 33.3123 42.15 33.3123H41.1C40.5753 33.3123 40.15 33.7376 40.15 34.2623L40.15 39.114L40.15 39.1155C40.151 39.3536 40.0567 39.5856 39.8212 39.8199C39.5843 40.0555 39.352 40.15 39.1163 40.15L14.8837 40.15L14.8822 40.15C14.646 40.151 14.4148 40.057 14.1801 39.8212C13.9448 39.5847 13.85 39.3516 13.85 39.114V34.2623C13.85 33.7376 13.4247 33.3123 12.9 33.3123H11.85C11.3253 33.3123 10.9 33.7376 10.9 34.2623L10.9 39.114ZM26.3283 34.8717C26.6993 35.2426 27.3007 35.2426 27.6717 34.8717L34.7888 27.7566C35.158 27.3874 35.1602 26.7895 34.7936 26.4177L34.041 25.6545C33.6707 25.279 33.0656 25.2769 32.6928 25.6498L28.9018 29.4407C28.7443 29.5982 28.475 29.4867 28.475 29.264V11.85C28.475 11.3253 28.0497 10.9 27.525 10.9H26.475C25.9503 10.9 25.525 11.3253 25.525 11.85V29.264C25.525 29.4867 25.2557 29.5982 25.0982 29.4407L21.3056 25.6481C20.9324 25.2749 20.3265 25.2775 19.9565 25.6538L19.2049 26.4181C18.8392 26.79 18.8417 27.3872 19.2106 27.756L26.3283 34.8717Z" fill="#0A612B" stroke="#0A612B" stroke-width="0.7"/>
</g>
</svg>
