<svg width="117" height="117" viewBox="0 0 117 117" fill="none" xmlns="http://www.w3.org/2000/svg">
<path d="M48.3702 48.3697H67.718M48.3702 48.3697V67.7175M48.3702 48.3697L31.4408 31.4403M67.718 48.3697V67.7175M67.718 48.3697L84.6473 31.4403M67.718 67.7175H48.3702M67.718 67.7175L84.6473 84.6468M48.3702 67.7175L31.4408 84.6468M48.1767 29.0218C47.7318 25.9096 46.4292 22.9827 44.4146 20.569C42.4001 18.1554 39.7532 16.3505 36.7706 15.3564C33.788 14.3623 30.5876 14.2184 27.5278 14.9407C24.468 15.6631 21.6698 17.2232 19.4468 19.4463C17.2237 21.6693 15.6636 24.4675 14.9412 27.5273C14.2189 30.5871 14.3628 33.7875 15.3569 36.7701C16.3509 39.7527 18.1559 42.3996 20.5695 44.4141C22.9832 46.4287 25.9101 47.7314 29.0223 48.1762M87.0658 48.1762C90.1781 47.7314 93.105 46.4287 95.5186 44.4141C97.9322 42.3996 99.7372 39.7527 100.731 36.7701C101.725 33.7875 101.869 30.5871 101.147 27.5273C100.425 24.4675 98.8644 21.6693 96.6414 19.4463C94.4183 17.2232 91.6201 15.6631 88.5604 14.9407C85.5006 14.2184 82.3001 14.3623 79.3175 15.3564C76.3349 16.3505 73.6881 18.1554 71.6735 20.569C69.659 22.9827 68.3563 25.9096 67.9115 29.0218M67.9115 87.0653C68.3563 90.1776 69.659 93.1045 71.6735 95.5181C73.6881 97.9317 76.3349 99.7367 79.3175 100.731C82.3001 101.725 85.5006 101.869 88.5604 101.146C91.6201 100.424 94.4183 98.8639 96.6414 96.6409C98.8644 94.4178 100.425 91.6196 101.147 88.5599C101.869 85.5001 101.725 82.2996 100.731 79.317C99.7372 76.3344 97.9322 73.6876 95.5186 71.673C93.105 69.6585 90.1781 68.3558 87.0658 67.911M29.0223 67.911C25.9101 68.3558 22.9832 69.6585 20.5695 71.673C18.1559 73.6876 16.3509 76.3344 15.3569 79.317C14.3628 82.2996 14.2189 85.5001 14.9412 88.5599C15.6636 91.6196 17.2237 94.4178 19.4468 96.6409C21.6698 98.8639 24.468 100.424 27.5278 101.146C30.5876 101.869 33.788 101.725 36.7706 100.731C39.7532 99.7367 42.4001 97.9317 44.4146 95.5181C46.4292 93.1045 47.7318 90.1776 48.1767 87.0653" stroke="#051F20" stroke-width="9.67391" stroke-linecap="round" stroke-linejoin="round"/>
</svg>
