<svg width="24" height="24" viewBox="0 0 24 24" fill="none" xmlns="http://www.w3.org/2000/svg">
<path d="M17.7806 6.21944C17.711 6.14971 17.6283 6.09439 17.5372 6.05665C17.4462 6.01891 17.3486 5.99948 17.25 5.99948C17.1514 5.99948 17.0538 6.01891 16.9628 6.05665C16.8717 6.09439 16.789 6.14971 16.7194 6.21944L13.9397 9.00007H10.0603L7.28063 6.21944C7.1399 6.07871 6.94902 5.99965 6.75 5.99965C6.55098 5.99965 6.36011 6.07871 6.21938 6.21944C6.07865 6.36017 5.99958 6.55105 5.99958 6.75007C5.99958 6.94909 6.07864 7.13996 6.21938 7.28069L9 10.0604V13.9398L6.21938 16.7194C6.07864 16.8602 5.99958 17.051 5.99958 17.2501C5.99958 17.4491 6.07864 17.64 6.21938 17.7807C6.36011 17.9214 6.55098 18.0005 6.75 18.0005C6.94902 18.0005 7.1399 17.9214 7.28063 17.7807L10.0603 15.0001H13.9397L16.7194 17.7807C16.7891 17.8504 16.8718 17.9057 16.9628 17.9434C17.0539 17.9811 17.1515 18.0005 17.25 18.0005C17.3485 18.0005 17.4461 17.9811 17.5372 17.9434C17.6282 17.9057 17.7109 17.8504 17.7806 17.7807C17.8503 17.711 17.9056 17.6283 17.9433 17.5372C17.981 17.4462 18.0004 17.3486 18.0004 17.2501C18.0004 17.1515 17.981 17.0539 17.9433 16.9629C17.9056 16.8719 17.8503 16.7891 17.7806 16.7194L15 13.9398V10.0604L17.7806 7.28069C17.8504 7.21104 17.9057 7.12832 17.9434 7.03727C17.9812 6.94623 18.0006 6.84863 18.0006 6.75007C18.0006 6.65151 17.9812 6.55391 17.9434 6.46286C17.9057 6.37181 17.8504 6.2891 17.7806 6.21944ZM10.5 10.5001H13.5V13.5001H10.5V10.5001ZM12.9853 5.74976C13.2178 5.093 13.6128 4.50581 14.1335 4.04298C14.6543 3.58015 15.2837 3.25675 15.9632 3.10294C16.6427 2.94914 17.3501 2.96994 18.0194 3.16341C18.6887 3.35688 19.2981 3.71672 19.7907 4.20935C20.2833 4.70199 20.6432 5.31137 20.8367 5.98065C21.0301 6.64994 21.0509 7.35733 20.8971 8.03683C20.7433 8.71632 20.4199 9.3458 19.9571 9.86653C19.4943 10.3873 18.9071 10.7823 18.2503 11.0148C18.1703 11.045 18.0856 11.0612 18 11.0626C17.8232 11.0625 17.6521 10.9999 17.5169 10.8859C17.3817 10.7719 17.2911 10.6138 17.2612 10.4396C17.2312 10.2653 17.2638 10.086 17.3532 9.93346C17.4426 9.78088 17.583 9.66479 17.7497 9.60569C18.1676 9.45772 18.5412 9.20632 18.8357 8.87494C19.1302 8.54356 19.3359 8.14299 19.4338 7.7106C19.5316 7.27821 19.5184 6.82808 19.3953 6.4022C19.2721 5.97632 19.0432 5.58855 18.7297 5.27508C18.4162 4.9616 18.0284 4.73262 17.6026 4.6095C17.1767 4.48637 16.7265 4.47312 16.2942 4.57097C15.8618 4.66881 15.4612 4.87458 15.1298 5.16906C14.7984 5.46355 14.547 5.83717 14.3991 6.25507C14.3675 6.34952 14.3174 6.43672 14.2517 6.5116C14.186 6.58648 14.1061 6.64753 14.0166 6.69119C13.9271 6.73485 13.8298 6.76024 13.7303 6.76589C13.6309 6.77154 13.5313 6.75732 13.4375 6.72408C13.3436 6.69083 13.2573 6.63923 13.1835 6.57226C13.1098 6.5053 13.0502 6.42433 13.0081 6.33406C12.966 6.2438 12.9423 6.14606 12.9384 6.04654C12.9345 5.94703 12.9504 5.84773 12.9853 5.75444V5.74976ZM21 16.8751C21.0005 17.8485 20.6567 18.7907 20.0295 19.5351C19.4023 20.2794 18.532 20.778 17.5726 20.9427C16.6133 21.1073 15.6266 20.9273 14.7871 20.4346C13.9476 19.9419 13.3094 19.1683 12.9853 18.2504C12.9229 18.0639 12.9363 17.8604 13.0225 17.6836C13.1087 17.5069 13.2608 17.3711 13.4462 17.3054C13.6316 17.2398 13.8353 17.2496 14.0135 17.3327C14.1917 17.4158 14.3302 17.5656 14.3991 17.7498C14.547 18.1677 14.7984 18.5413 15.1298 18.8358C15.4612 19.1302 15.8618 19.336 16.2942 19.4339C16.7265 19.5317 17.1767 19.5184 17.6026 19.3953C18.0284 19.2722 18.4162 19.0432 18.7297 18.7297C19.0432 18.4163 19.2721 18.0285 19.3953 17.6026C19.5184 17.1767 19.5316 16.7266 19.4338 16.2942C19.3359 15.8618 19.1302 15.4613 18.8357 15.1299C18.5412 14.7985 18.1676 14.5471 17.7497 14.3991C17.5655 14.3303 17.4157 14.1918 17.3326 14.0136C17.2495 13.8354 17.2397 13.6316 17.3054 13.4463C17.371 13.2609 17.5068 13.1087 17.6836 13.0225C17.8603 12.9363 18.0638 12.923 18.2503 12.9854C19.0541 13.2706 19.7498 13.7976 20.2421 14.4941C20.7345 15.1905 20.9992 16.0222 21 16.8751ZM11.0147 18.2504C10.7822 18.9071 10.3872 19.4943 9.86646 19.9572C9.34573 20.42 8.71626 20.7434 8.03676 20.8972C7.35726 21.051 6.64987 21.0302 5.98059 20.8367C5.3113 20.6433 4.70192 20.2834 4.20928 19.7908C3.71665 19.2982 3.35682 18.6888 3.16335 18.0195C2.96988 17.3502 2.94907 16.6428 3.10288 15.9633C3.25668 15.2838 3.58008 14.6543 4.04291 14.1336C4.50575 13.6129 5.09293 13.2178 5.74969 12.9854C5.93617 12.923 6.1397 12.9363 6.31644 13.0225C6.49319 13.1087 6.629 13.2609 6.69464 13.4463C6.76028 13.6316 6.7505 13.8354 6.66739 14.0136C6.58428 14.1918 6.4345 14.3303 6.25031 14.3991C5.83241 14.5471 5.4588 14.7985 5.16431 15.1299C4.86982 15.4613 4.66406 15.8618 4.56621 16.2942C4.46836 16.7266 4.48162 17.1767 4.60474 17.6026C4.72786 18.0285 4.95684 18.4163 5.27032 18.7297C5.5838 19.0432 5.97156 19.2722 6.39744 19.3953C6.82333 19.5184 7.27346 19.5317 7.70585 19.4339C8.13824 19.336 8.5388 19.1302 8.87019 18.8358C9.20157 18.5413 9.45297 18.1677 9.60094 17.7498C9.6698 17.5656 9.80826 17.4158 9.98648 17.3327C10.1647 17.2496 10.3684 17.2398 10.5538 17.3054C10.7392 17.3711 10.8913 17.5069 10.9775 17.6836C11.0637 17.8604 11.0771 18.0639 11.0147 18.2504ZM3 7.12507C2.99953 6.15167 3.34329 5.20946 3.97051 4.46508C4.59773 3.7207 5.46798 3.22211 6.42735 3.05748C7.38673 2.89285 8.37341 3.0728 9.21291 3.56549C10.0524 4.05819 10.6906 4.83189 11.0147 5.74976C11.0496 5.84304 11.0655 5.94234 11.0616 6.04186C11.0577 6.14137 11.034 6.23911 10.9919 6.32938C10.9498 6.41964 10.8902 6.50061 10.8165 6.56758C10.7427 6.63454 10.6564 6.68615 10.5625 6.71939C10.4687 6.75264 10.3691 6.76685 10.2697 6.7612C10.1702 6.75556 10.0729 6.73016 9.9834 6.6865C9.89389 6.64284 9.81396 6.58179 9.7483 6.50691C9.68263 6.43203 9.63254 6.34483 9.60094 6.25038C9.45297 5.83248 9.20157 5.45886 8.87019 5.16438C8.5388 4.86989 8.13824 4.66413 7.70585 4.56628C7.27346 4.46843 6.82333 4.48169 6.39744 4.60481C5.97156 4.72793 5.5838 4.95691 5.27032 5.27039C4.95684 5.58387 4.72786 5.97163 4.60474 6.39751C4.48162 6.8234 4.46836 7.27353 4.56621 7.70592C4.66406 8.13831 4.86982 8.53887 5.16431 8.87025C5.4588 9.20163 5.83241 9.45304 6.25031 9.60101C6.42046 9.65758 6.56471 9.77325 6.65692 9.92704C6.74912 10.0808 6.78317 10.2626 6.7529 10.4393C6.72263 10.616 6.63005 10.7761 6.49192 10.8904C6.3538 11.0048 6.17928 11.0658 6 11.0626C5.9147 11.0627 5.83002 11.0481 5.74969 11.0194C4.94519 10.7339 4.24888 10.2062 3.7565 9.50885C3.26412 8.81149 2.99984 7.97873 3 7.12507Z" fill="#FBFFFB"/>
</svg>
