<svg width="37" height="37" viewBox="0 0 37 37" fill="none" xmlns="http://www.w3.org/2000/svg">
<path fill-rule="evenodd" clip-rule="evenodd" d="M12.0336 6.203C15.1898 4.4015 16.7671 3.5 18.5 3.5C20.2329 3.5 21.8102 4.4 24.9664 6.203L26.0336 6.812C29.1898 8.615 30.7671 9.5165 31.6336 11C32.5 12.485 32.5 14.285 32.5 17.891V19.109C32.5 22.7135 32.5 24.5165 31.6336 26C30.7671 27.4835 29.1898 28.385 26.0336 30.1865L24.9664 30.797C21.8102 32.5985 20.2329 33.5 18.5 33.5C16.7671 33.5 15.1898 32.6 12.0336 30.797L10.9664 30.1865C7.81022 28.3865 6.23289 27.4835 5.36644 26C4.5 24.515 4.5 22.715 4.5 19.109V17.891C4.5 14.285 4.5 12.4835 5.36644 11C6.23289 9.5165 7.81022 8.615 10.9664 6.812L12.0336 6.203ZM20.0556 24.5C20.0556 24.8978 19.8917 25.2794 19.5999 25.5607C19.3082 25.842 18.9126 26 18.5 26C18.0874 26 17.6918 25.842 17.4001 25.5607C17.1083 25.2794 16.9444 24.8978 16.9444 24.5C16.9444 24.1022 17.1083 23.7206 17.4001 23.4393C17.6918 23.158 18.0874 23 18.5 23C18.9126 23 19.3082 23.158 19.5999 23.4393C19.8917 23.7206 20.0556 24.1022 20.0556 24.5ZM18.5 9.875C18.8094 9.875 19.1062 9.99353 19.325 10.2045C19.5437 10.4155 19.6667 10.7016 19.6667 11V20C19.6667 20.2984 19.5437 20.5845 19.325 20.7955C19.1062 21.0065 18.8094 21.125 18.5 21.125C18.1906 21.125 17.8938 21.0065 17.675 20.7955C17.4563 20.5845 17.3333 20.2984 17.3333 20V11C17.3333 10.7016 17.4563 10.4155 17.675 10.2045C17.8938 9.99353 18.1906 9.875 18.5 9.875Z" fill="black"/>
</svg>
