<svg width="43" height="43" viewBox="0 0 43 43" fill="none" xmlns="http://www.w3.org/2000/svg">
<mask id="path-1-outside-1_10_1515" maskUnits="userSpaceOnUse" x="1" y="1" width="41" height="41" fill="black">
<rect fill="white" x="1" y="1" width="41" height="41"/>
<path d="M21.4998 12.9744C19.8137 12.9744 18.1654 13.4744 16.7635 14.4111C15.3615 15.3479 14.2689 16.6793 13.6236 18.237C12.9784 19.7947 12.8096 21.5088 13.1385 23.1624C13.4674 24.8161 14.2794 26.3351 15.4716 27.5273C16.6639 28.7196 18.1829 29.5315 19.8366 29.8604C21.4903 30.1893 23.2044 30.0205 24.7622 29.3753C26.3199 28.7301 27.6514 27.6374 28.5881 26.2355C29.5248 24.8336 30.0248 23.1854 30.0248 21.4993C30.0223 19.2392 29.1233 17.0723 27.5251 15.4742C25.9269 13.876 23.76 12.977 21.4998 12.9744ZM21.4998 28.4742C20.1202 28.4742 18.7717 28.0652 17.6246 27.2987C16.4776 26.5323 15.5836 25.443 15.0556 24.1685C14.5277 22.894 14.3896 21.4916 14.6587 20.1386C14.9279 18.7856 15.5922 17.5428 16.5676 16.5673C17.5431 15.5919 18.786 14.9276 20.139 14.6584C21.492 14.3893 22.8945 14.5274 24.169 15.0554C25.4435 15.5833 26.5329 16.4773 27.2993 17.6243C28.0657 18.7713 28.4748 20.1198 28.4748 21.4993C28.4748 23.3492 27.7399 25.1233 26.4319 26.4313C25.1238 27.7394 23.3497 28.4742 21.4998 28.4742ZM37.7613 22.1794C37.7781 21.726 37.7781 21.2739 37.7613 20.8232L40.8284 16.9889C40.9045 16.8942 40.9574 16.783 40.9826 16.6642C41.0078 16.5454 41.0048 16.4224 40.9737 16.305C40.5148 14.5888 39.83 12.9411 38.9374 11.4051C38.8776 11.2995 38.7939 11.2094 38.6929 11.1421C38.592 11.0748 38.4766 11.0322 38.3562 11.0176L33.4755 10.4751C33.1686 10.143 32.8486 9.82303 32.5165 9.51605L31.9759 4.64331C31.9613 4.52285 31.9187 4.4075 31.8514 4.30655C31.7841 4.20559 31.694 4.12185 31.5884 4.06206C30.0543 3.17158 28.4094 2.48755 26.6962 2.02772C26.5789 1.99639 26.4559 1.99304 26.3371 2.01794C26.2183 2.04285 26.107 2.0953 26.0122 2.17109L22.1798 5.23811C21.7264 5.22003 21.2744 5.22003 20.8236 5.23811L16.9853 2.17109C16.8907 2.09497 16.7795 2.04216 16.6607 2.01692C16.5419 1.99168 16.4188 1.99471 16.3014 2.02578C14.5865 2.48504 12.9401 3.16977 11.4053 4.06206C11.2997 4.12185 11.2096 4.20559 11.1423 4.30655C11.075 4.4075 11.0324 4.52285 11.0178 4.64331L10.4753 9.5238C10.1431 9.83078 9.82321 10.1507 9.51622 10.4829L4.64336 11.0234C4.52291 11.038 4.40756 11.0806 4.3066 11.148C4.20564 11.2153 4.1219 11.3053 4.06211 11.4109C3.1716 12.945 2.48756 14.5899 2.02772 16.303C1.99639 16.4203 1.99304 16.5433 2.01794 16.6621C2.04285 16.7809 2.0953 16.8921 2.17109 16.987L5.23818 20.8193C5.2201 21.2726 5.2201 21.7247 5.23818 22.1755L2.17109 26.0136C2.09497 26.1083 2.04216 26.2195 2.01692 26.3383C1.99168 26.4571 1.99471 26.5802 2.02578 26.6976C2.48505 28.4124 3.1698 30.0588 4.06211 31.5936C4.1219 31.6991 4.20564 31.7892 4.3066 31.8565C4.40756 31.9238 4.52291 31.9665 4.64336 31.9811L9.52397 32.5236C9.8301 32.8549 10.1517 33.1765 10.483 33.4826L11.0255 38.365C11.0401 38.4855 11.0828 38.6008 11.1501 38.7018C11.2174 38.8028 11.3075 38.8865 11.413 38.9463C12.9494 39.8345 14.5963 40.516 16.3111 40.9729C16.4284 41.0042 16.5513 41.0076 16.6701 40.9827C16.7889 40.9577 16.9002 40.9053 16.995 40.8295L20.8274 37.7625C21.2808 37.7793 21.7329 37.7793 22.1837 37.7625L26.018 40.8295C26.1554 40.9397 26.3263 40.9999 26.5024 41C26.5678 40.9998 26.6329 40.9914 26.6962 40.9748C28.4118 40.5151 30.0589 39.8297 31.5942 38.9366C31.6998 38.8768 31.7899 38.7931 31.8572 38.6921C31.9245 38.5912 31.9671 38.4758 31.9817 38.3554L32.5242 33.4749C32.8555 33.1687 33.1772 32.8471 33.4833 32.5158L38.3658 31.9733C38.4863 31.9587 38.6017 31.9161 38.7026 31.8488C38.8036 31.7815 38.8873 31.6914 38.9471 31.5858C39.8354 30.0495 40.5168 28.4026 40.9737 26.6879C41.0051 26.5706 41.0084 26.4476 40.9835 26.3288C40.9586 26.21 40.9062 26.0988 40.8304 26.004L37.7613 22.1794ZM37.7943 30.4776L33.0144 31.0084C32.8238 31.0296 32.6477 31.1207 32.5204 31.2642C32.1275 31.7076 31.7082 32.1268 31.2648 32.5197C31.1214 32.647 31.0303 32.8231 31.0091 33.0137L30.4782 37.7915C29.2725 38.4579 27.9962 38.9875 26.6729 39.3706L22.918 36.3656C22.7804 36.256 22.6096 36.1966 22.4336 36.197H22.3871C21.7961 36.2337 21.2034 36.2337 20.6124 36.197C20.4206 36.1855 20.2315 36.2455 20.0815 36.3656L16.3285 39.3686C15.0047 38.9873 13.7276 38.4589 12.5213 37.7935L11.9904 33.0137C11.9693 32.8231 11.8781 32.647 11.7347 32.5197C11.2913 32.1268 10.872 31.7076 10.4792 31.2642C10.3518 31.1207 10.1758 31.0296 9.9851 31.0084L5.20718 30.4776C4.54081 29.2719 4.01117 27.9956 3.6281 26.6724L6.63319 22.9176C6.75323 22.7676 6.8133 22.5784 6.80176 22.3867C6.76699 21.7956 6.76699 21.203 6.80176 20.612C6.8133 20.4202 6.75323 20.2311 6.63319 20.0811L3.63004 16.3282C4.01143 15.0044 4.53979 13.7274 5.20524 12.5211L9.9851 11.9902C10.1758 11.969 10.3518 11.8779 10.4792 11.7345C10.872 11.2911 11.2913 10.8718 11.7347 10.479C11.8781 10.3516 11.9693 10.1756 11.9904 9.98492L12.5213 5.20711C13.727 4.54075 15.0033 4.01112 16.3266 3.62807L20.0815 6.63309C20.2315 6.75312 20.4206 6.81319 20.6124 6.80165C21.2034 6.765 21.7961 6.765 22.3871 6.80165C22.5789 6.81319 22.7681 6.75312 22.918 6.63309L26.671 3.63001C27.9949 4.01139 29.2719 4.53973 30.4782 5.20517L31.0091 9.98492C31.0303 10.1756 31.1214 10.3516 31.2648 10.479C31.7082 10.8718 32.1275 11.2911 32.5204 11.7345C32.6477 11.8779 32.8238 11.969 33.0144 11.9902L37.7923 12.5211C38.4587 13.7267 38.9883 15.003 39.3714 16.3263L36.3663 20.0811C36.2463 20.2311 36.1862 20.4202 36.1978 20.612C36.2325 21.203 36.2325 21.7956 36.1978 22.3867C36.1862 22.5784 36.2463 22.7676 36.3663 22.9176L39.3695 26.6704C38.9881 27.9943 38.4597 29.2713 37.7943 30.4776Z"/>
</mask>
<path d="M21.4998 12.9744C19.8137 12.9744 18.1654 13.4744 16.7635 14.4111C15.3615 15.3479 14.2689 16.6793 13.6236 18.237C12.9784 19.7947 12.8096 21.5088 13.1385 23.1624C13.4674 24.8161 14.2794 26.3351 15.4716 27.5273C16.6639 28.7196 18.1829 29.5315 19.8366 29.8604C21.4903 30.1893 23.2044 30.0205 24.7622 29.3753C26.3199 28.7301 27.6514 27.6374 28.5881 26.2355C29.5248 24.8336 30.0248 23.1854 30.0248 21.4993C30.0223 19.2392 29.1233 17.0723 27.5251 15.4742C25.9269 13.876 23.76 12.977 21.4998 12.9744ZM21.4998 28.4742C20.1202 28.4742 18.7717 28.0652 17.6246 27.2987C16.4776 26.5323 15.5836 25.443 15.0556 24.1685C14.5277 22.894 14.3896 21.4916 14.6587 20.1386C14.9279 18.7856 15.5922 17.5428 16.5676 16.5673C17.5431 15.5919 18.786 14.9276 20.139 14.6584C21.492 14.3893 22.8945 14.5274 24.169 15.0554C25.4435 15.5833 26.5329 16.4773 27.2993 17.6243C28.0657 18.7713 28.4748 20.1198 28.4748 21.4993C28.4748 23.3492 27.7399 25.1233 26.4319 26.4313C25.1238 27.7394 23.3497 28.4742 21.4998 28.4742ZM37.7613 22.1794C37.7781 21.726 37.7781 21.2739 37.7613 20.8232L40.8284 16.9889C40.9045 16.8942 40.9574 16.783 40.9826 16.6642C41.0078 16.5454 41.0048 16.4224 40.9737 16.305C40.5148 14.5888 39.83 12.9411 38.9374 11.4051C38.8776 11.2995 38.7939 11.2094 38.6929 11.1421C38.592 11.0748 38.4766 11.0322 38.3562 11.0176L33.4755 10.4751C33.1686 10.143 32.8486 9.82303 32.5165 9.51605L31.9759 4.64331C31.9613 4.52285 31.9187 4.4075 31.8514 4.30655C31.7841 4.20559 31.694 4.12185 31.5884 4.06206C30.0543 3.17158 28.4094 2.48755 26.6962 2.02772C26.5789 1.99639 26.4559 1.99304 26.3371 2.01794C26.2183 2.04285 26.107 2.0953 26.0122 2.17109L22.1798 5.23811C21.7264 5.22003 21.2744 5.22003 20.8236 5.23811L16.9853 2.17109C16.8907 2.09497 16.7795 2.04216 16.6607 2.01692C16.5419 1.99168 16.4188 1.99471 16.3014 2.02578C14.5865 2.48504 12.9401 3.16977 11.4053 4.06206C11.2997 4.12185 11.2096 4.20559 11.1423 4.30655C11.075 4.4075 11.0324 4.52285 11.0178 4.64331L10.4753 9.5238C10.1431 9.83078 9.82321 10.1507 9.51622 10.4829L4.64336 11.0234C4.52291 11.038 4.40756 11.0806 4.3066 11.148C4.20564 11.2153 4.1219 11.3053 4.06211 11.4109C3.1716 12.945 2.48756 14.5899 2.02772 16.303C1.99639 16.4203 1.99304 16.5433 2.01794 16.6621C2.04285 16.7809 2.0953 16.8921 2.17109 16.987L5.23818 20.8193C5.2201 21.2726 5.2201 21.7247 5.23818 22.1755L2.17109 26.0136C2.09497 26.1083 2.04216 26.2195 2.01692 26.3383C1.99168 26.4571 1.99471 26.5802 2.02578 26.6976C2.48505 28.4124 3.1698 30.0588 4.06211 31.5936C4.1219 31.6991 4.20564 31.7892 4.3066 31.8565C4.40756 31.9238 4.52291 31.9665 4.64336 31.9811L9.52397 32.5236C9.8301 32.8549 10.1517 33.1765 10.483 33.4826L11.0255 38.365C11.0401 38.4855 11.0828 38.6008 11.1501 38.7018C11.2174 38.8028 11.3075 38.8865 11.413 38.9463C12.9494 39.8345 14.5963 40.516 16.3111 40.9729C16.4284 41.0042 16.5513 41.0076 16.6701 40.9827C16.7889 40.9577 16.9002 40.9053 16.995 40.8295L20.8274 37.7625C21.2808 37.7793 21.7329 37.7793 22.1837 37.7625L26.018 40.8295C26.1554 40.9397 26.3263 40.9999 26.5024 41C26.5678 40.9998 26.6329 40.9914 26.6962 40.9748C28.4118 40.5151 30.0589 39.8297 31.5942 38.9366C31.6998 38.8768 31.7899 38.7931 31.8572 38.6921C31.9245 38.5912 31.9671 38.4758 31.9817 38.3554L32.5242 33.4749C32.8555 33.1687 33.1772 32.8471 33.4833 32.5158L38.3658 31.9733C38.4863 31.9587 38.6017 31.9161 38.7026 31.8488C38.8036 31.7815 38.8873 31.6914 38.9471 31.5858C39.8354 30.0495 40.5168 28.4026 40.9737 26.6879C41.0051 26.5706 41.0084 26.4476 40.9835 26.3288C40.9586 26.21 40.9062 26.0988 40.8304 26.004L37.7613 22.1794ZM37.7943 30.4776L33.0144 31.0084C32.8238 31.0296 32.6477 31.1207 32.5204 31.2642C32.1275 31.7076 31.7082 32.1268 31.2648 32.5197C31.1214 32.647 31.0303 32.8231 31.0091 33.0137L30.4782 37.7915C29.2725 38.4579 27.9962 38.9875 26.6729 39.3706L22.918 36.3656C22.7804 36.256 22.6096 36.1966 22.4336 36.197H22.3871C21.7961 36.2337 21.2034 36.2337 20.6124 36.197C20.4206 36.1855 20.2315 36.2455 20.0815 36.3656L16.3285 39.3686C15.0047 38.9873 13.7276 38.4589 12.5213 37.7935L11.9904 33.0137C11.9693 32.8231 11.8781 32.647 11.7347 32.5197C11.2913 32.1268 10.872 31.7076 10.4792 31.2642C10.3518 31.1207 10.1758 31.0296 9.9851 31.0084L5.20718 30.4776C4.54081 29.2719 4.01117 27.9956 3.6281 26.6724L6.63319 22.9176C6.75323 22.7676 6.8133 22.5784 6.80176 22.3867C6.76699 21.7956 6.76699 21.203 6.80176 20.612C6.8133 20.4202 6.75323 20.2311 6.63319 20.0811L3.63004 16.3282C4.01143 15.0044 4.53979 13.7274 5.20524 12.5211L9.9851 11.9902C10.1758 11.969 10.3518 11.8779 10.4792 11.7345C10.872 11.2911 11.2913 10.8718 11.7347 10.479C11.8781 10.3516 11.9693 10.1756 11.9904 9.98492L12.5213 5.20711C13.727 4.54075 15.0033 4.01112 16.3266 3.62807L20.0815 6.63309C20.2315 6.75312 20.4206 6.81319 20.6124 6.80165C21.2034 6.765 21.7961 6.765 22.3871 6.80165C22.5789 6.81319 22.7681 6.75312 22.918 6.63309L26.671 3.63001C27.9949 4.01139 29.2719 4.53973 30.4782 5.20517L31.0091 9.98492C31.0303 10.1756 31.1214 10.3516 31.2648 10.479C31.7082 10.8718 32.1275 11.2911 32.5204 11.7345C32.6477 11.8779 32.8238 11.969 33.0144 11.9902L37.7923 12.5211C38.4587 13.7267 38.9883 15.003 39.3714 16.3263L36.3663 20.0811C36.2463 20.2311 36.1862 20.4202 36.1978 20.612C36.2325 21.203 36.2325 21.7956 36.1978 22.3867C36.1862 22.5784 36.2463 22.7676 36.3663 22.9176L39.3695 26.6704C38.9881 27.9943 38.4597 29.2713 37.7943 30.4776Z" fill="#0A612B"/>
<path d="M21.4998 12.9744C19.8137 12.9744 18.1654 13.4744 16.7635 14.4111C15.3615 15.3479 14.2689 16.6793 13.6236 18.237C12.9784 19.7947 12.8096 21.5088 13.1385 23.1624C13.4674 24.8161 14.2794 26.3351 15.4716 27.5273C16.6639 28.7196 18.1829 29.5315 19.8366 29.8604C21.4903 30.1893 23.2044 30.0205 24.7622 29.3753C26.3199 28.7301 27.6514 27.6374 28.5881 26.2355C29.5248 24.8336 30.0248 23.1854 30.0248 21.4993C30.0223 19.2392 29.1233 17.0723 27.5251 15.4742C25.9269 13.876 23.76 12.977 21.4998 12.9744ZM21.4998 28.4742C20.1202 28.4742 18.7717 28.0652 17.6246 27.2987C16.4776 26.5323 15.5836 25.443 15.0556 24.1685C14.5277 22.894 14.3896 21.4916 14.6587 20.1386C14.9279 18.7856 15.5922 17.5428 16.5676 16.5673C17.5431 15.5919 18.786 14.9276 20.139 14.6584C21.492 14.3893 22.8945 14.5274 24.169 15.0554C25.4435 15.5833 26.5329 16.4773 27.2993 17.6243C28.0657 18.7713 28.4748 20.1198 28.4748 21.4993C28.4748 23.3492 27.7399 25.1233 26.4319 26.4313C25.1238 27.7394 23.3497 28.4742 21.4998 28.4742ZM37.7613 22.1794C37.7781 21.726 37.7781 21.2739 37.7613 20.8232L40.8284 16.9889C40.9045 16.8942 40.9574 16.783 40.9826 16.6642C41.0078 16.5454 41.0048 16.4224 40.9737 16.305C40.5148 14.5888 39.83 12.9411 38.9374 11.4051C38.8776 11.2995 38.7939 11.2094 38.6929 11.1421C38.592 11.0748 38.4766 11.0322 38.3562 11.0176L33.4755 10.4751C33.1686 10.143 32.8486 9.82303 32.5165 9.51605L31.9759 4.64331C31.9613 4.52285 31.9187 4.4075 31.8514 4.30655C31.7841 4.20559 31.694 4.12185 31.5884 4.06206C30.0543 3.17158 28.4094 2.48755 26.6962 2.02772C26.5789 1.99639 26.4559 1.99304 26.3371 2.01794C26.2183 2.04285 26.107 2.0953 26.0122 2.17109L22.1798 5.23811C21.7264 5.22003 21.2744 5.22003 20.8236 5.23811L16.9853 2.17109C16.8907 2.09497 16.7795 2.04216 16.6607 2.01692C16.5419 1.99168 16.4188 1.99471 16.3014 2.02578C14.5865 2.48504 12.9401 3.16977 11.4053 4.06206C11.2997 4.12185 11.2096 4.20559 11.1423 4.30655C11.075 4.4075 11.0324 4.52285 11.0178 4.64331L10.4753 9.5238C10.1431 9.83078 9.82321 10.1507 9.51622 10.4829L4.64336 11.0234C4.52291 11.038 4.40756 11.0806 4.3066 11.148C4.20564 11.2153 4.1219 11.3053 4.06211 11.4109C3.1716 12.945 2.48756 14.5899 2.02772 16.303C1.99639 16.4203 1.99304 16.5433 2.01794 16.6621C2.04285 16.7809 2.0953 16.8921 2.17109 16.987L5.23818 20.8193C5.2201 21.2726 5.2201 21.7247 5.23818 22.1755L2.17109 26.0136C2.09497 26.1083 2.04216 26.2195 2.01692 26.3383C1.99168 26.4571 1.99471 26.5802 2.02578 26.6976C2.48505 28.4124 3.1698 30.0588 4.06211 31.5936C4.1219 31.6991 4.20564 31.7892 4.3066 31.8565C4.40756 31.9238 4.52291 31.9665 4.64336 31.9811L9.52397 32.5236C9.8301 32.8549 10.1517 33.1765 10.483 33.4826L11.0255 38.365C11.0401 38.4855 11.0828 38.6008 11.1501 38.7018C11.2174 38.8028 11.3075 38.8865 11.413 38.9463C12.9494 39.8345 14.5963 40.516 16.3111 40.9729C16.4284 41.0042 16.5513 41.0076 16.6701 40.9827C16.7889 40.9577 16.9002 40.9053 16.995 40.8295L20.8274 37.7625C21.2808 37.7793 21.7329 37.7793 22.1837 37.7625L26.018 40.8295C26.1554 40.9397 26.3263 40.9999 26.5024 41C26.5678 40.9998 26.6329 40.9914 26.6962 40.9748C28.4118 40.5151 30.0589 39.8297 31.5942 38.9366C31.6998 38.8768 31.7899 38.7931 31.8572 38.6921C31.9245 38.5912 31.9671 38.4758 31.9817 38.3554L32.5242 33.4749C32.8555 33.1687 33.1772 32.8471 33.4833 32.5158L38.3658 31.9733C38.4863 31.9587 38.6017 31.9161 38.7026 31.8488C38.8036 31.7815 38.8873 31.6914 38.9471 31.5858C39.8354 30.0495 40.5168 28.4026 40.9737 26.6879C41.0051 26.5706 41.0084 26.4476 40.9835 26.3288C40.9586 26.21 40.9062 26.0988 40.8304 26.004L37.7613 22.1794ZM37.7943 30.4776L33.0144 31.0084C32.8238 31.0296 32.6477 31.1207 32.5204 31.2642C32.1275 31.7076 31.7082 32.1268 31.2648 32.5197C31.1214 32.647 31.0303 32.8231 31.0091 33.0137L30.4782 37.7915C29.2725 38.4579 27.9962 38.9875 26.6729 39.3706L22.918 36.3656C22.7804 36.256 22.6096 36.1966 22.4336 36.197H22.3871C21.7961 36.2337 21.2034 36.2337 20.6124 36.197C20.4206 36.1855 20.2315 36.2455 20.0815 36.3656L16.3285 39.3686C15.0047 38.9873 13.7276 38.4589 12.5213 37.7935L11.9904 33.0137C11.9693 32.8231 11.8781 32.647 11.7347 32.5197C11.2913 32.1268 10.872 31.7076 10.4792 31.2642C10.3518 31.1207 10.1758 31.0296 9.9851 31.0084L5.20718 30.4776C4.54081 29.2719 4.01117 27.9956 3.6281 26.6724L6.63319 22.9176C6.75323 22.7676 6.8133 22.5784 6.80176 22.3867C6.76699 21.7956 6.76699 21.203 6.80176 20.612C6.8133 20.4202 6.75323 20.2311 6.63319 20.0811L3.63004 16.3282C4.01143 15.0044 4.53979 13.7274 5.20524 12.5211L9.9851 11.9902C10.1758 11.969 10.3518 11.8779 10.4792 11.7345C10.872 11.2911 11.2913 10.8718 11.7347 10.479C11.8781 10.3516 11.9693 10.1756 11.9904 9.98492L12.5213 5.20711C13.727 4.54075 15.0033 4.01112 16.3266 3.62807L20.0815 6.63309C20.2315 6.75312 20.4206 6.81319 20.6124 6.80165C21.2034 6.765 21.7961 6.765 22.3871 6.80165C22.5789 6.81319 22.7681 6.75312 22.918 6.63309L26.671 3.63001C27.9949 4.01139 29.2719 4.53973 30.4782 5.20517L31.0091 9.98492C31.0303 10.1756 31.1214 10.3516 31.2648 10.479C31.7082 10.8718 32.1275 11.2911 32.5204 11.7345C32.6477 11.8779 32.8238 11.969 33.0144 11.9902L37.7923 12.5211C38.4587 13.7267 38.9883 15.003 39.3714 16.3263L36.3663 20.0811C36.2463 20.2311 36.1862 20.4202 36.1978 20.612C36.2325 21.203 36.2325 21.7956 36.1978 22.3867C36.1862 22.5784 36.2463 22.7676 36.3663 22.9176L39.3695 26.6704C38.9881 27.9943 38.4597 29.2713 37.7943 30.4776Z" stroke="#0A612B" stroke-width="1.11429" mask="url(#path-1-outside-1_10_1515)"/>
</svg>
