<svg width="23" height="23" viewBox="0 0 23 23" fill="none" xmlns="http://www.w3.org/2000/svg">
<g id="iconoir:multiple-pages">
<g id="Group">
<path id="Vector" d="M7.01562 16.9999H13.4323M7.01562 13.3333H7.93229M7.01562 9.66658H9.76562M7.01562 2.33325H15.724L19.849 6.45825V17.9166" stroke="#0A612B" stroke-width="1.5" stroke-linecap="round" stroke-linejoin="round"/>
<path id="Vector_2" d="M3.34961 19.2916V6.45825C3.34961 6.09358 3.49448 5.74384 3.75234 5.48598C4.0102 5.22812 4.35994 5.08325 4.72461 5.08325H13.6639C13.8098 5.08338 13.9496 5.14141 14.0526 5.24459L16.9383 8.13025C16.9896 8.18149 17.0302 8.24237 17.0579 8.30939C17.0856 8.37641 17.0998 8.44824 17.0996 8.52075V19.2916C17.0996 19.6563 16.9547 20.006 16.6969 20.2639C16.439 20.5217 16.0893 20.6666 15.7246 20.6666H4.72461C4.35994 20.6666 4.0102 20.5217 3.75234 20.2639C3.49448 20.006 3.34961 19.6563 3.34961 19.2916Z" stroke="#0A612B" stroke-width="1.5" stroke-linecap="round" stroke-linejoin="round"/>
<path id="Vector_3" d="M13.4336 5.08325V8.19992C13.4336 8.34579 13.4915 8.48568 13.5947 8.58883C13.6978 8.69197 13.8377 8.74992 13.9836 8.74992H17.1003" stroke="#0A612B" stroke-width="1.5" stroke-linecap="round" stroke-linejoin="round"/>
</g>
</g>
</svg>
