<svg width="43" height="43" viewBox="0 0 43 43" fill="none" xmlns="http://www.w3.org/2000/svg">
<path d="M41.8946 39.8272L41.8947 39.827L41.8876 39.8199L32.0084 29.9407C34.8134 26.6114 36.251 22.3374 36.0233 17.9833C35.7909 13.5399 33.8425 9.36032 30.5886 6.32555C27.3347 3.29078 23.0296 1.63793 18.5808 1.71541C14.132 1.79289 9.88713 3.59465 6.74089 6.74089C3.59465 9.88713 1.79289 14.132 1.71541 18.5808C1.63793 23.0296 3.29078 27.3347 6.32555 30.5886C9.36032 33.8425 13.5399 35.7909 17.9833 36.0233C22.3374 36.251 26.6114 34.8134 29.9407 32.0084L39.8199 41.8876L39.8198 41.8877L39.8272 41.8946C40.1045 42.153 40.4712 42.2937 40.8502 42.287C41.2292 42.2803 41.5907 42.1268 41.8588 41.8587C42.1268 41.5907 42.2803 41.2292 42.287 40.8502C42.2937 40.4712 42.153 40.1045 41.8946 39.8272ZM4.6971 18.9089C4.69713 16.0981 5.53064 13.3504 7.09225 11.0133C8.65387 8.67617 10.8735 6.85459 13.4704 5.77892C16.0673 4.70325 18.9248 4.42181 21.6817 4.97018C24.4385 5.51855 26.9708 6.87211 28.9584 8.85968C30.946 10.8473 32.2996 13.3796 32.8479 16.1364C33.3963 18.8933 33.1149 21.7508 32.0392 24.3477C30.9635 26.9446 29.1419 29.1642 26.8048 30.7259C24.4677 32.2874 21.7201 33.1209 18.9094 33.121C15.1415 33.1164 11.5292 31.6176 8.86484 28.9533C6.20055 26.289 4.70172 22.6768 4.6971 18.9089Z" fill="#D1811F" stroke="#D1811F" stroke-width="0.574393"/>
</svg>
