<svg width="44" height="44" viewBox="0 0 44 44" fill="none" xmlns="http://www.w3.org/2000/svg">
<rect width="44" height="44" rx="22" fill="#0A612B"/>
<mask id="path-2-outside-1_339_1403" maskUnits="userSpaceOnUse" x="12.75" y="11.375" width="18" height="21" fill="black">
<rect fill="white" x="12.75" y="11.375" width="18" height="21"/>
<path d="M28.875 19.25H24.375C23.8227 19.25 23.375 18.8023 23.375 18.25V13.75H15.125V30.25H28.875V19.25ZM28.3058 17.875L24.75 14.3193V16.875C24.75 17.4273 25.1977 17.875 25.75 17.875H28.3058ZM14.4375 12.375H24.3358C24.601 12.375 24.8554 12.4804 25.0429 12.6679L29.9571 17.5821C30.1446 17.7696 30.25 18.024 30.25 18.2892V30.9375C30.25 31.1198 30.1776 31.2947 30.0486 31.4236C29.9197 31.5526 29.7448 31.625 29.5625 31.625H14.4375C14.2552 31.625 14.0803 31.5526 13.9514 31.4236C13.8224 31.2947 13.75 31.1198 13.75 30.9375V13.0625C13.75 12.8802 13.8224 12.7053 13.9514 12.5764C14.0803 12.4474 14.2552 12.375 14.4375 12.375ZM17.875 22.6875C17.875 22.3078 18.1828 22 18.5625 22H25.4375C25.8172 22 26.125 22.3078 26.125 22.6875V22.6875C26.125 23.0672 25.8172 23.375 25.4375 23.375H18.5625C18.1828 23.375 17.875 23.0672 17.875 22.6875V22.6875ZM17.875 18.5625C17.875 18.1828 18.1828 17.875 18.5625 17.875H20.625C21.0047 17.875 21.3125 18.1828 21.3125 18.5625V18.5625C21.3125 18.9422 21.0047 19.25 20.625 19.25H18.5625C18.1828 19.25 17.875 18.9422 17.875 18.5625V18.5625ZM17.875 26.8125C17.875 26.4328 18.1828 26.125 18.5625 26.125H25.4375C25.8172 26.125 26.125 26.4328 26.125 26.8125V26.8125C26.125 27.1922 25.8172 27.5 25.4375 27.5H18.5625C18.1828 27.5 17.875 27.1922 17.875 26.8125V26.8125Z"/>
</mask>
<path d="M28.875 19.25H24.375C23.8227 19.25 23.375 18.8023 23.375 18.25V13.75H15.125V30.25H28.875V19.25ZM28.3058 17.875L24.75 14.3193V16.875C24.75 17.4273 25.1977 17.875 25.75 17.875H28.3058ZM14.4375 12.375H24.3358C24.601 12.375 24.8554 12.4804 25.0429 12.6679L29.9571 17.5821C30.1446 17.7696 30.25 18.024 30.25 18.2892V30.9375C30.25 31.1198 30.1776 31.2947 30.0486 31.4236C29.9197 31.5526 29.7448 31.625 29.5625 31.625H14.4375C14.2552 31.625 14.0803 31.5526 13.9514 31.4236C13.8224 31.2947 13.75 31.1198 13.75 30.9375V13.0625C13.75 12.8802 13.8224 12.7053 13.9514 12.5764C14.0803 12.4474 14.2552 12.375 14.4375 12.375ZM17.875 22.6875C17.875 22.3078 18.1828 22 18.5625 22H25.4375C25.8172 22 26.125 22.3078 26.125 22.6875V22.6875C26.125 23.0672 25.8172 23.375 25.4375 23.375H18.5625C18.1828 23.375 17.875 23.0672 17.875 22.6875V22.6875ZM17.875 18.5625C17.875 18.1828 18.1828 17.875 18.5625 17.875H20.625C21.0047 17.875 21.3125 18.1828 21.3125 18.5625V18.5625C21.3125 18.9422 21.0047 19.25 20.625 19.25H18.5625C18.1828 19.25 17.875 18.9422 17.875 18.5625V18.5625ZM17.875 26.8125C17.875 26.4328 18.1828 26.125 18.5625 26.125H25.4375C25.8172 26.125 26.125 26.4328 26.125 26.8125V26.8125C26.125 27.1922 25.8172 27.5 25.4375 27.5H18.5625C18.1828 27.5 17.875 27.1922 17.875 26.8125V26.8125Z" fill="#FBFFFB"/>
<path d="M28.875 19.25H28.975V19.15H28.875V19.25ZM23.375 13.75H23.475V13.65H23.375V13.75ZM15.125 13.75V13.65H15.025V13.75H15.125ZM15.125 30.25H15.025V30.35H15.125V30.25ZM28.875 30.25V30.35H28.975V30.25H28.875ZM28.3058 17.875V17.975H28.5472L28.3765 17.8043L28.3058 17.875ZM24.75 14.3193L24.8207 14.2485L24.65 14.0778V14.3193H24.75ZM14.4375 12.375V12.275V12.375ZM25.0429 12.6679L24.9722 12.7386L25.0429 12.6679ZM29.9571 17.5821L30.0278 17.5114L29.9571 17.5821ZM28.875 19.15H24.375V19.35H28.875V19.15ZM23.475 18.25V13.75H23.275V18.25H23.475ZM23.375 13.65H15.125V13.85H23.375V13.65ZM15.025 13.75V30.25H15.225V13.75H15.025ZM15.125 30.35H28.875V30.15H15.125V30.35ZM28.975 30.25V19.25H28.775V30.25H28.975ZM28.3765 17.8043L24.8207 14.2485L24.6793 14.39L28.235 17.9457L28.3765 17.8043ZM24.65 14.3193V16.875H24.85V14.3193H24.65ZM25.75 17.975H28.3058V17.775H25.75V17.975ZM14.4375 12.475H24.3358V12.275H14.4375V12.475ZM24.9722 12.7386L29.8864 17.6528L30.0278 17.5114L25.1136 12.5972L24.9722 12.7386ZM30.15 18.2892V30.9375H30.35V18.2892H30.15ZM30.15 30.9375C30.15 31.0933 30.0881 31.2427 29.9779 31.3529L30.1193 31.4943C30.267 31.3467 30.35 31.1464 30.35 30.9375H30.15ZM29.9779 31.3529C29.8677 31.4631 29.7183 31.525 29.5625 31.525V31.725C29.7714 31.725 29.9717 31.642 30.1193 31.4943L29.9779 31.3529ZM29.5625 31.525H14.4375V31.725H29.5625V31.525ZM14.4375 31.525C14.2817 31.525 14.1323 31.4631 14.0221 31.3529L13.8807 31.4943C14.0283 31.642 14.2286 31.725 14.4375 31.725V31.525ZM14.0221 31.3529C13.9119 31.2427 13.85 31.0933 13.85 30.9375H13.65C13.65 31.1464 13.733 31.3467 13.8807 31.4943L14.0221 31.3529ZM13.85 30.9375V13.0625H13.65V30.9375H13.85ZM13.85 13.0625C13.85 12.9067 13.9119 12.7573 14.0221 12.6471L13.8807 12.5057C13.733 12.6533 13.65 12.8536 13.65 13.0625H13.85ZM14.0221 12.6471C14.1323 12.5369 14.2817 12.475 14.4375 12.475V12.275C14.2286 12.275 14.0283 12.358 13.8807 12.5057L14.0221 12.6471ZM18.5625 22.1H25.4375V21.9H18.5625V22.1ZM25.4375 23.275H18.5625V23.475H25.4375V23.275ZM18.5625 17.975H20.625V17.775H18.5625V17.975ZM20.625 19.15H18.5625V19.35H20.625V19.15ZM18.5625 26.225H25.4375V26.025H18.5625V26.225ZM25.4375 27.4H18.5625V27.6H25.4375V27.4ZM26.025 26.8125C26.025 27.137 25.762 27.4 25.4375 27.4V27.6C25.8724 27.6 26.225 27.2474 26.225 26.8125H26.025ZM25.4375 26.225C25.762 26.225 26.025 26.488 26.025 26.8125H26.225C26.225 26.3776 25.8724 26.025 25.4375 26.025V26.225ZM18.5625 26.025C18.1276 26.025 17.775 26.3776 17.775 26.8125H17.975C17.975 26.488 18.238 26.225 18.5625 26.225V26.025ZM18.5625 19.15C18.238 19.15 17.975 18.887 17.975 18.5625H17.775C17.775 18.9974 18.1276 19.35 18.5625 19.35V19.15ZM21.2125 18.5625C21.2125 18.887 20.9495 19.15 20.625 19.15V19.35C21.0599 19.35 21.4125 18.9974 21.4125 18.5625H21.2125ZM20.625 17.975C20.9495 17.975 21.2125 18.238 21.2125 18.5625H21.4125C21.4125 18.1276 21.0599 17.775 20.625 17.775V17.975ZM24.375 19.15C23.8779 19.15 23.475 18.7471 23.475 18.25H23.275C23.275 18.8575 23.7675 19.35 24.375 19.35V19.15ZM18.5625 17.775C18.1276 17.775 17.775 18.1276 17.775 18.5625H17.975C17.975 18.238 18.238 17.975 18.5625 17.975V17.775ZM18.5625 21.9C18.1276 21.9 17.775 22.2526 17.775 22.6875H17.975C17.975 22.363 18.238 22.1 18.5625 22.1V21.9ZM25.4375 22.1C25.762 22.1 26.025 22.363 26.025 22.6875H26.225C26.225 22.2526 25.8724 21.9 25.4375 21.9V22.1ZM24.3358 12.475C24.5745 12.475 24.8034 12.5698 24.9722 12.7386L25.1136 12.5972C24.9073 12.3909 24.6275 12.275 24.3358 12.275V12.475ZM18.5625 27.4C18.238 27.4 17.975 27.137 17.975 26.8125H17.775C17.775 27.2474 18.1276 27.6 18.5625 27.6V27.4ZM24.65 16.875C24.65 17.4825 25.1425 17.975 25.75 17.975V17.775C25.2529 17.775 24.85 17.3721 24.85 16.875H24.65ZM26.025 22.6875C26.025 23.012 25.762 23.275 25.4375 23.275V23.475C25.8724 23.475 26.225 23.1224 26.225 22.6875H26.025ZM29.8864 17.6528C30.0552 17.8216 30.15 18.0505 30.15 18.2892H30.35C30.35 17.9975 30.2341 17.7177 30.0278 17.5114L29.8864 17.6528ZM18.5625 23.275C18.238 23.275 17.975 23.012 17.975 22.6875H17.775C17.775 23.1224 18.1276 23.475 18.5625 23.475V23.275Z" fill="#FBFFFB" mask="url(#path-2-outside-1_339_1403)"/>
</svg>
