<svg width="44" height="44" viewBox="0 0 44 44" fill="none" xmlns="http://www.w3.org/2000/svg">
<rect width="44" height="44" rx="22" fill="#0A612B"/>
<path d="M19.25 31.1667L16.5 24.75L13.75 31.1667H19.25Z" stroke="#FBFFFB" stroke-width="1.55833" stroke-linecap="round" stroke-linejoin="round"/>
<path d="M27.6763 23.2233C28.8616 24.4086 29.4546 25.0016 29.3135 25.9165C29.3046 25.9693 29.2942 26.0219 29.2823 26.0741C29.0623 26.9725 28.4573 27.2236 27.251 27.7241C25.5878 28.4134 23.7575 28.5939 21.9917 28.2428C20.226 27.8917 18.604 27.0247 17.331 25.7515C16.0581 24.4784 15.1914 22.8563 14.8405 21.0904C14.4897 19.3246 14.6704 17.4944 15.36 15.8313C15.8596 14.6241 16.1098 14.0209 17.01 13.8C17.0512 13.7908 17.1246 13.7752 17.1658 13.7688C18.0825 13.6286 18.6746 14.2207 19.8599 15.406L27.6763 23.2233Z" stroke="#FBFFFB" stroke-width="1.55833" stroke-linecap="round" stroke-linejoin="round"/>
<path d="M28.4173 16.5002C29.4298 16.5002 30.2507 15.6794 30.2507 14.6668C30.2507 13.6543 29.4298 12.8335 28.4173 12.8335C27.4048 12.8335 26.584 13.6543 26.584 14.6668C26.584 15.6794 27.4048 16.5002 28.4173 16.5002Z" stroke="#FBFFFB" stroke-width="1.55833" stroke-linecap="round" stroke-linejoin="round"/>
<path d="M22.459 17.5392L27.2376 16.0688L25.5546 20.6522" stroke="#FBFFFB" stroke-width="1.55833" stroke-linecap="round" stroke-linejoin="round"/>
</svg>
