<svg width="44" height="44" viewBox="0 0 44 44" fill="none" xmlns="http://www.w3.org/2000/svg">
<rect width="44" height="44" rx="22" fill="#0A612B"/>
<path fill-rule="evenodd" clip-rule="evenodd" d="M25.9344 11.3989C26.2664 11.7308 26.2664 12.269 25.9344 12.6009C25.6913 12.844 25.5672 12.9725 25.4866 13.3024C25.3896 13.6994 25.3566 14.4285 25.5976 15.8587C25.6756 16.3216 25.3635 16.7601 24.9006 16.8381C24.4377 16.9161 23.9992 16.604 23.9212 16.1411C23.6682 14.6393 23.6552 13.6354 23.8352 12.8989C24.0302 12.101 24.4357 11.6955 24.7262 11.4051L24.7323 11.3989C25.0643 11.0669 25.6025 11.0669 25.9344 11.3989ZM19.5003 19.0885C19.3882 19.1485 19.3339 19.2024 19.2684 19.2679C19.2029 19.3334 19.149 19.3877 19.089 19.4999C19.0252 19.6192 18.937 19.8405 18.8855 20.235C18.7872 20.9888 18.8301 22.318 19.3715 24.63C21.6829 25.1716 23.0116 25.2143 23.7651 25.1157C24.1594 25.0641 24.3806 24.9758 24.5 24.9118C24.6122 24.8517 24.6666 24.7977 24.7323 24.7319C24.7981 24.6661 24.8522 24.6117 24.9123 24.4995C24.9763 24.3801 25.0646 24.1589 25.1162 23.7646C25.2148 23.0111 25.1721 21.6824 24.6305 19.371C22.3184 18.8297 20.9893 18.7867 20.2354 18.885C19.841 18.9365 19.6197 19.0247 19.5003 19.0885ZM26.4672 19.8068C28.3683 20.2229 29.6165 20.3431 30.494 20.2634C31.0493 20.213 31.4827 20.0808 31.8456 19.8757C32.1871 19.6827 32.4235 19.4461 32.5853 19.2841C32.5907 19.2786 32.5961 19.2732 32.6014 19.2679C32.9334 18.936 32.9334 18.3978 32.6014 18.0659C32.2695 17.7339 31.7313 17.7339 31.3994 18.0659C31.2279 18.2373 31.1353 18.3245 31.0091 18.3958C30.8929 18.4615 30.7014 18.5376 30.3402 18.5704C29.576 18.6398 28.1951 18.5058 25.5405 17.8423L25.5405 17.8423C22.8283 17.1645 21.1259 17.0545 20.0156 17.1993C19.4517 17.2728 19.0272 17.4137 18.6987 17.5894C18.3636 17.7686 18.1681 17.9641 18.067 18.0653L18.0663 18.0659L18.0657 18.0665C17.9646 18.1676 17.7691 18.3631 17.5899 18.6982C17.4142 19.0267 17.2733 19.4512 17.1998 20.0151C17.0806 20.9291 17.134 22.2444 17.5348 24.1938C15.6335 23.7773 14.3851 23.6569 13.5074 23.7365C12.952 23.7869 12.5185 23.9189 12.1555 24.124C11.8137 24.3171 11.5772 24.5538 11.4153 24.7159C11.4099 24.7213 11.4046 24.7266 11.3993 24.7319C11.0674 25.0638 11.0674 25.602 11.3993 25.9339C11.7313 26.2659 12.2695 26.2659 12.6014 25.9339C12.7727 25.7626 12.8655 25.6754 12.9916 25.6041C13.1079 25.5384 13.2996 25.4623 13.6609 25.4296C14.4254 25.3602 15.8066 25.4945 18.4611 26.1585C21.1729 26.8368 22.8752 26.9466 23.9857 26.8013C24.5496 26.7276 24.9742 26.5864 25.3026 26.4104C25.6371 26.2313 25.8324 26.0359 25.9334 25.9349L25.9344 25.9339L25.9354 25.9329C26.0364 25.8319 26.2318 25.6366 26.4109 25.3021C26.5868 24.9737 26.728 24.5492 26.8018 23.9852C26.9214 23.0711 26.8682 21.7559 26.4672 19.8068ZM19.1002 27.1617C19.5631 27.0837 20.0016 27.3958 20.0796 27.8587C20.3326 29.3605 20.3456 30.3644 20.1656 31.1009C19.9706 31.8988 19.5651 32.3043 19.2746 32.5948L19.2684 32.6009C18.9365 32.9329 18.3983 32.9329 18.0663 32.6009C17.7344 32.269 17.7344 31.7308 18.0663 31.3989C18.3094 31.1558 18.4336 31.0273 18.5142 30.6974C18.6112 30.3004 18.6442 29.5713 18.4032 28.1411C18.3252 27.6782 18.6373 27.2397 19.1002 27.1617Z" fill="#FBFFFB"/>
</svg>
