<svg width="44" height="44" viewBox="0 0 44 44" fill="none" xmlns="http://www.w3.org/2000/svg">
<rect width="44" height="44" rx="22" fill="#0A612B"/>
<path d="M20 26.584V28.9996C20 30.1042 20.8954 30.9996 22 30.9996C23.1046 30.9996 24 30.1042 24 28.9996L24 26.584M22 13V14M28.3643 15.6357L27.6572 16.3428M15.6357 15.6357L16.3428 16.3428M14 22H13M31 22H30M27 22C27 24.7614 24.7614 27 22 27C19.2386 27 17 24.7614 17 22C17 19.2386 19.2386 17 22 17C24.7614 17 27 19.2386 27 22Z" stroke="#FBFFFB" stroke-width="1.5" stroke-linecap="round" stroke-linejoin="round"/>
</svg>
