<svg width="667" height="566" viewBox="0 0 667 566" fill="none" xmlns="http://www.w3.org/2000/svg">
<path d="M254.962 433.177L256.626 431.517V429.853L258.194 428.189L256.626 426.521H253.421H251.635L250.094 423.312V421.652V418.32V416.66L251.635 415.088V413.428V411.883L250.094 410.096H248.307L246.643 408.559V406.891H248.307H250.094H251.635L253.421 405.204L254.962 403.54L256.626 401.872L254.962 400.335V398.667L253.421 397.003V395.339H254.962V393.775V392.011L253.421 390.443V388.779H254.962L253.421 387.115V385.574H254.962H256.626V383.787L254.962 380.578H253.421V382.246H251.635L250.094 385.574L246.643 387.115L245.099 383.787L246.643 380.578L250.094 377.35V375.686L251.635 374.018H254.962L258.194 372.354L259.858 369.126V367.462L261.522 365.798L263.186 367.462L264.972 369.126L266.517 365.798L268.177 367.462V362.466L269.745 360.806V359.261V356.029V354.269L271.508 352.601V351.037L273.076 347.828L274.836 346.045L278.064 342.836L276.4 341.172H274.836H273.076L271.508 339.481H268.177L264.972 337.821L263.186 336.276L261.522 332.948L259.858 329.62H256.626L254.962 328.052H253.421H251.635L250.094 329.62V328.052L248.307 326.388L246.643 324.728H245.099V323.06L243.435 321.519V319.732L241.871 318.29V316.523H240.107V318.29H238.543H236.78L235.116 316.523L236.78 314.859V313.294V309.967H235.116H233.548H231.884L230.22 306.761V305.093H228.556H226.893V303.406V301.742H225.229H223.661V300.075L221.997 298.415V296.869V295.209V293.542H218.666H217.006H215.342H213.674H212.133L210.469 295.209V296.869V298.415L208.901 300.075V301.742V305.093V306.761H207.142H205.478L203.814 308.299H202.124L198.919 309.967L195.591 311.531H192.264H189.032V313.294H190.696L193.927 314.859L195.591 316.523H193.927V318.29L190.696 316.523H187.364H184.04V314.859H180.709L177.504 313.294L174.177 311.531V313.294L170.822 311.531L172.513 309.967L170.822 308.299V306.761L172.513 305.093H170.822H169.281L167.613 303.406H165.953V305.093L164.163 306.761V309.967V311.531L165.953 314.859L164.163 316.523V318.29V319.732L165.953 321.519V323.06H162.622L160.839 321.519H159.298H157.73L159.298 319.732H156.067H152.735L151.071 318.29V319.732H147.866V318.29V314.859H146.08H144.539V313.294L146.08 311.531L144.539 313.294L141.211 311.531L139.547 313.294V314.859H136.316V313.294H132.984H131.198L129.657 311.531L127.87 313.294H126.425H124.765H123.101V314.859H124.765H126.425H127.87V316.523V318.29H126.425V319.732H124.765H123.101L121.434 321.519H123.101L124.765 323.06L126.425 326.388V324.728L129.657 326.388V324.728H131.198V326.388L134.529 329.62H136.316V331.284H137.857V332.948V334.612H141.211H144.539L142.752 336.276H144.539L146.08 337.821L144.539 341.172H146.08L147.866 342.836H151.071H147.866V344.5H149.312V346.045L146.08 349.373V351.037L147.866 354.269H149.312V357.597L151.071 359.261V360.806L154.399 362.466L156.067 360.806V362.466V364.13L154.399 365.798H156.067L154.399 367.462V370.79V372.354L152.735 374.018V375.686H154.399V377.35V378.914L156.067 380.578V382.246V385.574V387.115L154.399 385.574V383.787V382.246L152.735 380.578V378.914L151.071 377.35V375.686L149.312 377.35V382.246V383.787L147.866 385.574V388.779H146.08L149.312 390.443L147.866 392.011H144.539V393.775V395.339L142.752 397.003V398.667H141.211V401.872H139.547L137.857 403.54V405.204L134.529 408.559L131.198 411.883L132.984 413.428L134.529 415.088V416.66V418.32H136.316H137.857L141.211 421.652H142.752L144.539 424.98H146.08H147.866L149.312 426.521L152.735 429.853H154.399L157.73 431.517H159.298V433.177L163.189 433.4L166.954 432.296L168.936 433.645L169.622 435.627L169.281 438.077L170.822 439.741H172.513H174.177H175.718L177.504 441.401L179.168 443.065H180.709H184.04L185.704 444.515L187.59 444.856L189.032 444.515H190.696L191.922 445.297L193.805 443.733L193.046 443.192L192.582 442.283L192.264 441.401L193.927 439.741L192.264 438.077L193.927 434.745V433.177L195.591 431.517H197.255L198.919 429.853H200.583H202.124H203.814L205.478 428.189L207.142 426.521H208.901L210.469 428.189L212.133 429.853H213.674H217.006V433.177L218.666 431.517H220.333L221.997 429.853H223.661V431.517V433.177H225.229H226.893V434.745V436.409L228.556 434.745L230.22 436.409L231.884 438.077V439.741L233.548 441.401H235.116H236.78H238.543H240.107H241.871L243.435 439.741V438.077V436.409H245.099H246.643H248.307V434.745H250.094H251.635V436.409L254.962 433.177L253.421 434.745L254.962 433.177Z" fill="#DDEDDD"/>
<path d="M254.962 433.177L256.626 431.517V429.853L258.194 428.189L256.626 426.521H253.421H251.635L250.094 423.312V421.652V418.32V416.66L251.635 415.088V413.428V411.883L250.094 410.096H248.307L246.643 408.559V406.891H248.307H250.094H251.635L253.421 405.204L254.962 403.54L256.626 401.872L254.962 400.335V398.667L253.421 397.003V395.339H254.962V393.775V392.011L253.421 390.443V388.779H254.962L253.421 387.115V385.574H254.962H256.626V383.787L254.962 380.578H253.421V382.246H251.635L250.094 385.574L246.643 387.115L245.099 383.787L246.643 380.578L250.094 377.35V375.686L251.635 374.018H254.962L258.194 372.354L259.858 369.126V367.462L261.522 365.798L263.186 367.462L264.972 369.126L266.517 365.798L268.177 367.462V362.466L269.745 360.806V359.261V356.029V354.269L271.508 352.601V351.037L273.076 347.828L274.836 346.045L278.064 342.836L276.4 341.172H274.836H273.076L271.508 339.481H268.177L264.972 337.821L263.186 336.276L261.522 332.948L259.858 329.62H256.626L254.962 328.052H253.421H251.635L250.094 329.62V328.052L248.307 326.388L246.643 324.728H245.099V323.06L243.435 321.519V319.732L241.871 318.29V316.523H240.107V318.29H238.543H236.78L235.116 316.523L236.78 314.859V313.294V309.967H235.116H233.548H231.884L230.22 306.761V305.093H228.556H226.893V303.406V301.742H225.229H223.661V300.075L221.997 298.415V296.869V295.209V293.542H218.666H217.006H215.342H213.674H212.133L210.469 295.209V296.869V298.415L208.901 300.075V301.742V305.093V306.761H207.142H205.478L203.814 308.299H202.124L198.919 309.967L195.591 311.531H192.264H189.032V313.294H190.696L193.927 314.859L195.591 316.523H193.927V318.29L190.696 316.523H187.364H184.04V314.859H180.709L177.504 313.294L174.177 311.531V313.294L170.822 311.531L172.513 309.967L170.822 308.299V306.761L172.513 305.093H170.822H169.281L167.613 303.406H165.953V305.093L164.163 306.761V309.967V311.531L165.953 314.859L164.163 316.523V318.29V319.732L165.953 321.519V323.06H162.622L160.839 321.519H159.298H157.73L159.298 319.732H156.067H152.735L151.071 318.29V319.732H147.866V318.29V314.859H146.08H144.539V313.294L146.08 311.531L144.539 313.294L141.211 311.531L139.547 313.294V314.859H136.316V313.294H132.984H131.198L129.657 311.531L127.87 313.294H126.425H124.765H123.101V314.859H124.765H126.425H127.87V316.523V318.29H126.425V319.732H124.765H123.101L121.434 321.519H123.101L124.765 323.06L126.425 326.388V324.728L129.657 326.388V324.728H131.198V326.388L134.529 329.62H136.316V331.284H137.857V332.948V334.612H141.211H144.539L142.752 336.276H144.539L146.08 337.821L144.539 341.172H146.08L147.866 342.836H151.071H147.866V344.5H149.312V346.045L146.08 349.373V351.037L147.866 354.269H149.312V357.597L151.071 359.261V360.806L154.399 362.466L156.067 360.806V362.466V364.13L154.399 365.798H156.067L154.399 367.462V370.79V372.354L152.735 374.018V375.686H154.399V377.35V378.914L156.067 380.578V382.246V385.574V387.115L154.399 385.574V383.787V382.246L152.735 380.578V378.914L151.071 377.35V375.686L149.312 377.35V382.246V383.787L147.866 385.574V388.779H146.08L149.312 390.443L147.866 392.011H144.539V393.775V395.339L142.752 397.003V398.667H141.211V401.872H139.547L137.857 403.54V405.204L134.529 408.559L131.198 411.883L132.984 413.428L134.529 415.088V416.66V418.32H136.316H137.857L141.211 421.652H142.752L144.539 424.98H146.08H147.866L149.312 426.521L152.735 429.853H154.399L157.73 431.517H159.298V433.177L163.189 433.4L166.954 432.296L168.936 433.645L169.622 435.627L169.281 438.077L170.822 439.741H172.513H174.177H175.718L177.504 441.401L179.168 443.065H180.709H184.04L185.704 444.515L187.59 444.856L189.032 444.515H190.696L191.922 445.297L193.805 443.733L193.046 443.192L192.582 442.283L192.264 441.401L193.927 439.741L192.264 438.077L193.927 434.745V433.177L195.591 431.517H197.255L198.919 429.853H200.583H202.124H203.814L205.478 428.189L207.142 426.521H208.901L210.469 428.189L212.133 429.853H213.674H217.006V433.177L218.666 431.517H220.333L221.997 429.853H223.661V431.517V433.177H225.229H226.893V434.745V436.409L228.556 434.745L230.22 436.409L231.884 438.077V439.741L233.548 441.401H235.116H236.78H238.543H240.107H241.871L243.435 439.741V438.077V436.409H245.099H246.643H248.307V434.745H250.094H251.635V436.409L254.962 433.177ZM254.962 433.177L253.421 434.745L254.962 433.177Z" stroke="#FBFFFB" stroke-width="0.383498" stroke-miterlimit="10"/>
<path d="M254.962 433.177L256.626 431.517V429.853L258.194 428.189L256.626 426.521H253.421H251.635L250.094 423.312V421.652V418.32V416.66L251.635 415.088V413.428V411.883L250.094 410.096H248.307L246.643 408.559V406.891H248.307H250.094H251.635L253.421 405.204L254.962 403.54L256.626 401.872L254.962 400.335V398.667L253.421 397.003V395.339H254.962V393.775V392.011L253.421 390.443V388.779H254.962L253.421 387.115V385.574H254.962H256.626V383.787L254.962 380.578H253.421V382.246H251.635L250.094 385.574L246.643 387.115L245.099 383.787L246.643 380.578L250.094 377.35V375.686L251.635 374.018H254.962L258.194 372.354L259.858 369.126V367.462L261.522 365.798L263.186 367.462L264.972 369.126L266.517 365.798L268.177 367.462V362.466L269.745 360.806V359.261V356.029V354.269L271.508 352.601V351.037L273.076 347.828L274.836 346.045L278.064 342.836L276.4 341.172H274.836H273.076L271.508 339.481H268.177L264.972 337.821L263.186 336.276L261.522 332.948L259.858 329.62H256.626L254.962 328.052H253.421H251.635L250.094 329.62V328.052L248.307 326.388L246.643 324.728H245.099V323.06L243.435 321.519V319.732L241.871 318.29V316.523H240.107V318.29H238.543H236.78L235.116 316.523L236.78 314.859V313.294V309.967H235.116H233.548H231.884L230.22 306.761V305.093H228.556H226.893V303.406V301.742H225.229H223.661V300.075L221.997 298.415V296.869V295.209V293.542H218.666H217.006H215.342H213.674H212.133L210.469 295.209V296.869V298.415L208.901 300.075V301.742V305.093V306.761H207.142H205.478L203.814 308.299H202.124L198.919 309.967L195.591 311.531H192.264H189.032V313.294H190.696L193.927 314.859L195.591 316.523H193.927V318.29L190.696 316.523H187.364H184.04V314.859H180.709L177.504 313.294L174.177 311.531V313.294L170.822 311.531L172.513 309.967L170.822 308.299V306.761L172.513 305.093H170.822H169.281L167.613 303.406H165.953V305.093L164.163 306.761V309.967V311.531L165.953 314.859L164.163 316.523V318.29V319.732L165.953 321.519V323.06H162.622L160.839 321.519H159.298H157.73L159.298 319.732H156.067H152.735L151.071 318.29V319.732H147.866V318.29V314.859H146.08H144.539V313.294L141.211 311.531L139.547 313.294V314.859H136.316V313.294H132.984H131.198L129.657 311.531L127.87 313.294H126.425H124.765H123.101V314.859H124.765H126.425H127.87V316.523V318.29H126.425V319.732H124.765H123.101L121.434 321.519H123.101L124.765 323.06L126.425 326.388V324.728L129.657 326.388V324.728H131.198V326.388L134.529 329.62H136.316V331.284H137.857V332.948V334.612H141.211H144.539L142.752 336.276H144.539L146.08 337.821L144.539 341.172H146.08L147.866 342.836V344.5H149.312V346.045L146.08 349.373V351.037L147.866 354.269H149.312V357.597L151.071 359.261V360.806L154.399 362.466L156.067 360.806V362.466V364.13L154.399 365.798H156.067L154.399 367.462V370.79V372.354L152.735 374.018V375.686H154.399V377.35V378.914L156.067 380.578V382.246V385.574V387.115L154.399 385.574V383.787V382.246L152.735 380.578V378.914L151.071 377.35V375.686L149.312 377.35V382.246V383.787L147.866 385.574V388.779H146.08L149.312 390.443L147.866 392.011H144.539V393.775V395.339L142.752 397.003V398.667H141.211V401.872H139.547L137.857 403.54V405.204L134.529 408.559L131.198 411.883L132.984 413.428L134.529 415.088V416.66V418.32H136.316H137.857L141.211 421.652H142.752L144.539 424.98H146.08H147.866L149.312 426.521L152.735 429.853H154.399L157.73 431.517H159.298V433.177L163.189 433.4L166.954 432.296L168.936 433.645L169.622 435.627L169.281 438.077L170.822 439.741H172.513H174.177H175.718L177.504 441.401L179.168 443.065H180.709H184.04L185.704 444.515L187.59 444.856L189.032 444.515H190.696L191.922 445.297L193.805 443.733L193.046 443.192L192.582 442.283L192.264 441.401L193.927 439.741L192.264 438.077L193.927 434.745V433.177L195.591 431.517H197.255L198.919 429.853H200.583H202.124H203.814L205.478 428.189L207.142 426.521H208.901L210.469 428.189L212.133 429.853H213.674H217.006V433.177L218.666 431.517H220.333L221.997 429.853H223.661V431.517V433.177H225.229H226.893V434.745V436.409L228.556 434.745L230.22 436.409L231.884 438.077V439.741L233.548 441.401H235.116H236.78H238.543H240.107H241.871L243.435 439.741V438.077V436.409H245.099H246.643H248.307V434.745H250.094H251.635V436.409L254.962 433.177Z" fill="#0A612B"/>
<path d="M254.962 433.177L256.626 431.517V429.853L258.194 428.189L256.626 426.521H253.421H251.635L250.094 423.312V421.652V418.32V416.66L251.635 415.088V413.428V411.883L250.094 410.096H248.307L246.643 408.559V406.891H248.307H250.094H251.635L253.421 405.204L254.962 403.54L256.626 401.872L254.962 400.335V398.667L253.421 397.003V395.339H254.962V393.775V392.011L253.421 390.443V388.779H254.962L253.421 387.115V385.574H254.962H256.626V383.787L254.962 380.578H253.421V382.246H251.635L250.094 385.574L246.643 387.115L245.099 383.787L246.643 380.578L250.094 377.35V375.686L251.635 374.018H254.962L258.194 372.354L259.858 369.126V367.462L261.522 365.798L263.186 367.462L264.972 369.126L266.517 365.798L268.177 367.462V362.466L269.745 360.806V359.261V356.029V354.269L271.508 352.601V351.037L273.076 347.828L274.836 346.045L278.064 342.836L276.4 341.172H274.836H273.076L271.508 339.481H268.177L264.972 337.821L263.186 336.276L261.522 332.948L259.858 329.62H256.626L254.962 328.052H253.421H251.635L250.094 329.62V328.052L248.307 326.388L246.643 324.728H245.099V323.06L243.435 321.519V319.732L241.871 318.29V316.523H240.107V318.29H238.543H236.78L235.116 316.523L236.78 314.859V313.294V309.967H235.116H233.548H231.884L230.22 306.761V305.093H228.556H226.893V303.406V301.742H225.229H223.661V300.075L221.997 298.415V296.869V295.209V293.542H218.666H217.006H215.342H213.674H212.133L210.469 295.209V296.869V298.415L208.901 300.075V301.742V305.093V306.761H207.142H205.478L203.814 308.299H202.124L198.919 309.967L195.591 311.531H192.264H189.032V313.294H190.696L193.927 314.859L195.591 316.523H193.927V318.29L190.696 316.523H187.364H184.04V314.859H180.709L177.504 313.294L174.177 311.531V313.294L170.822 311.531L172.513 309.967L170.822 308.299V306.761L172.513 305.093H170.822H169.281L167.613 303.406H165.953V305.093L164.163 306.761V309.967V311.531L165.953 314.859L164.163 316.523V318.29V319.732L165.953 321.519V323.06H162.622L160.839 321.519H159.298H157.73L159.298 319.732H156.067H152.735L151.071 318.29V319.732H147.866V318.29V314.859H146.08H144.539V313.294M254.962 433.177L251.635 436.409V434.745H250.094H248.307V436.409H246.643H245.099H243.435V438.077V439.741L241.871 441.401H240.107H238.543H236.78H235.116H233.548L231.884 439.741V438.077L230.22 436.409L228.556 434.745L226.893 436.409V434.745V433.177H225.229H223.661V431.517V429.853H221.997L220.333 431.517H218.666L217.006 433.177V429.853H213.674H212.133L210.469 428.189L208.901 426.521H207.142L205.478 428.189L203.814 429.853H202.124H200.583H198.919L197.255 431.517H195.591L193.927 433.177V434.745L192.264 438.077L193.927 439.741L192.264 441.401L192.582 442.283L193.046 443.192L193.805 443.733L191.922 445.297L190.696 444.515H189.032L187.59 444.856L185.704 444.515L184.04 443.065H180.709H179.168L177.504 441.401L175.718 439.741H174.177H172.513H170.822L169.281 438.077L169.622 435.627L168.936 433.645L166.954 432.296L163.189 433.4L159.298 433.177V431.517H157.73L154.399 429.853H152.735L149.312 426.521L147.866 424.98H146.08H144.539L142.752 421.652H141.211L137.857 418.32H136.316H134.529V416.66V415.088L132.984 413.428L131.198 411.883L134.529 408.559L137.857 405.204V403.54L139.547 401.872H141.211V398.667H142.752V397.003L144.539 395.339V393.775V392.011H147.866L149.312 390.443L146.08 388.779H147.866V385.574L149.312 383.787V382.246V377.35L151.071 375.686V377.35L152.735 378.914V380.578L154.399 382.246V383.787V385.574L156.067 387.115V385.574V382.246V380.578L154.399 378.914V377.35V375.686H152.735V374.018L154.399 372.354V370.79V367.462L156.067 365.798H154.399L156.067 364.13V362.466V360.806L154.399 362.466L151.071 360.806V359.261L149.312 357.597V354.269H147.866L146.08 351.037V349.373L149.312 346.045V344.5H147.866V342.836M254.962 433.177L253.421 434.745M144.539 313.294L146.08 311.531M144.539 313.294L141.211 311.531L139.547 313.294V314.859H136.316V313.294H132.984H131.198L129.657 311.531L127.87 313.294H126.425H124.765H123.101V314.859H124.765H126.425H127.87V316.523V318.29H126.425V319.732H124.765H123.101L121.434 321.519H123.101L124.765 323.06L126.425 326.388V324.728L129.657 326.388V324.728H131.198V326.388L134.529 329.62H136.316V331.284H137.857V332.948V334.612H141.211H144.539L142.752 336.276H144.539L146.08 337.821L144.539 341.172H146.08L147.866 342.836M147.866 342.836H151.071" stroke="#FBFFFB" stroke-width="0.383498" stroke-miterlimit="10"/>
<path d="M25.8649 490.259L20.8735 491.927H19.2059V490.259L17.6647 491.927L15.8821 490.259L12.5507 488.595L10.9827 486.927H9.32279H7.77784V485.363L6.11405 483.699L4.32758 485.363H2.78647H1V483.699L2.78647 482.035L4.32758 478.803V477.043L6.11405 475.478H7.77784V473.811L9.32279 470.605L7.77784 468.819L9.32279 467.277V465.487L10.9827 464.045L12.5507 462.381V460.717V457.389H10.9827L9.32279 455.722H6.11405V454.058V452.516L7.77784 450.852L9.32279 449.188V447.498V445.834V444.17L10.9827 442.628H14.3372H15.8821L17.6647 439.3L19.2059 437.636V436.068L20.8735 434.305L22.5373 432.863L24.2011 429.535L25.8649 427.867V424.539L27.429 422.872L29.1924 421.311V417.979L30.7604 416.315L32.4242 414.774V411.423V409.755L33.9653 408.091V406.55V404.763V403.222H37.4156H39.0832V401.558L42.2881 403.222H43.9519V404.763V406.55V408.091H45.516H47.3063H48.8474L50.63 409.755H52.2938L53.8388 411.423L55.5026 412.987V411.423H57.1664H58.8302V412.987H60.3981H62.1577L63.603 414.774L62.1577 416.315V417.979V419.643H63.603L65.3895 421.311V422.872H63.603V424.539H62.1577H60.3981V426.203H58.8302H57.1664V427.867H55.5026L53.8388 429.535V431.076L52.2938 432.863V434.305L50.63 436.068V437.636V439.3V441.06V442.628H48.8474H47.3063V444.17L43.9519 447.498V449.188L42.2881 450.852V452.516H40.747L37.4156 450.852V454.058V455.722V457.389L39.0832 459.053V460.717V462.381L37.4156 464.045L35.7518 465.487V467.277H33.9653L32.4242 468.819V470.605L30.7604 472.143L32.4242 473.811H33.9653V475.478V477.043H32.4242L30.7604 478.803H29.1924H27.429V480.371H25.8649V482.035L24.2011 483.699V486.927V490.259H25.8649Z" fill="#DDEDDD" stroke="#FBFFFB" stroke-width="0.383498" stroke-miterlimit="10"/>
<path d="M25.8649 490.259L20.8735 491.927H19.2059V490.259L17.6647 491.927L15.8821 490.259L12.5507 488.595L10.9827 486.927H9.32279H7.77784V485.363L6.11405 483.699L4.32758 485.363H2.78647H1V483.699L2.78647 482.035L4.32758 478.803V477.043L6.11405 475.478H7.77784V473.811L9.32279 470.605L7.77784 468.819L9.32279 467.277V465.487L10.9827 464.045L12.5507 462.381V460.717V457.389H10.9827L9.32279 455.722H6.11405V454.058V452.516L7.77784 450.852L9.32279 449.188V447.498V445.834V444.17L10.9827 442.628H14.3372H15.8821L17.6647 439.3L19.2059 437.636V436.068L20.8735 434.305L22.5373 432.863L24.2011 429.535L25.8649 427.867V424.539L27.429 422.872L29.1924 421.311V417.979L30.7604 416.315L32.4242 414.774V411.423V409.755L33.9653 408.091V406.55V404.763V403.222H37.4156H39.0832V401.558L42.2881 403.222H43.9519V404.763V406.55V408.091H45.516H47.3063H48.8474L50.63 409.755H52.2938L53.8388 411.423L55.5026 412.987V411.423H57.1664H58.8302V412.987H60.3981H62.1577L63.603 414.774L62.1577 416.315V417.979V419.643H63.603L65.3895 421.311V422.872H63.603V424.539H62.1577H60.3981V426.203H58.8302H57.1664V427.867H55.5026L53.8388 429.535V431.076L52.2938 432.863V434.305L50.63 436.068V437.636V439.3V441.06V442.628H48.8474H47.3063V444.17L43.9519 447.498V449.188L42.2881 450.852V452.516H40.747L37.4156 450.852V454.058V455.722V457.389L39.0832 459.053V460.717V462.381L37.4156 464.045L35.7518 465.487V467.277H33.9653L32.4242 468.819V470.605L30.7604 472.143L32.4242 473.811H33.9653V475.478V477.043H32.4242L30.7604 478.803H29.1924H27.429V480.371H25.8649V482.035L24.2011 483.699V486.927V490.259H25.8649Z" fill="#0A612B" stroke="#FBFFFB" stroke-width="0.383498" stroke-miterlimit="10"/>
<path d="M551.904 388.339L553.564 386.579L555.231 388.339L556.776 389.785H558.34V385.011L560.1 381.68H561.768L563.209 383.344L566.541 381.68L569.864 378.451H571.432V379.897H573.196V376.787V375.123V371.914L574.764 375.123L576.305 376.787V378.451L578.091 381.68H574.764V383.344V385.011V386.579L578.091 388.339L581.197 389.785L586.314 386.579L589.301 385.011H590.961L592.751 383.344L594.292 388.339L595.956 386.579L597.62 383.344V381.68H599.065L600.951 383.344L602.515 381.68H604.056H609.048V383.344H610.616V381.68H612.28L613.725 376.787L617.052 375.123V378.451H618.939L623.708 373.455L627.039 371.914L628.385 370.254L630.148 368.586H631.712L635.139 370.254L636.704 368.586L635.139 366.922L638.245 365.358L639.912 362.149L641.699 360.485H643.236L644.804 358.698V357.157L646.567 358.698H648.013L648.231 357.157V349.151L653.127 347.491L654.791 342.496L656.332 341.054H661.223H664.555L666.341 336.058V331.162L662.891 326.17H661.223V324.629L662.891 322.965L664.555 321.174V319.633H661.223L659.682 318.41L661.223 316.623L664.555 314.96L666.341 313.414V308.3H664.555L662.891 310.19H659.682L656.332 308.3H653.127V310.19L651.559 308.3V306.762H650.018H646.69V308.3H643.462V306.762L640.031 308.3L638.463 306.762L636.799 305.095V306.762L633.694 308.3L628.603 305.095L627.158 303.53V301.985H623.83L620.602 305.095L619.057 306.762H617.271L615.73 305.095L613.943 306.762L612.379 305.095H610.834H607.602H605.72V303.53L604.179 298.634V297.093H601.17L599.284 293.861V292.097H597.842L596.079 293.861H591.183H587.852V292.097V288.769V285.537L586.537 283.777L584.647 280.986L582.987 279.104H581.319L578.31 280.986L574.982 279.104H573.315L571.655 280.986H570.091L566.759 282.332L565.091 280.986L561.986 282.332V283.777V282.332V285.537H558.563H556.995H555.454L553.564 284.655H550.554H548.795L546.226 287.105V290.096L545.003 293.761L546.909 297.311L546.226 298.538V302.085L545.563 301.985L542.235 298.634H540.694L539.126 300.198L534.012 298.634H532.567L530.585 300.298L530.025 302.085L529.362 303.53L527.48 299.198L525.693 298.538L523.93 302.085L522.803 300.198L521.262 298.634H517.811L516.148 300.198H511.275L509.711 298.634H507.948L501.611 297.093L498.406 295.21L493.387 293.861H488.737L483.524 295.21H480.518L477.187 294.865L474.2 296.652L473.537 298.538L471.754 300.298L470.528 301.985L468.986 300.198L466.855 300.298L465.755 303.53L466.318 303.967L465.536 305.095L463.872 306.762L465.536 308.3L468.764 311.632L470.428 313.414L468.764 314.96V316.623L470.428 318.41V321.174V322.965H468.764H467.104L465.536 326.17L462.205 327.957L457.555 332.73L455.649 334.394L454.108 337.722L455.649 342.496V345.946H454.108H452.54L449.331 350.815L447.549 355.37V358.698L450.876 362.149L454.108 363.69H457.555H463.872L467.104 365.358L470.428 366.922L475.3 365.358L476.868 363.69L480.292 365.358L481.959 366.922L484.969 365.358L488.515 362.149H491.501H494.829H496.497L498.16 358.698H499.847H503.052V357.157L504.716 358.698H506.383L511.057 357.157L512.816 355.37L514.484 354.048H519.157V355.37H522.58L524.244 357.157L525.912 358.698L527.357 357.157H529.239L530.685 358.698L533.916 360.485V358.698L537.463 360.485V362.149V363.69H538.908V366.922V370.254V371.914H540.449H542.017L543.8 375.123V378.451H545.467H547.131V379.897V381.68L548.795 383.344L550.336 385.011L551.904 386.579V388.339Z" fill="#0A612B" stroke="#FBFFFB" stroke-width="0.383498" stroke-miterlimit="10"/>
<path d="M581.215 390.072L577.983 388.565L574.51 386.728V381.422H577.661L576.051 378.447V376.883L574.533 375.226L573.448 373.003V380.142H571.178V378.696H569.967L566.651 381.898L563.147 383.654L561.652 381.928H560.253L558.593 385.072V390.033H556.676L556.603 389.964L555.058 388.515L553.567 386.939L551.65 388.968V386.679L550.159 385.187L548.614 383.512L546.881 381.779V378.696H543.549V375.18L541.87 372.159H538.658V363.935H537.212V360.634L534.172 359.104V360.906L530.504 358.866L529.131 357.406H527.467L525.926 359.051L524.075 357.337L522.472 355.615H518.903V354.292H514.571L512.976 355.558L511.136 357.39L506.383 358.943H504.619L503.308 357.728V358.943H498.317L496.653 362.394H488.614L485.087 365.576L481.92 367.221L480.149 365.561L476.925 363.989L475.445 365.568L475.384 365.588L470.415 367.183L467 365.576L463.814 363.931L454 363.908L450.695 362.313L447.295 358.79L447.314 355.262L449.101 350.711L452.405 345.681H455.395V342.526L453.835 337.695L455.484 334.194L457.389 332.53L462.089 327.723L465.347 325.978L466.946 322.704H470.178V318.502L468.514 316.715V314.84L470.074 313.395L468.583 311.796L465.359 308.472L463.511 306.762L465.363 304.91L465.98 304.017L465.459 303.614L466.674 300.048L469.101 299.937L470.511 301.574L471.546 300.148L473.318 298.396L473.992 296.479L474.069 296.433L477.128 294.6L477.212 294.612L480.54 294.957H483.492L488.736 293.607L493.452 293.615L498.531 294.991L501.705 296.855L508.008 298.388L509.814 298.381L511.382 299.949H516.047L517.711 298.381H521.368L522.982 300.022L523.906 301.559L525.566 298.22L527.663 298.994L527.705 299.094L529.365 302.909L529.791 301.981L530.362 300.152L532.47 298.381L534.08 298.392L539.053 299.914L540.586 298.381H542.334L545.681 301.747L545.968 301.789V298.469L546.616 297.307L544.723 293.784L544.757 293.68L545.965 290.049V286.993L548.687 284.398L553.663 284.421L555.499 285.28H561.725V282.159L565.125 280.686L566.793 282.032L570.082 280.725H571.531L573.191 278.842H575.039L575.096 278.877L578.294 280.683L581.238 278.842H583.093L584.826 280.809L586.735 283.627L588.096 285.445V293.6H595.967L597.73 291.836H599.528V293.784L601.307 296.832H604.427V298.588L605.968 303.522V304.837H612.482L613.95 306.398L615.737 304.734L617.373 306.505H618.941L620.41 304.921L623.722 301.732H627.41V303.43L628.763 304.898L633.705 308.008L636.542 306.601V304.481L640.08 307.996L643.71 306.367V308.046H646.432V306.505H651.811V308.207L652.873 309.484V308.042H656.4L656.457 308.073L659.75 309.929H662.775L664.439 308.042H666.589V313.525L664.719 315.143L661.38 316.819L660.042 318.367L661.311 319.372H664.803V321.266L663.07 323.129L661.472 324.724V325.909H663.017L666.586 331.073L666.57 336.134L664.726 341.295H656.427L655.004 342.625L653.321 347.679L648.479 349.324V357.149L648.223 358.943H646.463L645.048 357.705V358.786L643.342 360.73H641.786L640.107 362.298L638.428 365.538L638.355 365.572L635.553 366.983L637.051 368.574L635.196 370.549L631.654 368.827H630.247L628.556 370.426L627.145 372.132L623.86 373.654L619.045 378.692H616.798V375.522L613.935 376.959L612.47 381.924H610.872V383.588H608.794V381.924H602.626L600.966 383.688L598.968 381.924H597.872L597.845 383.45L596.143 386.744L594.18 388.818L592.631 383.799L591.063 385.26H589.365L586.428 386.797L581.215 390.068V390.072ZM556.875 389.531H558.087L558.117 384.892L559.95 381.426H561.882L563.273 383.029L566.39 381.468L569.764 378.194H571.688V379.639H572.946V371.914L573.425 371.803L574.974 374.977L576.557 376.691V378.386L578.52 381.932H575.016V386.426L578.209 388.113L581.18 389.497L586.179 386.364L589.304 384.758H590.868L592.88 382.883L594.414 387.848L595.752 386.429L597.37 383.282V381.426H599.164L600.939 382.994L602.411 381.426H609.304V383.09H610.369V381.426H612.095L613.517 376.61L613.617 376.564L617.312 374.713V378.198H618.834L623.607 373.229L626.885 371.711L628.196 370.096L630.055 368.337L631.83 368.363L635.089 369.951L636.365 368.593L634.728 366.857L638.064 365.177L639.743 361.972L641.602 360.239H643.128L644.558 358.613V356.608L646.666 358.456H647.797L647.989 357.13V348.978L652.934 347.299L654.625 342.323L656.239 340.808H664.385L666.095 336.023V331.25L662.767 326.43H660.981V324.529L662.721 322.792L664.312 321.082V319.893H661.146L659.329 318.448L661.123 316.401L664.454 314.737L666.099 313.307V308.56H664.684L663.02 310.446H659.631L659.574 310.416L656.281 308.56H653.394V310.895L651.32 308.399V307.019H646.954V308.56H643.22V307.157L639.992 308.61L637.067 305.711V306.923L633.693 308.598L633.574 308.522L628.43 305.274L626.919 303.633V302.245H623.944L620.789 305.282L619.183 307.019H617.17L615.729 305.458L613.946 307.122L612.282 305.351H605.478V303.572L603.937 298.637V297.349H601.035L600.958 297.227L599.037 293.937V292.357H597.956L596.193 294.121H587.609V285.629L586.344 283.934L584.447 281.131L582.882 279.36H581.403L578.324 281.285L574.924 279.36H573.44L571.78 281.242H570.151L566.728 282.626L565.068 281.285L562.254 282.504V285.797L555.361 285.774L553.525 284.915H548.913L546.494 287.224L546.478 290.183L545.294 293.749L547.214 297.322L546.494 298.611V302.387L545.459 302.23L542.142 298.894H540.812L539.21 300.493L539.064 300.447L533.985 298.894H532.67L530.814 300.455L530.274 302.169L529.365 304.158L527.295 299.404L525.827 298.864L523.956 302.625L522.595 300.344L521.165 298.898H517.922L516.258 300.466H511.182L509.614 298.898H507.958L501.491 297.322L498.317 295.459L493.364 294.129H488.779L483.534 295.478H480.525L477.255 295.141L474.418 296.839L473.724 298.733L471.941 300.497L470.557 302.41L468.89 300.474L467.053 300.558L466.068 303.453L466.678 303.928L465.758 305.255L464.247 306.769L465.719 308.131L468.955 311.47L470.795 313.445L469.024 315.086V316.539L470.688 318.325V323.233H467.268L465.735 326.369L462.369 328.175L457.745 332.921L455.863 334.566L454.383 337.756L455.909 342.514V346.218H452.685L449.553 350.976L447.809 355.439V358.621L451.033 361.964L454.172 363.464L463.998 363.49L467.23 365.158L470.458 366.676L475.173 365.162L476.821 363.406L480.479 365.196L482.012 366.638L484.834 365.17L488.43 361.918H496.346L498.01 358.468H502.81V356.601L504.826 358.468H506.352L510.933 356.957L512.65 355.213L514.406 353.817H519.424V355.14H522.706L524.443 357.011L525.911 358.368L527.257 356.926H529.361L529.434 357.007L530.853 358.521L533.674 360.078V358.311L537.73 360.35V363.46H539.175V371.684H542.181L544.071 375.081V378.221H547.402V381.599L548.993 383.19L550.538 384.865L552.171 386.498V387.725L553.582 386.238L555.43 388.189L556.894 389.558L556.875 389.531Z" fill="#DDEDDD" stroke="#FBFFFB" stroke-width="0.383498" stroke-miterlimit="10"/>
<path d="M271.508 475.158L270.404 474.939L269.403 473.371V471.707L268.176 470.261L267.176 468.498L268.299 467.497L268.176 466.934V465.27L267.517 463.824L267.176 462.064L267.517 460.274L267.176 458.832L268.299 457.732L269.744 455.945L271.508 455.282L272.29 454.185L273.076 453.84H274.835L276.499 453.058L277.941 453.399L278.289 453.058L279.068 453.84L279.731 455.382V457.168V458.733V462.064L278.063 463.728L276.399 465.27V466.934V468.597L274.835 471.929V473.494L273.076 475.158V476.822L271.508 475.158Z" fill="#DDEDDD" stroke="#FBFFFB" stroke-width="0.383498" stroke-miterlimit="10"/>
<path d="M271.508 475.158L270.404 474.939L269.403 473.371V471.707L268.176 470.261L267.176 468.498L268.299 467.497L268.176 466.934V465.27L267.517 463.824L267.176 462.064L267.517 460.274L267.176 458.832L268.299 457.732L269.744 455.945L271.508 455.282L272.29 454.185L273.076 453.84H274.835L276.499 453.058L277.941 453.399L278.289 453.058L279.068 453.84L279.731 455.382V457.168V458.733V462.064L278.063 463.728L276.399 465.27V466.934V468.597L274.835 471.929V473.494L273.076 475.158V476.822L271.508 475.158Z" fill="#0A612B" stroke="#FBFFFB" stroke-width="0.383498" stroke-miterlimit="10"/>
<path d="M256.627 483.48L258.195 485.021L259.858 483.48H263.186H264.972L266.517 481.693H268.177H269.745V480.152H271.509L273.077 478.484V480.152L274.836 481.693L276.401 483.48H274.836L276.401 485.021V486.586H278.064V488.376L276.401 491.704H278.064V493.242L276.401 494.909H274.836V496.478V498.141V499.802V501.469V503.133L273.077 506.339V509.67V512.998V514.662L271.509 516.231L269.745 514.662H268.177L264.972 512.998L263.186 514.662V516.231V517.894H261.522H259.858L256.627 516.231V514.662V512.998L254.963 511.331L256.627 508.007L254.963 506.339H256.627L258.195 504.797V503.133V501.469L259.858 499.802L261.522 498.141H258.195H256.627V494.909V493.242L254.963 489.917V488.376V486.586L256.627 485.021V483.48Z" fill="#DDEDDD" stroke="#FBFFFB" stroke-width="0.383498" stroke-miterlimit="10"/>
<path d="M256.627 483.48L258.195 485.021L259.858 483.48H263.186H264.972L266.517 481.693H268.177H269.745V480.152H271.509L273.077 478.484V480.152L274.836 481.693L276.401 483.48H274.836L276.401 485.021V486.586H278.064V488.376L276.401 491.704H278.064V493.242L276.401 494.909H274.836V496.478V498.141V499.802V501.469V503.133L273.077 506.339V509.67V512.998V514.662L271.509 516.231L269.745 514.662H268.177L264.972 512.998L263.186 514.662V516.231V517.894H261.522H259.858L256.627 516.231V514.662V512.998L254.963 511.331L256.627 508.007L254.963 506.339H256.627L258.195 504.797V503.133V501.469L259.858 499.802L261.522 498.141H258.195H256.627V494.909V493.242L254.963 489.917V488.376V486.586L256.627 485.021V483.48Z" fill="#0A612B" stroke="#FBFFFB" stroke-width="0.383498" stroke-miterlimit="10"/>
<path d="M357.188 537.545V539.213V540.877L355.524 544.205H353.983L352.319 545.75V547.536V549.074V550.742L350.651 552.406V553.974V555.76H352.319L350.651 557.298H352.319V560.63L348.991 562.198V565.522L345.66 563.958L343.873 565.522L340.768 563.958L339.104 560.63V558.866L335.773 557.298H332.445L330.901 555.76H327.573L325.886 552.406L324.222 550.742L319.35 549.074L317.567 547.536H316.026L312.695 545.75L310.908 544.205V542.544L312.695 540.877V537.545H314.236L316.026 535.984L317.567 537.545V539.213L320.891 537.545H324.222L325.886 539.213L329.114 540.877L332.445 542.544H335.773L339.104 540.877H340.768H342.428H343.873L345.66 539.213H347.201L348.991 540.877L350.651 539.213H353.983L357.188 537.545Z" fill="#0A612B" stroke="#FBFFFB" stroke-width="0.383498" stroke-miterlimit="10"/>
<path d="M357.188 537.545V539.213V540.877L355.524 544.205H353.983L352.319 545.75V547.536V549.074V550.742L350.651 552.406V553.974V555.76H352.319L350.651 557.298H352.319V560.63L348.991 562.198V565.522L345.66 563.958L343.873 565.522L340.768 563.958L339.104 560.63V558.866L335.773 557.298H332.445L330.901 555.76H327.573L325.886 552.406L324.222 550.742L319.35 549.074L317.567 547.536H316.026L312.695 545.75L310.908 544.205V542.544L312.695 540.877V537.545H314.236L316.026 535.984L317.567 537.545V539.213L320.891 537.545H324.222L325.886 539.213L329.114 540.877L332.445 542.544H335.773L339.104 540.877H340.768H342.428H343.873L345.66 539.213H347.201L348.991 540.877L350.651 539.213H353.983L357.188 537.545Z" fill="#0A612B" stroke="#FBFFFB" stroke-width="0.383498" stroke-miterlimit="10"/>
<path d="M252.858 434.305L256.09 432.863L257.754 431.076H259.421H261.081L264.413 429.535L266.077 427.867V426.203L267.618 424.539L269.281 422.872H272.609H274.3L277.627 426.203L279.172 424.539L284.164 427.867V426.203L285.824 424.539H287.487H289.155L287.487 426.203V427.867L289.155 429.535L287.487 431.076L290.719 434.305L292.483 441.06L294.047 447.498L295.71 449.189L299.042 457.39H300.702L304.033 460.717L305.601 464.045L307.365 465.487L308.929 467.278L313.797 472.143L323.684 482.035H325.452L327.012 485.363H330.343L332.007 488.595L333.675 486.927L338.566 491.927L340.33 493.587L341.89 495.132H343.439L346.763 498.456H348.553L350.094 500.124V503.356V505.116V506.557L353.422 508.348H355.086H356.65L360.077 510.008L361.645 511.557V513.34L363.309 514.881L364.85 519.781L366.636 524.769V529.669L364.85 531.329H363.309H361.645V532.993V534.661V536.202V537.766L360.077 539.53L358.417 541.094V542.858L360.077 544.426H361.645H363.309H364.85L366.636 542.858H368.181V541.094L371.628 539.53V537.766V534.661L373.295 532.993L374.859 531.329L376.523 529.669H378.191H379.728H381.518V528.005V526.437V524.769V521.441V519.781V518.113L379.728 516.572L376.523 518.113L374.859 515.349L374.296 511.016L374.859 508.348H376.523V506.557L378.191 505.116H376.523L378.191 503.356L379.728 501.788H381.518H383.059V503.356L386.387 505.116H388.051H389.715H391.382H393.046V506.557V508.348L394.61 510.008V511.557L396.374 513.34H397.815H399.605L401.265 511.557V508.348V505.116V503.356L397.815 501.788L396.374 498.456L394.61 496.792L391.382 495.132H388.051L386.387 493.587L384.846 491.927L379.728 490.259L378.191 488.595L376.523 486.927H374.859H371.628L369.964 485.363L366.636 483.699H364.85L366.636 482.035H368.181L369.964 480.371V477.043L364.85 475.479H363.309H358.417H355.086L351.881 473.811L350.094 470.605L348.553 468.819L345.222 465.487L343.439 462.381L340.33 459.054V455.722L341.89 454.058L340.33 450.852L338.566 447.498V445.834L336.999 444.17V441.06H335.212L332.007 439.301L328.68 437.637H327.012L323.684 436.068V434.305L322.12 432.863V431.076L320.453 427.867L322.12 426.203V424.539V422.872L323.684 421.311L325.452 419.643V417.979H323.684L322.12 416.315V414.774H320.453L322.12 412.987H323.684V409.755H327.012H328.68H330.343H332.007L333.675 408.091H335.212V406.55H336.999H338.566V408.091L340.33 409.755V406.55H341.89L343.439 404.763L341.89 403.222L340.33 401.558L343.439 399.89V398.326L341.89 396.562V394.998V393.334H340.33L338.566 391.666H335.212H333.675H332.007H330.343L328.68 390.129L327.012 388.338V386.797L325.452 385.133L323.684 383.469H320.453H318.793H317.129H315.588L313.797 381.778H312.134V383.469L308.929 385.133H307.365H305.601V383.469V381.778H304.033H302.247V383.469V385.133V386.797H300.702L299.042 385.133L297.378 386.797L295.71 388.338L297.378 390.129L295.71 391.666L294.047 390.129H292.483H290.719H289.155V388.338L287.487 386.797H285.824V388.338V391.666H284.164L282.496 393.334L280.832 394.998V396.562L279.172 394.998L277.627 393.334L275.96 391.666V390.129V388.338L274.3 386.797H272.609L270.945 388.338V390.129L269.281 393.334H267.618H264.413L262.745 391.666L256.09 393.334H254.522V394.998H252.858V396.562L254.522 398.326V399.89L256.09 401.558L254.522 403.222L252.858 404.763L251.194 406.55H249.531H247.867H246.199V408.091L247.867 409.755H249.531L251.194 411.423V412.987V414.774L249.531 416.315V417.979V421.311V422.872L251.194 426.203H252.858H256.09L257.754 427.867L256.09 429.535V431.076L254.522 432.863L252.858 434.305Z" fill="#0A612B" stroke="#FBFFFB" stroke-width="0.383498" stroke-miterlimit="10"/>
<path d="M252.858 434.305L256.09 432.863L257.754 431.076H259.421H261.081L264.413 429.535L266.077 427.867V426.203L267.618 424.539L269.281 422.872H272.609H274.3L277.627 426.203L279.172 424.539L284.164 427.867V426.203L285.824 424.539H287.487H289.155L287.487 426.203V427.867L289.155 429.535L287.487 431.076L290.719 434.305L292.483 441.06L294.047 447.498L295.71 449.189L299.042 457.39H300.702L304.033 460.717L305.601 464.045L307.365 465.487L308.929 467.278L313.797 472.143L323.684 482.035H325.452L327.012 485.363H330.343L332.007 488.595L333.675 486.927L338.566 491.927L340.33 493.587L341.89 495.132H343.439L346.763 498.456H348.553L350.094 500.124V503.356V505.116V506.557L353.422 508.348H355.086H356.65L360.077 510.008L361.645 511.557V513.34L363.309 514.881L364.85 519.781L366.636 524.769V529.669L364.85 531.329H363.309H361.645V532.993V534.661V536.202V537.766L360.077 539.53L358.417 541.094V542.858L360.077 544.426H361.645H363.309H364.85L366.636 542.858H368.181V541.094L371.628 539.53V537.766V534.661L373.295 532.993L374.859 531.329L376.523 529.669H378.191H379.728H381.518V528.005V526.437V524.769V521.441V519.781V518.113L379.728 516.572L376.523 518.113L374.859 515.349L374.296 511.016L374.859 508.348H376.523V506.557L378.191 505.116H376.523L378.191 503.356L379.728 501.788H381.518H383.059V503.356L386.387 505.116H388.051H389.715H391.382H393.046V506.557V508.348L394.61 510.008V511.557L396.374 513.34H397.815H399.605L401.265 511.557V508.348V505.116V503.356L397.815 501.788L396.374 498.456L394.61 496.792L391.382 495.132H388.051L386.387 493.587L384.846 491.927L379.728 490.259L378.191 488.595L376.523 486.927H374.859H371.628L369.964 485.363L366.636 483.699H364.85L366.636 482.035H368.181L369.964 480.371V477.043L364.85 475.479H363.309H358.417H355.086L351.881 473.811L350.094 470.605L348.553 468.819L345.222 465.487L343.439 462.381L340.33 459.054V455.722L341.89 454.058L340.33 450.852L338.566 447.498V445.834L336.999 444.17V441.06H335.212L332.007 439.301L328.68 437.637H327.012L323.684 436.068V434.305L322.12 432.863V431.076L320.453 427.867L322.12 426.203V424.539V422.872L323.684 421.311L325.452 419.643V417.979H323.684L322.12 416.315V414.774H320.453L322.12 412.987H323.684V409.755H327.012H328.68H330.343H332.007L333.675 408.091H335.212V406.55H336.999H338.566V408.091L340.33 409.755V406.55H341.89L343.439 404.763L341.89 403.222L340.33 401.558L343.439 399.89V398.326L341.89 396.562V394.998V393.334H340.33L338.566 391.666H335.212H333.675H332.007H330.343L328.68 390.129L327.012 388.338V386.797L325.452 385.133L323.684 383.469H320.453H318.793H317.129H315.588L313.797 381.778H312.134V383.469L308.929 385.133H307.365H305.601V383.469V381.778H304.033H302.247V383.469V385.133V386.797H300.702L299.042 385.133L297.378 386.797L295.71 388.338L297.378 390.129L295.71 391.666L294.047 390.129H292.483H290.719H289.155V388.338L287.487 386.797H285.824V388.338V391.666H284.164L282.496 393.334L280.832 394.998V396.562L279.172 394.998L277.627 393.334L275.96 391.666V390.129V388.338L274.3 386.797H272.609L270.945 388.338V390.129L269.281 393.334H267.618H264.413L262.745 391.666L256.09 393.334H254.522V394.998H252.858V396.562L254.522 398.326V399.89L256.09 401.558L254.522 403.222L252.858 404.763L251.194 406.55H249.531H247.867H246.199V408.091L247.867 409.755H249.531L251.194 411.423V412.987V414.774L249.531 416.315V417.979V421.311V422.872L251.194 426.203H252.858H256.09L257.754 427.867L256.09 429.535V431.076L254.522 432.863L252.858 434.305Z" fill="#0A612B" stroke="#FBFFFB" stroke-width="0.383498" stroke-miterlimit="10"/>
<path d="M254.743 392.012L253.198 390.444V388.78H254.743L253.198 387.116V385.574H254.743H256.407V383.788L254.743 380.579H253.198V382.246H251.415L249.874 385.574L246.543 387.116L244.879 383.788L246.543 380.579L249.874 377.35V375.686L251.415 374.019H254.743L258.07 372.355L259.638 369.126V367.462L261.398 365.798L262.962 367.462L264.726 369.126L266.294 365.798L267.957 367.462V365.798L269.498 367.462V365.798L272.949 367.462H274.616H276.28H277.844H279.508H281.053H282.839H286.163V369.126H287.827H289.376V370.79L292.7 372.355V374.019L291.036 375.686V377.35H292.7V378.915H294.367L295.931 380.579L297.691 382.246H304.254H302.59V383.788V385.574V387.116H300.923L299.259 385.574L297.691 387.116L295.931 388.78L297.691 390.444L295.931 392.012L294.367 390.444H292.7H291.036H289.376V388.78L287.827 387.116H286.163V388.78V392.012H284.381L282.839 393.775L281.053 395.34V397.004L279.508 395.34L277.844 393.775L276.28 392.012V390.444V388.78L274.616 387.116H272.949L271.285 388.78V390.444L269.498 393.775H267.957H264.726L262.962 392.012L256.407 393.775L254.743 392.012Z" fill="#0A612B" stroke="#FBFFFB" stroke-width="0.383498" stroke-miterlimit="10"/>
<path d="M281.307 397.647L279.325 395.512L277.672 393.959L276.028 392.111V388.887L274.51 387.372H273.057L271.538 388.887L271.508 390.566L269.648 394.032H264.619L262.886 392.299L256.323 394.063L254.559 392.195L252.945 390.554V388.534H254.164L252.945 387.223V385.325H256.15V383.856L254.59 380.839H253.451V382.503H251.577L250.066 385.766L246.428 387.453L244.6 383.791L246.371 380.402L249.625 377.246V375.594L251.308 373.773H254.69L257.887 372.174L259.39 369.076V367.362L261.418 365.445L263.154 367.297L264.653 368.708L266.225 365.369L267.709 366.856V365.154L269.25 366.822V365.399L273.011 367.217H286.421V368.877H289.629V370.633L292.957 372.201V374.129L291.293 375.797V377.101H292.957V378.669H294.479L296.12 380.413L297.795 382.001H304.255V382.507H302.844V387.38H300.827L299.267 385.931L297.875 387.307L296.307 388.787L298.071 390.458L295.928 392.368L294.268 390.704H289.127V388.883L287.724 387.376H286.424V392.272H284.5L283.035 393.948L281.31 395.462V397.655L281.307 397.647ZM276.534 391.915L278.036 393.606L279.685 395.155L280.8 396.355V395.224L282.671 393.583L284.266 391.758H285.911V386.862H287.939L289.629 388.679V390.19H294.471L295.943 391.662L297.32 390.436L295.564 388.775L297.519 386.931L299.256 385.221L301.023 386.862H302.338V382.495H297.592L295.759 380.762L294.256 379.167H292.447V377.599H290.783V375.579L292.447 373.911V372.511L289.119 370.943V369.371H285.911V367.711L272.842 367.684L269.756 366.193V368.102L268.215 366.434V368.068L266.375 366.22L264.814 369.54L262.798 367.638L261.399 366.147L259.9 367.565L259.873 369.229L258.27 372.534L254.755 374.264H251.535L250.135 375.778V377.446L246.758 380.724L245.175 383.783L246.67 386.778L249.694 385.375L251.262 381.985H252.957V380.321H254.908L256.668 383.783V385.819H253.463V387.012L255.338 389.025H253.463V390.336L254.939 391.831L256.495 393.484L263.051 391.72L264.845 393.51H269.361L271.044 390.37V388.664L272.857 386.855H274.732L276.545 388.664V391.904L276.534 391.915Z" fill="#DDEDDD" stroke="#FBFFFB" stroke-width="0.383498" stroke-miterlimit="10"/>
<path d="M258.295 318.41V319.955L259.955 321.615L261.623 323.283V324.947V326.611V328.279V329.839H259.955L261.623 333.048L263.313 336.403L264.973 338.063L268.178 339.727H271.628L273.173 341.272H274.96H276.501L278.165 343.059L274.96 346.268L273.173 347.928L271.628 351.256V352.824L269.846 354.492V356.152V359.357V361.025L268.178 362.689V366.263V366.017L269.846 367.582V366.017L273.173 367.582H274.96H276.501H278.165H279.733H281.396H283.06H286.487V369.372H288.055H289.715V370.913L293.043 372.577L294.611 370.913H296.275L297.938 372.577L299.602 374.241H301.27L302.811 375.806L304.597 374.241H306.139L307.925 370.913L311.034 372.577V374.241H312.698H314.365L316.125 372.577L317.689 374.241H319.453H321.021L322.681 372.577H324.226H327.576H329.244L331.003 374.241V372.577H332.571L335.776 374.241V375.806V377.573L337.563 379.137V377.573H339.108V375.806V374.241L337.563 372.577V370.913V369.372L335.776 367.582V366.017V362.689H340.89L342.431 361.025L343.999 359.357V357.816H345.763H347.327H349.09V356.152V354.492L347.327 352.824L345.763 351.256L343.999 349.592H342.431L340.89 347.928L339.108 344.6L337.563 341.272L335.776 339.727V338.063V334.835L334.235 333.048L332.571 331.507V328.279H331.003L329.244 324.947V321.615L331.003 323.283V324.947L334.235 323.283L335.776 324.947H339.108L342.431 323.283H343.999L345.763 321.615H347.327L352.418 318.41L353.986 316.746L355.65 315.082L358.977 313.514L360.641 315.082V316.746H362.209L363.969 315.082V313.514V308.522L365.537 306.858H363.969V305.317V303.53V298.634V297.093L362.209 293.761V292.097V290.437L363.969 288.769H362.209L360.641 287.105V285.537L358.977 283.873L357.313 280.545L358.977 279.004L360.641 277.213V275.775V274.012V272.348V270.78V265.906H355.65V262.556V259.228H352.418H350.655V257.564L349.09 256.019V254.358H347.327L345.763 256.019H343.999H342.431L339.108 257.564L335.776 259.228L334.235 257.564V259.228H332.571H329.244H327.576L324.226 257.564H326.012V256.019H327.576V254.358V252.568H326.012H324.226L322.681 254.358L321.021 251.027H319.453H317.689V249.363H316.125H314.365V247.702L316.125 246.035L314.365 244.47L312.698 242.803L311.034 241.261H307.925L306.139 239.475H304.597V242.803V244.47L306.139 246.035V247.702L302.811 249.363H301.27V251.027H302.811V252.568V254.358L306.139 256.019L304.597 257.564L306.139 259.228L309.466 260.892V264.219L307.925 260.892L306.139 259.228H302.811H299.602V260.892V264.219V265.906L297.938 267.452V268.993L296.275 265.906V264.219V262.556H294.611V264.219H293.043V262.556L294.611 260.892L291.26 259.228H288.055H284.724H283.06V260.892L281.396 262.556V264.219H283.06V265.906L284.724 267.452L283.06 268.993V270.78V272.348V274.012H281.396V275.775V279.004V280.545L279.733 282.213L281.396 283.873V285.537L279.733 290.437H278.165H276.501H274.96H273.173L271.628 288.769L266.637 290.437L263.313 292.097V293.761V295.306V298.634V300.298L259.955 301.985V303.53V305.317V306.858L258.295 310.19H259.955V311.754V313.514H258.295V315.082V316.746V318.41Z" fill="#0A612B" stroke="#FBFFFB" stroke-width="0.383498" stroke-miterlimit="10"/>
<path d="M337.819 379.697L335.527 377.688V374.398L332.514 372.83H331.26V374.831L329.148 372.83H322.792L321.128 374.494H317.582L316.114 372.933L314.465 374.494H310.781V372.726L308.028 371.254L306.292 374.49H304.693L302.799 376.15L301.166 374.49H299.502L296.175 371.162H294.726L293.104 372.88L289.466 371.062V369.613H286.238V367.827L273.07 367.804L270.099 366.408V368.16L268.074 366.258H267.925V362.574L269.589 360.91V354.373L271.375 352.705L271.398 351.141L273.001 347.732L274.787 346.068L277.812 343.043L276.39 341.514H273.07L271.525 339.972L268.063 339.945L264.793 338.235L263.083 336.51L261.392 333.155L259.537 329.582H261.366V323.382L258.038 320.054V313.257H259.698V310.435H257.881L259.698 306.792V301.823L263.052 300.136V291.935L266.518 290.202L271.697 288.473L273.277 290.179H279.541L281.136 285.494V283.972L279.364 282.208L281.136 280.437V273.754H282.799V268.878L284.344 267.447L282.799 266.013V264.472H281.136V262.448L282.799 260.78V258.97L291.368 258.997L295.025 260.811L293.292 262.655V263.966H294.354V262.302H296.524V265.841L297.682 267.988V267.336L299.345 265.791V258.97H305.556L304.245 257.556L305.709 256.087L302.554 254.511V251.279H301.013V249.109H302.75L305.885 247.545V246.138L304.344 244.57V239.221H306.242L308.028 241.008H311.13L312.87 242.614L314.542 244.29L316.497 246.027L314.615 247.806V249.105H317.938V250.769H321.17L322.734 253.902L324.107 252.311H327.829V256.271H326.261V257.816H325.303L327.634 258.974H333.978V256.919L335.83 258.917L338.989 257.337L342.428 255.765H345.648L347.216 254.101H349.34V255.911L350.904 257.456V258.974H355.899V265.653H360.89V277.312L359.157 279.176L357.62 280.602L359.18 283.719L360.89 285.433V287.005L362.312 288.519H364.597L362.454 290.548V293.703L364.214 297.096V306.608H366.115L364.214 308.629V315.197L362.301 317.006H360.38V315.197L358.92 313.82L355.788 315.296L354.155 316.93L352.544 318.628L347.392 321.876H345.851L344.087 323.54H342.481L339.096 325.203H335.657L334.17 323.597L330.743 325.365V323.394L329.489 322.205V324.885L331.149 328.025H332.817V331.395L334.4 332.86L336.025 334.743V339.616L337.789 341.165L339.33 344.496L341.093 347.782L342.539 349.343H344.095L345.931 351.076L347.503 352.648L349.34 354.384V358.073H344.248V359.461L340.998 362.942H336.025V367.478L337.812 369.264V372.477L339.353 374.141V377.826H337.812V379.697H337.819ZM336.029 377.458L337.31 378.581V377.32H338.851V374.341L337.31 372.677V369.475L335.523 367.688V362.436H340.779L343.746 359.261V357.567H348.837V354.603L347.154 353.012L345.583 351.44L343.9 349.849H342.324L340.668 348.051L338.881 344.723L337.356 341.429L335.523 339.85V334.934L334.043 333.217L332.318 331.622V328.535H330.854L328.994 324.95V321.032L331.26 323.175V324.533L334.293 322.968L335.891 324.694H339.05L342.435 323.03H343.9L345.663 321.366H347.258L352.261 318.214L353.806 316.573L355.546 314.855L359.031 313.214L360.902 314.978V316.496H362.113L363.719 314.978V308.426L364.954 307.114H363.719V297.161L361.96 293.768V290.333L363.336 289.029H362.102L360.392 287.212V285.648L358.755 283.987L357.007 280.491L358.812 278.819L360.396 277.117V266.163H355.404V259.484H350.409V257.674L348.845 256.129V254.611H347.446L345.878 256.275H342.497L339.223 257.797L335.73 259.542L334.496 258.211V259.484L327.473 259.457L324.122 257.793L324.233 257.314H325.767V255.769H327.335V252.821H324.352L322.635 254.81L320.871 251.279H317.444V249.615H314.12V247.591L315.757 246.042L314.204 244.658L312.529 242.979L310.942 241.514H307.829L306.043 239.727H304.858V244.363L306.399 245.931V247.855L302.819 249.615H301.53V250.773H303.072V254.201L306.575 255.949L304.958 257.571L306.303 259.024L309.727 260.734V264.223L309.244 264.33L307.726 261.045L306.05 259.484H299.867V266.021L298.203 267.566V269L297.728 269.119L296.033 265.91V262.812H294.875V264.476H292.801V262.455L294.204 260.964L291.21 259.48H283.321V260.995L281.657 262.663V263.97H283.321V265.799L285.103 267.455L283.321 269.108V274.268H281.657V280.656L280.097 282.216L281.657 283.769L281.642 285.621L279.917 290.689H273.066L271.555 289.064L266.717 290.674L263.566 292.254V300.455L260.212 302.142L260.185 306.969L258.705 309.932H260.212V313.767H258.552V319.847L261.879 323.175V330.092H260.377L261.849 332.929L263.52 336.253L265.126 337.86L268.243 339.478H271.736L273.281 341.019H276.612L278.517 343.066L275.14 346.448L273.384 348.085L271.885 351.317V352.939L270.099 354.607V361.132L268.435 362.796V365.91L269.593 366.998V365.618L273.231 367.332H286.74V369.119H289.968V370.76L292.989 372.266L294.503 370.664H296.382L299.709 373.992H301.377L302.826 375.46L304.505 373.992H305.989L307.821 370.576L311.287 372.427V373.992H314.262L316.133 372.22L317.797 373.992H320.913L322.577 372.328H329.343L330.75 373.658V372.328L332.686 372.355L336.029 374.091V377.462V377.458ZM307.599 260.239L308.155 260.78L309.213 263.069V261.045L307.599 260.239Z" fill="#DDEDDD" stroke="#FBFFFB" stroke-width="0.383498" stroke-miterlimit="10"/>
<path d="M305.034 239.819H306.575L308.362 241.361H311.689L312.353 242.242L311.471 243.025L313.234 241.361H314.894L313.234 239.693L311.471 238.029L313.234 236.488H314.894L313.234 234.824V233.255H314.894V231.496V229.928H316.585L318.126 228.264H319.913V226.6L323.121 224.936L324.781 221.704L323.121 220.04L324.781 218.376H326.449V220.04H328.113L329.681 218.376V216.712V215.048L328.113 213.506H326.449H324.781V211.842H323.121V210.175L324.781 208.511H326.449L324.781 206.942V205.183H323.121H321.576V206.942H318.126H316.585L314.894 208.511L316.585 210.175V211.842V213.506V211.842L314.894 210.175L313.234 211.842V210.175V208.511H311.471L310.026 210.175V211.842H308.362V213.506V211.842L306.575 210.175H305.034V208.511H303.37V210.175L301.703 211.842V213.506V216.712V218.376V220.04V221.704V223.272V224.936L300.039 226.6L301.703 228.264H303.37V229.928L305.034 231.496V233.255V234.824V238.029V239.693V241.361V239.819Z" fill="#0A612B" stroke="#FBFFFB" stroke-width="0.383498" stroke-miterlimit="10"/>
<path d="M305.034 239.819H306.575L308.362 241.361H311.689L312.353 242.242L311.471 243.025L313.234 241.361H314.894L313.234 239.693L311.471 238.029L313.234 236.488H314.894L313.234 234.824V233.255H314.894V231.496V229.928H316.585L318.126 228.264H319.913V226.6L323.121 224.936L324.781 221.704L323.121 220.04L324.781 218.376H326.449V220.04H328.113L329.681 218.376V216.712V215.048L328.113 213.506H326.449H324.781V211.842H323.121V210.175L324.781 208.511H326.449L324.781 206.942V205.183H323.121H321.576V206.942H318.126H316.585L314.894 208.511L316.585 210.175V211.842V213.506V211.842L314.894 210.175L313.234 211.842V210.175V208.511H311.471L310.026 210.175V211.842H308.362V213.506V211.842L306.575 210.175H305.034V208.511H303.37V210.175L301.703 211.842V213.506V216.712V218.376V220.04V221.704V223.272V224.936L300.039 226.6L301.703 228.264H303.37V229.928L305.034 231.496V233.255V234.824V238.029V239.693V241.361V239.819Z" fill="#0A612B" stroke="#FBFFFB" stroke-width="0.383498" stroke-miterlimit="10"/>
<path d="M308.463 207.728V206.16V204.4L310.126 202.832H311.568H313.354H314.896H316.686H318.25L320.013 201.168H321.677H324.909L326.573 202.832L328.233 204.4V202.832L329.778 201.168L331.564 199.627V196.299H329.778V194.635L331.564 192.971L333.105 191.403H331.564L329.778 192.971H328.233H326.573L324.909 194.635H323.241L321.677 196.299L320.013 197.963V199.627L318.25 201.168H316.686H314.896H310.126H308.463L306.699 202.832V204.4L308.463 207.728Z" fill="#0A612B" stroke="#FBFFFB" stroke-width="0.383498" stroke-miterlimit="10"/>
<path d="M308.463 207.728V206.16V204.4L310.126 202.832H311.568H313.354H314.896H316.686H318.25L320.013 201.168H321.677H324.909L326.573 202.832L328.233 204.4V202.832L329.778 201.168L331.564 199.627V196.299H329.778V194.635L331.564 192.971L333.105 191.403H331.564L329.778 192.971H328.233H326.573L324.909 194.635H323.241L321.677 196.299L320.013 197.963V199.627L318.25 201.168H316.686H314.896H310.126H308.463L306.699 202.832V204.4L308.463 207.728Z" fill="#0A612B" stroke="#FBFFFB" stroke-width="0.383498" stroke-miterlimit="10"/>
<path d="M326.575 238.911H324.911H321.679V237.369H318.252V234.037V232.473H320.015V230.713L321.679 232.473L323.243 230.713L324.911 232.473H326.575V234.037V235.705V237.369V238.911H324.911H326.575Z" fill="#0A612B"/>
<path d="M326.575 238.911H324.911H321.679V237.369H318.252V234.037V232.473H320.015V230.713L321.679 232.473L323.243 230.713L324.911 232.473H326.575V234.037V235.705V237.369V238.911ZM326.575 238.911H324.911H326.575Z" stroke="#FBFFFB" stroke-width="0.383498" stroke-miterlimit="10"/>
<path d="M326.575 238.911H324.911H321.679V237.369H318.252V234.037V232.473H320.015V230.713L321.679 232.473L323.243 230.713L324.911 232.473H326.575V234.037V235.705V237.369V238.911H324.911H326.575Z" fill="#0A612B"/>
<path d="M326.575 238.911H324.911H321.679V237.369H318.252V234.037V232.473H320.015V230.713L321.679 232.473L323.243 230.713L324.911 232.473H326.575V234.037V235.705V237.369V238.911ZM326.575 238.911H324.911H326.575Z" stroke="#FBFFFB" stroke-width="0.383498" stroke-miterlimit="10"/>
<path d="M337.438 242.143L334.11 240.578H335.774V238.811H334.11H330.783L329.115 237.246V235.586L330.783 234.037L329.115 232.377V230.587L330.783 229.049H332.447L334.11 227.382V225.721H335.774V227.382L334.11 229.049L335.774 230.587H337.438V229.049V227.382H339.106H340.67L342.334 225.721L340.67 224.153H339.106L340.67 222.489H342.334H345.661L343.997 224.153H345.661L343.997 225.721L345.661 229.049L343.997 230.587L340.67 234.037L342.334 235.586L340.67 238.811H339.106L337.438 240.578L339.106 242.143H337.438Z" fill="#0A612B" stroke="#FBFFFB" stroke-width="0.383498" stroke-miterlimit="10"/>
<path d="M337.438 242.143L334.11 240.578H335.774V238.811H334.11H330.783L329.115 237.246V235.586L330.783 234.037L329.115 232.377V230.587L330.783 229.049H332.447L334.11 227.382V225.721H335.774V227.382L334.11 229.049L335.774 230.587H337.438V229.049V227.382H339.106H340.67L342.334 225.721L340.67 224.153H339.106L340.67 222.489H342.334H345.661L343.997 224.153H345.661L343.997 225.721L345.661 229.049L343.997 230.587L340.67 234.037L342.334 235.586L340.67 238.811H339.106L337.438 240.578L339.106 242.143H337.438Z" fill="#0A612B" stroke="#FBFFFB" stroke-width="0.383498" stroke-miterlimit="10"/>
<path d="M332.446 248.701H330.783L329.115 247.01L327.451 245.469V243.809H329.115H330.783V245.469H332.446L334.11 247.01V248.701H332.446Z" fill="#0A612B" stroke="#FBFFFB" stroke-width="0.383498" stroke-miterlimit="10"/>
<path d="M332.446 248.701H330.783L329.115 247.01L327.451 245.469V243.809H329.115H330.783V245.469H332.446L334.11 247.01V248.701H332.446Z" fill="#0A612B" stroke="#FBFFFB" stroke-width="0.383498" stroke-miterlimit="10"/>
<path d="M335.773 247.011V245.47V243.81L337.437 245.47H339.105V247.011H337.437V248.702L335.773 247.011Z" fill="#0A612B" stroke="#FBFFFB" stroke-width="0.383498" stroke-miterlimit="10"/>
<path d="M335.773 247.011V245.47V243.81L337.437 245.47H339.105V247.011H337.437V248.702L335.773 247.011Z" fill="#0A612B" stroke="#FBFFFB" stroke-width="0.383498" stroke-miterlimit="10"/>
<path d="M454.989 53.7508V50.3231L453.322 48.755L451.781 45.5497V43.8819V40.5578V37.226L453.322 35.6579L451.781 33.9978V32.3338L450.117 30.666V29.002V27.4339V25.7737H446.785L448.453 24.1059V22.5685V20.778V19.2367V17.45L446.785 15.9087V12.5808H445.125L441.771 11.0127L438.566 9.25284H436.998L435.235 7.68472H433.571V4.47945L430.339 2.81547L427.012 1.02881H423.684V2.81547V6.02074V7.68472L420.356 6.02074L418.815 11.0127V12.5808H417.151L415.488 11.0127L412.156 12.5808V15.9087V17.45H410.592L407.387 15.9087H405.597L403.937 19.2367V20.778L398.942 24.1059L397.378 25.7737L395.71 27.4339L397.378 29.002L398.942 32.3338L397.378 33.9978V35.6579L394.05 38.7711L390.719 40.5578V43.8819V45.5497L389.055 47.0949L385.85 48.755L382.518 50.3231V53.7508L380.855 57.0787L379.195 58.5203V61.8521V63.5161V65.1762L377.504 70.0761V71.7401L374.295 73.3082L372.632 75.068L374.295 78.3001V79.9641V81.5054L375.963 84.8333L374.295 86.6238H370.968H369.304L367.64 88.1613L365.976 89.7294H364.408V88.1613L361.081 89.7294L359.417 91.4892L357.753 94.7213V98.0531V101.258V104.613L356.086 106.277V109.601V111.146L357.753 112.81V116.042V117.802L356.086 121.034V122.576V124.24L357.753 126.026L359.417 127.571V129.358V132.464V134.131L354.545 137.456V139.123L356.086 142.356V144.019V145.561V150.675L354.545 155.545H352.881H351.217L349.553 157.113V158.777L347.889 160.54V161.982L344.539 165.314L346.203 166.974V168.642V170.306L344.539 171.993L342.994 170.306V168.642H341.33H341.43V171.993V173.534V176.866V178.53V180.098V181.858V183.426H343.094V186.754L344.539 185.09L346.321 186.754L344.539 190.082V191.627V193.287V194.855V198.283V199.851L346.321 201.511L344.539 203.179V206.411L346.321 208.075H347.889V213.067L351.317 214.608V216.276V217.936H349.653V219.6L347.889 221.168V222.832V224.496L349.653 226.037V227.824L351.317 229.365V231.033V234.361L349.653 236.025L351.317 237.589L352.98 236.025L354.644 237.589L359.54 236.025L361.204 237.589H362.749H364.531V236.025V232.697V229.365L366.072 227.824H367.74H369.404L371.067 226.037H369.404L371.067 224.496L374.395 222.832L377.627 224.496V226.037H379.291H382.618H384.282V222.832V221.168L387.51 216.276V213.067L389.177 211.403L390.841 209.616V208.075H389.177L390.841 204.72L392.505 203.179L390.841 201.511V199.851V198.283L392.505 196.519V194.855L394.169 191.627V190.082V188.295L392.505 185.09L395.833 183.426L390.841 181.858L392.505 180.098L395.833 181.858H397.496L400.705 178.53V176.866V175.198H402.369H404.033L405.697 176.866L407.387 173.534L408.928 171.993L412.256 170.306L408.928 168.642V166.974L410.715 165.314H412.256L415.583 160.54L413.92 158.777V155.545L410.715 157.113V155.545V153.785L408.928 152.217L407.387 150.675V149.011V147.347L404.033 149.011L402.369 147.347L400.705 145.561V142.356L399.038 140.787V139.123L397.496 137.456H399.038L400.705 135.795V132.464V130.8V127.571H402.369L400.705 126.026L402.369 124.24V121.034L404.033 119.37V116.042H399.038V112.81L400.705 111.146L404.033 112.81L405.697 111.146H407.387L408.928 109.601H410.715L413.92 107.941L412.256 106.277L415.583 102.922L413.92 101.258H417.247L418.911 98.0531L420.479 99.7133L423.807 98.0531L422.242 96.3892L423.807 94.7213H425.474L428.798 93.0574V89.7294V88.1613V86.6238L430.466 83.2921H432.007L433.671 79.9641L435.334 78.3001L433.671 76.732V75.068V71.7401V68.4121L435.334 66.844V65.1762V63.5161L436.998 61.8521H440.353V58.5203V55.315V53.7508H441.894L443.557 55.315L446.885 51.9871L448.549 53.7508H450.216H451.88L453.444 55.315L454.989 53.7508Z" fill="#0A612B" stroke="#FBFFFB" stroke-width="0.383498" stroke-miterlimit="10"/>
<path d="M351.316 237.937L349.288 236.028L351.063 234.257V229.476L349.399 227.934V226.152L347.635 224.61V221.052L349.399 219.484V217.682H351.063V214.772L347.632 213.231V208.327H346.221L344.281 206.517V203.067L345.949 201.51L344.281 199.961L344.312 189.962L346.006 186.807L344.557 185.453L342.84 187.432V183.674H341.176V168.637H341.329V168.384H343.246V170.205L344.542 171.624L345.945 170.201V167.08L344.174 165.313L347.632 161.878V160.44L349.299 158.676V157.005L351.116 155.295H354.36L355.832 150.64V142.416L354.291 139.126V137.328L359.163 134V127.686L357.58 126.217L355.832 124.346L355.859 120.922L357.496 117.748V112.921L355.828 111.257V106.181L357.496 104.517L357.522 94.617L359.228 91.3274L360.969 89.5101L364.657 87.7733V89.4871H365.872L369.203 86.3777H374.183L375.652 84.798L374.038 81.5161V78.3722L372.316 75.0366L374.179 73.0927L377.242 71.5974L377.258 70.0063L378.933 65.1486V58.4198L380.643 56.9322L382.257 53.704V50.1766L385.734 48.5395L388.901 46.8985L390.457 45.4531V40.4228L393.892 38.5786L397.116 35.5651V33.9126L398.63 32.2985L397.162 29.1661L395.337 27.4523L397.189 25.6042L398.745 23.9441L403.671 20.6507L403.698 19.1324L405.431 15.6664L407.486 15.6894L410.641 17.2039H411.895V12.4266L415.525 10.7167L417.243 12.3346H418.554L418.565 10.9467L420.194 5.66721L423.422 7.28136V0.778809L427.126 0.809487L430.453 2.59615L433.819 4.32914V7.43471H435.326L437.089 9.00284H438.626L438.684 9.0335L441.885 10.7933L445.174 12.3308H447.034V15.8044L448.697 17.3457V24.2202L447.39 25.5276H450.361V30.5693L452.025 32.2333V33.9011L453.666 35.6686L452.025 37.3364V45.4953L453.52 48.6085L455.23 50.2188V53.8611L453.436 55.6785L451.768 54.0107H448.433L446.873 52.3582L443.556 55.6747L441.785 54.0107H440.597V62.112H437.097L435.583 63.6303V66.9621L433.919 68.5302V76.6315L435.694 78.3032L433.873 80.1243L432.159 83.5558H430.618L429.05 86.6921V93.2253L425.469 94.9889H423.913L422.587 96.3999L424.224 98.1405L420.421 100.038L418.968 98.5009L417.4 101.53H414.528L415.939 102.937L412.608 106.292L414.34 108.021L410.71 109.873H409.031L407.49 111.414H405.799L404.082 113.135L400.754 111.471L399.29 112.932V115.808H404.281V119.492L402.617 121.156V124.358L401.057 126.029L403.008 127.839H400.95V135.914L399.136 137.723H398.071L399.286 139.038V140.691L400.95 142.259V145.476L402.548 147.186L404.074 148.715L407.632 146.952V150.586L409.1 152.051L410.959 153.684V156.721L414.164 155.153V158.688L415.901 160.528L412.378 165.578H410.802L409.169 167.096V168.495L412.803 170.313L409.065 172.21L407.582 173.694L405.749 177.302L403.913 175.462H400.942V178.64L397.591 182.118L395.701 182.087L392.546 180.415L391.293 181.742L396.495 183.375L392.838 185.208L394.409 188.302L394.383 191.749L392.749 194.923V196.629L391.086 198.393V201.418L392.861 203.193L391.036 204.884L389.575 207.833H391.086V209.727L389.353 211.586L387.754 213.185V216.363L384.526 221.256V226.301H377.365V224.66L374.386 223.123L371.205 224.714L370.043 225.791H371.642L369.506 228.084H366.175L364.779 229.476V237.849H361.095L359.47 236.316L354.574 237.884L352.976 236.377L351.316 237.945V237.937ZM361.302 237.335H364.277V229.261L365.968 227.57H369.292L370.484 226.29H368.755L370.952 224.269L374.398 222.548L377.879 224.342V225.783H384.028V221.091L387.256 216.198V212.962L388.996 211.222L390.587 209.516V208.327H388.766L390.668 204.531L392.14 203.17L390.587 201.618V198.182L392.251 196.419L392.278 194.739L393.911 191.565V188.356L392.159 184.978L395.153 183.479L390.373 181.98L392.447 179.786L395.885 181.608H397.38L400.444 178.433V174.952H404.128L405.619 176.447L407.198 173.364L408.805 171.773L411.684 170.313L408.667 168.802V166.87L410.606 165.064H412.117L415.253 160.566L413.658 158.879V155.954L410.453 157.522V153.903L408.755 152.411L407.126 150.786V147.761L403.974 149.325L402.184 147.531L400.444 145.667V142.47L398.78 140.902V139.226L396.913 137.209H398.929L400.447 135.695V127.321H401.72L400.344 126.045L402.115 124.147V120.934L403.779 119.27V116.302H398.787V112.71L400.654 110.843L403.982 112.507L405.592 110.896H407.283L408.824 109.355H410.652L413.497 107.879L411.898 106.284L415.23 102.929L413.309 101.012H417.097L418.853 97.6268L420.536 99.4096L423.392 97.9833L421.897 96.3922L423.698 94.4752H425.412L428.548 92.907L428.575 86.5157L430.307 83.0459H431.849L433.489 79.7946L434.969 78.3147L433.417 76.8501V68.3078L435.08 66.7397V63.4156L436.894 61.6021H440.099V53.5007H441.992L443.553 54.9653L446.892 51.6297L448.659 53.5046H451.987L453.443 54.9615L454.735 53.6541V50.4374L453.095 48.8692L451.527 45.5528V37.1256L452.972 35.6571L451.527 34.1005V32.4403L449.863 30.7764V26.0298H446.175L448.199 24.0055V17.5643L446.535 16.023V12.8369L445.017 12.8139L441.663 11.2458L438.5 9.50893H436.901L435.138 7.94081H433.317V4.63586L430.223 3.04089L426.949 1.28107H423.936V8.09417L420.513 6.38035L419.071 11.0502V12.833H417.051L415.441 11.3148L412.412 12.741V17.7061L410.484 17.6831L407.329 16.1687H405.753L404.189 19.3011V20.919L399.083 24.3237L397.564 25.9531L396.077 27.4369L397.61 28.9015L399.247 32.3867L397.634 34.1043V35.776L394.172 39.0004L390.975 40.7142V45.664L389.177 47.3241L385.972 48.9881L382.778 50.491L382.751 53.8727L381.026 57.2773L379.451 58.646L379.435 65.2713L377.76 70.129V71.9118L374.452 73.526L372.941 75.1209L374.551 78.3108V81.4586L376.269 84.8862L374.409 86.8838H369.407L366.079 89.9932H364.158V88.5707L361.237 89.9472L359.631 91.6457L358.013 94.7896V104.724L356.345 106.388V111.046L358.013 112.71L357.986 117.924L356.349 121.099V124.143L357.948 125.857L359.681 127.463V134.269L354.808 137.597V139.073L356.349 142.362L356.338 150.763L354.739 155.808H351.327L349.817 157.231V158.887L348.149 160.651V162.1L344.902 165.324L346.459 166.881V170.42L344.534 172.371L342.748 170.416V168.905H341.686V183.18H343.349V186.086L344.519 184.736L346.639 186.711L344.791 190.154V199.75L346.696 201.522L344.791 203.297V206.31L346.424 207.833H348.141V212.916L351.573 214.458V218.204H349.909V219.73L348.145 221.298V224.399L349.909 225.941V227.731L351.573 229.272V234.483L350.02 236.036L351.32 237.259L352.98 235.691L354.708 237.32L359.604 235.752L361.302 237.351V237.335Z" fill="#DDEDDD" stroke="#FBFFFB" stroke-width="0.383498" stroke-miterlimit="10"/>
<path d="M462.991 484.144H466.318H469.646H472.977H476.182L477.869 485.708L481.2 484.144V482.377H482.741L484.405 480.812L486.069 482.377V480.812H487.733L489.397 482.377H491.064V484.144L494.388 482.377H495.956H497.497H500.947L502.611 480.812H505.816H509.147L510.834 479.148L509.147 477.484V475.82H510.834H512.375V474.271L514.484 474.153L515.143 471.266H516.93L517.37 470.924L519.034 469.26H520.698H522.362H524.029V470.924H525.693H528.921H533.916V469.26V465.929H532.253L530.585 464.391V462.723H527.257L525.693 464.391V461.059V459.395L527.257 457.831H528.921V456.067L530.585 454.499L528.921 452.835V449.626H530.585V446.302V443.066H533.916H537.244L538.781 441.402L537.022 437.074V436.51L530.585 434.187L528.699 433.646H527.576H525.812L522.266 434.187L520.698 433.178H517.37H515.826L514.166 431.518L507.484 433.178L505.816 434.746L502.611 438.078L499.287 441.402L495.956 443.066L494.388 444.515H491.064L487.733 443.066H486.069H482.741H481.2H477.869H474.518L472.977 441.402H469.646H466.318H462.991L461.327 439.742V438.078V434.746H458.095H459.759L456.332 438.078L454.767 439.742H453.008L454.767 443.066V446.302L456.332 447.843V449.626H458.095H459.759L461.327 451.168L459.759 452.835V454.499L456.332 456.067V457.831V461.059H454.767V464.391V465.929V469.26L458.095 470.924L459.759 472.585L461.327 474.271L462.991 475.82L464.532 477.484V479.148V480.812L462.991 482.377V484.144Z" fill="#0A612B" stroke="#FBFFFB" stroke-width="0.383498" stroke-miterlimit="10"/>
<path d="M477.823 486.01L476.086 484.4H462.737V482.276L464.278 480.708V477.579L462.802 475.988L461.15 474.454L459.571 472.752L457.945 471.122L454.51 469.409V460.797H456.078V455.897L459.502 454.329V452.727L460.966 451.17L459.651 449.878H456.074V447.95L454.506 446.408V443.13L452.578 439.488H454.652L456.143 437.9L459.13 434.998H458.091V434.492H461.572V439.637L463.09 441.152H473.084L474.625 442.816L487.828 442.839L491.114 444.265H494.288L495.841 442.843L499.134 441.198L502.431 437.9L505.635 434.573L507.357 432.955L514.238 431.241L515.929 432.932H520.771L522.316 433.925L525.77 433.399H528.729L530.646 433.948L537.267 436.336V437.03L539.068 441.466L537.343 443.329H530.83V449.89H529.166V452.738L530.941 454.513L529.166 456.185V458.091H527.353L525.938 459.509V463.761L527.142 462.481H530.834V464.29L532.344 465.686H534.165V471.188H523.772V469.524H519.137L517.55 471.115L517.017 471.529H515.346L514.687 474.408L512.632 474.523V476.084H509.404V477.387L511.198 479.159L509.251 481.076H502.714L501.05 482.644H494.457L490.815 484.58V482.644H489.297L487.633 481.076H486.322V482.977L484.409 481.172L482.845 482.644H481.453V484.315L477.823 486.022V486.01ZM463.243 483.89H476.281L477.918 485.404L480.947 483.986V482.126H482.641L484.409 480.466L485.816 481.793V480.562H487.836L489.5 482.13H491.321V483.729L494.395 482.13H500.851L502.515 480.562H509.047L510.477 479.151L508.894 477.594V475.57H512.122V474.036L514.276 473.917L514.94 471.015H516.841L517.213 470.728L518.927 469.01H524.278V470.674H533.659V466.184H532.149L530.328 464.505V462.979H527.361L525.436 465.03V459.291L527.15 457.577H528.664V455.959L530.217 454.494L528.664 452.941V449.376H530.328V442.816H537.125L538.482 441.351L536.764 437.072V436.685L530.496 434.419L528.66 433.894H525.808L522.201 434.446L520.617 433.43H515.714L514.077 431.793L507.598 433.403L505.984 434.925L502.787 438.246L499.391 441.627L496.094 443.272L494.483 444.763L490.957 444.74L487.671 443.314H474.403L472.862 441.65H462.879L461.066 439.841V434.994H459.854L456.504 438.253L454.871 439.99H453.422L455.013 443.061V446.19L456.58 447.731V449.368H459.854L461.672 451.155L460.004 452.926V454.651L456.58 456.22V461.3H455.013V469.09L458.271 470.731L459.931 472.395L461.503 474.09L463.155 475.624L464.777 477.376V480.907L463.236 482.475V483.886L463.243 483.89Z" fill="#DDEDDD" stroke="#FBFFFB" stroke-width="0.383498" stroke-miterlimit="10"/>
<path d="M343.591 406.663L345.579 404.012L344.916 409.976L343.591 411.964L342.266 411.301L340.278 413.289L342.266 414.614V416.602L346.242 415.277L352.206 409.976L356.181 411.301L363.471 406.663L371.422 406L375.398 401.361L382.688 400.036L383.35 398.711V395.397L379.374 391.422V390.096L375.398 389.434L373.41 391.422L371.422 390.759L368.109 391.422H360.157L358.169 394.735L356.181 394.072L354.194 395.397L353.531 396.723L351.543 395.397H348.892L346.242 392.747H344.916L341.603 394.072V395.397L342.266 398.711V400.036L339.615 402.024L341.603 403.349V406L343.591 406.663Z" fill="#0A612B" stroke="white" stroke-width="0.384337"/>
</svg>
