<svg width="22" height="23" viewBox="0 0 22 23" fill="none" xmlns="http://www.w3.org/2000/svg">
<g id="ph:books-light" clip-path="url(#clip0_161_1142)">
<path id="Vector" d="M21.2043 19.5875L21.2044 19.5878C21.2895 20.0004 21.2091 20.4299 20.9804 20.7836C20.7518 21.1374 20.3932 21.3871 19.982 21.4789L19.9813 21.479L14.9664 22.5557C14.9663 22.5557 14.9662 22.5558 14.9661 22.5558C14.8539 22.5805 14.7393 22.5928 14.6243 22.5922C14.6242 22.5922 14.6241 22.5922 14.6239 22.5922L14.6244 22.4968C14.3363 22.4965 14.0544 22.4124 13.8133 22.2546L21.2043 19.5875ZM21.2043 19.5875L17.6483 2.67616L21.2043 19.5875ZM13.3123 21.8973C13.4315 22.0713 13.5842 22.22 13.7613 22.3347L13.0663 21.3207C13.1094 21.5273 13.193 21.7233 13.3123 21.8973ZM9.51024 4.41234L13.0663 21.3205L17.6482 2.67589C17.6055 2.47007 17.5225 2.27471 17.4041 2.10104C17.2856 1.9273 17.1339 1.77871 16.9578 1.66379C16.7817 1.54888 16.5846 1.46992 16.3778 1.43146C16.1711 1.39299 15.9587 1.39579 15.7531 1.43967L15.7529 1.4397L10.7375 2.51756L10.7371 2.51766C10.3244 2.60838 9.96412 2.85816 9.73443 3.21283C9.50474 3.5675 9.42417 3.99843 9.51019 4.41213L9.51024 4.41234ZM7.72695 21.084L7.79444 21.1515L7.72694 21.084C7.70466 21.1063 7.67444 21.1188 7.64292 21.1188H2.50001C2.4685 21.1188 2.43827 21.1063 2.41599 21.084L2.34849 21.1515L2.41599 21.084C2.3937 21.0617 2.38118 21.0315 2.38118 21V19.1669H7.76175V21C7.76175 21.0315 7.74923 21.0617 7.72695 21.084ZM11.0305 3.96706L11.0487 3.96316L16.0573 2.88758C16.0642 2.88711 16.0711 2.88724 16.078 2.88796L16.0779 2.88846L16.0877 2.88849C16.109 2.88855 16.1298 2.89488 16.1475 2.9067L16.1475 2.90672L16.1492 2.90784C16.1629 2.91653 16.1746 2.92792 16.1837 2.9413C16.1928 2.95468 16.1991 2.96978 16.2021 2.98568L16.2021 2.98568L16.2024 2.98734L16.5846 4.80349L11.337 5.92295L10.956 4.11161L10.9558 4.11077C10.9487 4.07833 10.9546 4.04439 10.9723 4.01629C10.9863 3.99414 11.0067 3.97702 11.0305 3.96706ZM14.1299 19.209L19.3779 18.0812L19.764 19.8874L19.7641 19.888C19.7677 19.9043 19.768 19.9211 19.7651 19.9375C19.7621 19.9539 19.756 19.9696 19.747 19.9836C19.7379 19.9976 19.7262 20.0097 19.7125 20.0192C19.6988 20.0286 19.6834 20.0353 19.6671 20.0388L19.5915 20.0549V20.0572L14.6515 21.121L14.6509 21.1211C14.6365 21.1243 14.6216 21.1245 14.6071 21.1219C14.5926 21.1192 14.5788 21.1137 14.5665 21.1056L14.5653 21.1048C14.5517 21.0961 14.5399 21.0847 14.5308 21.0714C14.5218 21.058 14.5155 21.0429 14.5124 21.027L14.5125 21.027L14.5121 21.0253L14.1299 19.209ZM7.64292 2.2615H2.50001C2.07687 2.2615 1.67106 2.4296 1.37185 2.72881C1.07264 3.02801 0.904545 3.43383 0.904545 3.85697V21C0.904545 21.4231 1.07264 21.8289 1.37185 22.1282C1.67106 22.4274 2.07687 22.5955 2.50001 22.5955H7.64292C7.85244 22.5955 8.05991 22.5542 8.25348 22.474C8.44705 22.3938 8.62293 22.2763 8.77108 22.1282C8.91924 21.98 9.03676 21.8041 9.11694 21.6105C9.19712 21.417 9.23839 21.2095 9.23839 21V3.85697C9.23839 3.64745 9.19712 3.43998 9.11694 3.24641C9.03676 3.05284 8.91924 2.87696 8.77108 2.72881C8.62293 2.58065 8.44705 2.46313 8.25348 2.38295C8.05991 2.30277 7.85244 2.2615 7.64292 2.2615ZM2.38118 7.16674H7.76175V17.6902H2.38118V7.16674ZM2.50001 3.73814H7.64292C7.67443 3.73814 7.70466 3.75066 7.72695 3.77294C7.74923 3.79523 7.76175 3.82546 7.76175 3.85697V5.69011H2.38118V3.85697C2.38118 3.82546 2.3937 3.79523 2.41599 3.77294C2.43827 3.75066 2.4685 3.73814 2.50001 3.73814ZM13.8238 17.759L12.3513 10.7533L17.6 9.62549L19.0736 16.6344L13.8238 17.759ZM11.6409 7.37174L16.8907 6.24088L17.2962 8.17649L12.0474 9.30427L11.6409 7.37174Z" fill="#0A612B" stroke="#0A612B" stroke-width="0.190909"/>
</g>
<defs>
<clipPath id="clip0_161_1142">
<rect width="22" height="22" fill="white" transform="translate(0 0.5)"/>
</clipPath>
</defs>
</svg>
