<svg width="43" height="43" viewBox="0 0 43 43" fill="none" xmlns="http://www.w3.org/2000/svg">
<mask id="path-1-outside-1_276_1613" maskUnits="userSpaceOnUse" x="0.679688" y="6.05469" width="42" height="34" fill="black">
<rect fill="white" x="0.679688" y="6.05469" width="42" height="34"/>
<path d="M41.2575 8.06237C41.2427 7.81638 41.1384 7.58432 40.9641 7.41007C40.7899 7.23582 40.5578 7.13146 40.3118 7.1167C31.7454 6.61279 24.8789 9.20287 21.9444 14.0471C19.991 17.2738 20.033 21.216 22.0335 24.9651C20.7507 26.4334 19.8567 28.2 19.4333 30.1032L16.1075 26.7758C17.4765 24.0715 17.4681 21.2412 16.0538 18.9064C13.9021 15.3539 8.90167 13.4491 2.67003 13.8187C2.42377 13.8334 2.19149 13.9381 2.01721 14.1127C1.84292 14.2873 1.73872 14.5197 1.72436 14.766C1.35819 20.996 3.2596 25.9964 6.81214 28.1481C7.96915 28.8552 9.29927 29.2284 10.6553 29.2264C12.0595 29.2119 13.4406 28.8667 14.6865 28.2186L19.1478 32.6664V37.6249C19.1478 37.8922 19.2539 38.1485 19.4429 38.3375C19.6319 38.5265 19.8883 38.6327 20.1556 38.6327C20.4229 38.6327 20.6792 38.5265 20.8682 38.3375C21.0572 38.1485 21.1634 37.8922 21.1634 37.6249V32.6715C21.1567 30.3627 21.9765 28.1277 23.4746 26.371C25.3576 27.367 27.2909 27.8676 29.1553 27.8676C30.979 27.8736 32.7688 27.3754 34.3271 26.4281C39.1713 23.497 41.7614 16.6288 41.2575 8.06237ZM7.8569 26.423C5.11733 24.7652 3.59218 20.828 3.69464 15.7889C8.7337 15.6797 12.6658 17.2066 14.3237 19.9462C15.2778 21.52 15.3584 23.3694 14.5824 25.2523L10.1178 20.786C9.92866 20.5969 9.67217 20.4907 9.40474 20.4907C9.1373 20.4907 8.88082 20.5969 8.69171 20.786C8.5026 20.9751 8.39636 21.2316 8.39636 21.499C8.39636 21.7665 8.5026 22.0229 8.69171 22.2121L13.163 26.6817C11.2801 27.4577 9.43077 27.3788 7.8569 26.423ZM33.284 24.7064C30.8082 26.2047 27.8855 26.2483 24.941 24.8576L34.3069 15.4933C34.4006 15.3997 34.4749 15.2885 34.5255 15.1662C34.5762 15.0438 34.6023 14.9127 34.6023 14.7803C34.6023 14.6479 34.5762 14.5167 34.5255 14.3944C34.4749 14.272 34.4006 14.1609 34.3069 14.0672C34.2133 13.9736 34.1021 13.8993 33.9798 13.8487C33.8575 13.798 33.7263 13.7719 33.5939 13.7719C33.4615 13.7719 33.3304 13.798 33.208 13.8487C33.0857 13.8993 32.9745 13.9736 32.8809 14.0672L23.515 23.4332C22.1242 20.4887 22.1712 17.566 23.6661 15.0919C26.105 11.0606 31.9067 8.84678 39.2872 9.08697C39.5274 16.4608 37.3119 22.2658 33.284 24.7064Z"/>
</mask>
<path d="M41.2575 8.06237C41.2427 7.81638 41.1384 7.58432 40.9641 7.41007C40.7899 7.23582 40.5578 7.13146 40.3118 7.1167C31.7454 6.61279 24.8789 9.20287 21.9444 14.0471C19.991 17.2738 20.033 21.216 22.0335 24.9651C20.7507 26.4334 19.8567 28.2 19.4333 30.1032L16.1075 26.7758C17.4765 24.0715 17.4681 21.2412 16.0538 18.9064C13.9021 15.3539 8.90167 13.4491 2.67003 13.8187C2.42377 13.8334 2.19149 13.9381 2.01721 14.1127C1.84292 14.2873 1.73872 14.5197 1.72436 14.766C1.35819 20.996 3.2596 25.9964 6.81214 28.1481C7.96915 28.8552 9.29927 29.2284 10.6553 29.2264C12.0595 29.2119 13.4406 28.8667 14.6865 28.2186L19.1478 32.6664V37.6249C19.1478 37.8922 19.2539 38.1485 19.4429 38.3375C19.6319 38.5265 19.8883 38.6327 20.1556 38.6327C20.4229 38.6327 20.6792 38.5265 20.8682 38.3375C21.0572 38.1485 21.1634 37.8922 21.1634 37.6249V32.6715C21.1567 30.3627 21.9765 28.1277 23.4746 26.371C25.3576 27.367 27.2909 27.8676 29.1553 27.8676C30.979 27.8736 32.7688 27.3754 34.3271 26.4281C39.1713 23.497 41.7614 16.6288 41.2575 8.06237ZM7.8569 26.423C5.11733 24.7652 3.59218 20.828 3.69464 15.7889C8.7337 15.6797 12.6658 17.2066 14.3237 19.9462C15.2778 21.52 15.3584 23.3694 14.5824 25.2523L10.1178 20.786C9.92866 20.5969 9.67217 20.4907 9.40474 20.4907C9.1373 20.4907 8.88082 20.5969 8.69171 20.786C8.5026 20.9751 8.39636 21.2316 8.39636 21.499C8.39636 21.7665 8.5026 22.0229 8.69171 22.2121L13.163 26.6817C11.2801 27.4577 9.43077 27.3788 7.8569 26.423ZM33.284 24.7064C30.8082 26.2047 27.8855 26.2483 24.941 24.8576L34.3069 15.4933C34.4006 15.3997 34.4749 15.2885 34.5255 15.1662C34.5762 15.0438 34.6023 14.9127 34.6023 14.7803C34.6023 14.6479 34.5762 14.5167 34.5255 14.3944C34.4749 14.272 34.4006 14.1609 34.3069 14.0672C34.2133 13.9736 34.1021 13.8993 33.9798 13.8487C33.8575 13.798 33.7263 13.7719 33.5939 13.7719C33.4615 13.7719 33.3304 13.798 33.208 13.8487C33.0857 13.8993 32.9745 13.9736 32.8809 14.0672L23.515 23.4332C22.1242 20.4887 22.1712 17.566 23.6661 15.0919C26.105 11.0606 31.9067 8.84678 39.2872 9.08697C39.5274 16.4608 37.3119 22.2658 33.284 24.7064Z" fill="#0A612B"/>
<path d="M41.2575 8.06237L41.7566 8.033L41.7566 8.03243L41.2575 8.06237ZM40.3118 7.1167L40.3418 6.6176L40.3412 6.61756L40.3118 7.1167ZM21.9444 14.0471L21.5168 13.788L21.5167 13.7881L21.9444 14.0471ZM22.0335 24.9651L22.41 25.294L22.6371 25.0341L22.4746 24.7297L22.0335 24.9651ZM19.4333 30.1032L19.0797 30.4567L19.7236 31.1009L19.9214 30.2118L19.4333 30.1032ZM16.1075 26.7758L15.6614 26.5499L15.4979 26.8731L15.7539 27.1292L16.1075 26.7758ZM16.0538 18.9064L15.6261 19.1655L15.6261 19.1655L16.0538 18.9064ZM2.67003 13.8187L2.64043 13.3195L2.64004 13.3196L2.67003 13.8187ZM1.72436 14.766L2.2235 14.7953L2.22352 14.7951L1.72436 14.766ZM6.81214 28.1481L7.07289 27.7214L7.07117 27.7204L6.81214 28.1481ZM10.6553 29.2264L10.656 29.7264L10.6604 29.7264L10.6553 29.2264ZM14.6865 28.2186L15.0395 27.8645L14.7804 27.6062L14.4558 27.775L14.6865 28.2186ZM19.1478 32.6664H19.6478V32.4589L19.5008 32.3123L19.1478 32.6664ZM21.1634 32.6715L21.6634 32.6715L21.6634 32.67L21.1634 32.6715ZM23.4746 26.371L23.7084 25.929L23.3542 25.7416L23.0942 26.0465L23.4746 26.371ZM29.1553 27.8676L29.157 27.3676H29.1553V27.8676ZM34.3271 26.4281L34.0683 26.0003L34.0674 26.0008L34.3271 26.4281ZM7.8569 26.423L8.11643 25.9957L8.11577 25.9953L7.8569 26.423ZM3.69464 15.7889L3.68381 15.289L3.20449 15.2994L3.19474 15.7788L3.69464 15.7889ZM14.3237 19.9462L13.8959 20.205L13.8961 20.2053L14.3237 19.9462ZM14.5824 25.2523L14.2288 25.6058L14.7589 26.1361L15.0447 25.4428L14.5824 25.2523ZM10.1178 20.786L10.4714 20.4325L10.4713 20.4324L10.1178 20.786ZM9.40474 20.4907L9.40474 20.9907L9.40474 20.4907ZM8.39636 21.499H8.89636H8.39636ZM8.69171 22.2121L8.33816 22.5656L8.33822 22.5657L8.69171 22.2121ZM13.163 26.6817L13.3536 27.144L14.0469 26.8582L13.5165 26.3281L13.163 26.6817ZM33.284 24.7064L33.5429 25.1342L33.5431 25.134L33.284 24.7064ZM24.941 24.8576L24.5875 24.504L24.0851 25.0063L24.7275 25.3097L24.941 24.8576ZM34.3069 15.4933L34.6605 15.8469L34.6605 15.8469L34.3069 15.4933ZM34.6023 14.7803L34.1023 14.7803L34.6023 14.7803ZM33.5939 13.7719L33.5939 14.2719L33.5939 13.7719ZM32.8809 14.0672L32.5273 13.7137L32.5273 13.7137L32.8809 14.0672ZM23.515 23.4332L23.0628 23.6467L23.3662 24.289L23.8685 23.7867L23.515 23.4332ZM23.6661 15.0919L23.2383 14.833L23.2382 14.8333L23.6661 15.0919ZM39.2872 9.08697L39.787 9.0707L39.7717 8.60248L39.3035 8.58724L39.2872 9.08697ZM41.7566 8.03243C41.7345 7.6644 41.5784 7.31722 41.3177 7.05652L40.6106 7.76363C40.6984 7.85143 40.751 7.96836 40.7584 8.0923L41.7566 8.03243ZM41.3177 7.05652C41.057 6.79582 40.7098 6.63967 40.3418 6.6176L40.2819 7.6158C40.4058 7.62324 40.5228 7.67583 40.6106 7.76363L41.3177 7.05652ZM40.3412 6.61756C31.6947 6.10895 24.5917 8.71195 21.5168 13.788L22.3721 14.3061C25.1661 9.69379 31.7961 7.11664 40.2825 7.61584L40.3412 6.61756ZM21.5167 13.7881C19.4581 17.1885 19.5222 21.3209 21.5923 25.2004L22.4746 24.7297C20.5437 21.1111 20.5239 17.359 22.3722 14.306L21.5167 13.7881ZM21.6569 24.6361C20.3191 26.1674 19.3868 28.0098 18.9452 29.9947L19.9214 30.2118C20.3266 28.3902 21.1822 26.6994 22.41 25.294L21.6569 24.6361ZM19.787 29.7498L16.4612 26.4223L15.7539 27.1292L19.0797 30.4567L19.787 29.7498ZM16.5536 27.0016C17.9891 24.1659 17.9975 21.1501 16.4814 18.6474L15.6261 19.1655C16.9387 21.3322 16.9638 23.9771 15.6614 26.5499L16.5536 27.0016ZM16.4815 18.6474C14.1902 14.8644 8.95489 12.9451 2.64043 13.3195L2.69963 14.3178C8.84844 13.9532 13.614 15.8434 15.6261 19.1655L16.4815 18.6474ZM2.64004 13.3196C2.27161 13.3417 1.9241 13.4982 1.66334 13.7594L2.37107 14.4659C2.45889 14.3779 2.57593 14.3252 2.70001 14.3178L2.64004 13.3196ZM1.66334 13.7594C1.40258 14.0206 1.24669 14.3684 1.22521 14.7369L2.22352 14.7951C2.23075 14.671 2.28325 14.5539 2.37107 14.4659L1.66334 13.7594ZM1.22523 14.7367C0.854212 21.049 2.77001 26.2844 6.55311 28.5757L7.07117 27.7204C3.74919 25.7084 1.86217 20.9429 2.2235 14.7953L1.22523 14.7367ZM6.55139 28.5747C7.78713 29.33 9.20774 29.7286 10.656 29.7264L10.6545 28.7264C9.39079 28.7283 8.15118 28.3805 7.07288 27.7214L6.55139 28.5747ZM10.6604 29.7264C12.1433 29.7111 13.6016 29.3465 14.9172 28.6622L14.4558 27.775C13.2796 28.3868 11.9758 28.7128 10.6501 28.7265L10.6604 29.7264ZM14.3335 28.5727L18.7947 33.0205L19.5008 32.3123L15.0395 27.8645L14.3335 28.5727ZM18.6478 32.6664V37.6249H19.6478V32.6664H18.6478ZM18.6478 37.6249C18.6478 38.0248 18.8066 38.4083 19.0894 38.691L19.7965 37.9839C19.7013 37.8887 19.6478 37.7595 19.6478 37.6249H18.6478ZM19.0894 38.691C19.3722 38.9738 19.7557 39.1327 20.1556 39.1327V38.1327C20.0209 38.1327 19.8917 38.0792 19.7965 37.9839L19.0894 38.691ZM20.1556 39.1327C20.5555 39.1327 20.939 38.9738 21.2218 38.691L20.5147 37.9839C20.4194 38.0792 20.2903 38.1327 20.1556 38.1327V39.1327ZM21.2218 38.691C21.5045 38.4083 21.6634 38.0248 21.6634 37.6249H20.6634C20.6634 37.7595 20.6099 37.8887 20.5147 37.9839L21.2218 38.691ZM21.6634 37.6249V32.6715H20.6634V37.6249H21.6634ZM21.6634 32.67C21.657 30.4806 22.4345 28.3613 23.8551 26.6954L23.0942 26.0465C21.5186 27.8942 20.6563 30.2447 20.6634 32.6729L21.6634 32.67ZM23.2408 26.8129C25.1876 27.8427 27.2005 28.3676 29.1553 28.3676V27.3676C27.3812 27.3676 25.5276 26.8913 23.7084 25.929L23.2408 26.8129ZM29.1537 28.3676C31.0695 28.3739 32.9498 27.8505 34.5868 26.8553L34.0674 26.0008C32.5878 26.9003 30.8885 27.3733 29.157 27.3676L29.1537 28.3676ZM34.5859 26.8559C39.6623 23.7843 42.2652 16.6793 41.7566 8.033L40.7584 8.09173C41.2576 16.5782 38.6803 23.2097 34.0683 26.0003L34.5859 26.8559ZM8.11577 25.9953C5.60523 24.476 4.09343 20.7716 4.19453 15.7991L3.19474 15.7788C3.09093 20.8844 4.62943 25.0543 7.59804 26.8508L8.11577 25.9953ZM3.70547 16.2888C8.67707 16.1811 12.3766 17.6944 13.8959 20.205L14.7515 19.6873C12.9551 16.7188 8.79033 15.1784 3.68381 15.289L3.70547 16.2888ZM13.8961 20.2053C14.7567 21.625 14.8442 23.3047 14.1201 25.0618L15.0447 25.4428C15.8725 23.434 15.7988 21.4151 14.7513 19.687L13.8961 20.2053ZM14.936 24.8988L10.4714 20.4325L9.76414 21.1395L14.2288 25.6058L14.936 24.8988ZM10.4713 20.4324C10.1884 20.1496 9.80478 19.9907 9.40474 19.9907L9.40474 20.9907C9.53956 20.9907 9.66887 21.0442 9.76421 21.1396L10.4713 20.4324ZM9.40474 19.9907C9.00469 19.9907 8.62103 20.1496 8.33816 20.4324L9.04526 21.1396C9.1406 21.0442 9.26991 20.9907 9.40474 20.9907L9.40474 19.9907ZM8.33816 20.4324C8.05528 20.7153 7.89636 21.099 7.89636 21.499H8.89636C8.89636 21.3642 8.94992 21.2349 9.04526 21.1396L8.33816 20.4324ZM7.89636 21.499C7.89636 21.8991 8.05528 22.2827 8.33816 22.5656L9.04526 21.8585C8.94992 21.7632 8.89636 21.6339 8.89636 21.499H7.89636ZM8.33822 22.5657L12.8096 27.0353L13.5165 26.3281L9.0452 21.8584L8.33822 22.5657ZM12.9725 26.2194C11.2151 26.9437 9.53563 26.8575 8.11643 25.9957L7.59738 26.8504C9.32592 27.9001 11.3451 27.9717 13.3536 27.144L12.9725 26.2194ZM33.0251 24.2786C30.7141 25.6771 27.9716 25.736 25.1546 24.4055L24.7275 25.3097C27.7994 26.7607 30.9022 26.7322 33.5429 25.1342L33.0251 24.2786ZM25.2945 25.2111L34.6605 15.8469L33.9534 15.1397L24.5875 24.504L25.2945 25.2111ZM34.6605 15.8469C34.8006 15.7068 34.9117 15.5405 34.9875 15.3575L34.0636 14.9748C34.038 15.0365 34.0006 15.0925 33.9534 15.1397L34.6605 15.8469ZM34.9875 15.3575C35.0633 15.1745 35.1023 14.9784 35.1023 14.7803L34.1023 14.7803C34.1023 14.847 34.0891 14.9131 34.0636 14.9748L34.9875 15.3575ZM35.1023 14.7803C35.1023 14.5822 35.0633 14.3861 34.9875 14.203L34.0636 14.5857C34.0891 14.6474 34.1023 14.7135 34.1023 14.7803L35.1023 14.7803ZM34.9875 14.203C34.9117 14.02 34.8006 13.8538 34.6605 13.7137L33.9534 14.4208C34.0006 14.468 34.038 14.5241 34.0636 14.5857L34.9875 14.203ZM34.6605 13.7137C34.5204 13.5736 34.3542 13.4625 34.1711 13.3867L33.7885 14.3106C33.8501 14.3361 33.9062 14.3736 33.9534 14.4208L34.6605 13.7137ZM34.1711 13.3867C33.9881 13.3109 33.792 13.2719 33.5939 13.2719L33.5939 14.2719C33.6607 14.2719 33.7268 14.2851 33.7885 14.3106L34.1711 13.3867ZM33.5939 13.2719C33.3958 13.2719 33.1997 13.3109 33.0167 13.3867L33.3994 14.3106C33.461 14.2851 33.5272 14.2719 33.5939 14.2719V13.2719ZM33.0167 13.3867C32.8337 13.4625 32.6674 13.5736 32.5273 13.7137L33.2344 14.4208C33.2816 14.3736 33.3377 14.3361 33.3994 14.3106L33.0167 13.3867ZM32.5273 13.7137L23.1614 23.0796L23.8685 23.7867L33.2344 14.4208L32.5273 13.7137ZM23.9671 23.2196C22.6367 20.403 22.6985 17.6602 24.0941 15.3504L23.2382 14.8333C21.6439 17.4719 21.6117 20.5744 23.0628 23.6467L23.9671 23.2196ZM24.0939 15.3507C26.3929 11.5506 31.9592 9.34875 39.271 9.58671L39.3035 8.58724C31.8542 8.34481 25.8171 10.5706 23.2383 14.833L24.0939 15.3507ZM38.7875 9.10325C39.0254 16.4081 36.822 21.978 33.0249 24.2788L33.5431 25.134C37.8019 22.5536 40.0294 16.5135 39.787 9.0707L38.7875 9.10325Z" fill="#0A612B" mask="url(#path-1-outside-1_276_1613)"/>
</svg>
