<svg width="43" height="43" viewBox="0 0 43 43" fill="none" xmlns="http://www.w3.org/2000/svg">
<path d="M41.507 8.0474L41.5071 8.04768C42.0133 16.6539 39.4169 23.6405 34.4567 26.6419C32.8592 27.6129 31.0244 28.1236 29.1549 28.1176M41.507 8.0474L1.47479 14.7514C1.10624 21.0224 3.01472 26.1401 6.68232 28.3617C7.87857 29.0927 9.25372 29.4785 10.6556 29.4764L10.6578 29.4764C12.0402 29.4621 13.4007 29.1361 14.6382 28.5235L18.8978 32.7702V37.6249C18.8978 37.9585 19.0303 38.2784 19.2662 38.5143C19.5021 38.7502 19.822 38.8827 20.1556 38.8827C20.4892 38.8827 20.8091 38.7502 21.045 38.5143C21.2809 38.2784 21.4134 37.9585 21.4134 37.6249L21.4134 32.6715L21.4134 32.6707C21.407 30.4879 22.1592 28.3728 23.5377 26.6856C25.3958 27.6364 27.3052 28.1175 29.1549 28.1176M41.507 8.0474C41.4886 7.74039 41.3584 7.45077 41.1409 7.2333C40.9234 7.01582 40.6338 6.88556 40.3268 6.86715L40.3265 6.86713M41.507 8.0474L40.3265 6.86713M29.1549 28.1176C29.1548 28.1176 29.1547 28.1176 29.1545 28.1176L29.1553 27.8676V28.1176C29.1552 28.1176 29.1551 28.1176 29.1549 28.1176ZM40.3265 6.86713C31.7201 6.36087 24.7353 8.95741 21.7306 13.9176L21.7306 13.9176M40.3265 6.86713L21.7306 13.9176M21.7306 13.9176C19.7511 17.1872 19.7765 21.1615 21.733 24.9309C20.5798 26.29 19.7472 27.8898 19.2953 29.6115L16.4112 26.726C17.7322 24.0045 17.7041 21.1484 16.2676 18.7769C14.0461 15.1091 8.92827 13.1971 2.65523 13.5691L2.65504 13.5691M21.7306 13.9176L2.65504 13.5691M2.65504 13.5691C2.34769 13.5876 2.0578 13.7181 1.84027 13.936M2.65504 13.5691L1.84027 13.936M1.84027 13.936C1.62278 14.1539 1.49274 14.444 1.4748 14.7513L1.84027 13.936ZM7.98667 26.2093L7.98634 26.2091C5.40355 24.6462 3.89199 20.9222 3.94093 16.0349C8.8277 15.9797 12.5468 17.4928 14.1098 20.0756L14.1099 20.0758C14.9583 21.4753 15.0869 23.1089 14.4869 24.8031L10.2946 20.6093L10.2945 20.6092C10.0585 20.3732 9.73848 20.2407 9.40474 20.2407C9.07099 20.2407 8.75092 20.3732 8.51493 20.6092C8.27894 20.8452 8.14636 21.1653 8.14636 21.499C8.14636 21.8328 8.27894 22.1528 8.51493 22.3888L8.51497 22.3889L12.7139 26.5862C11.0195 27.1865 9.386 27.0591 7.98667 26.2093ZM34.4837 15.6701L34.3069 15.4933L34.4837 15.6701C34.6006 15.5532 34.6933 15.4145 34.7565 15.2618C34.8197 15.1092 34.8523 14.9455 34.8523 14.7803C34.8523 14.615 34.8197 14.4514 34.7565 14.2987C34.6933 14.146 34.6006 14.0073 34.4837 13.8905C34.3669 13.7736 34.2281 13.6809 34.0755 13.6177C33.9228 13.5545 33.7592 13.5219 33.5939 13.5219C33.4287 13.5219 33.265 13.5545 33.1124 13.6177C32.9597 13.6809 32.821 13.7736 32.7041 13.8905L23.5933 23.0013C22.3865 20.2332 22.4893 17.5231 23.88 15.2213C26.2237 11.3475 31.8118 9.14514 39.0442 9.33002C39.229 16.5557 37.0251 22.1472 33.1546 24.4925C30.8513 25.8864 28.1412 25.9863 25.373 24.7792L34.4837 15.6701Z" fill="#0A612B" stroke="#0A612B" stroke-width="0.5"/>
</svg>
