<svg width="116" height="117" viewBox="0 0 116 117" fill="none" xmlns="http://www.w3.org/2000/svg">
<path d="M53.1673 4.87646V9.7098H33.834C29.9883 9.7098 26.3002 11.2375 23.5809 13.9568C20.8617 16.676 19.334 20.3642 19.334 24.2098V38.7098C19.334 45.1192 21.8801 51.2661 26.4122 55.7982C30.9444 60.3303 37.0913 62.8765 43.5007 62.8765H72.5007C78.9101 62.8765 85.0569 60.3303 89.5891 55.7982C94.1212 51.2661 96.6673 45.1192 96.6673 38.7098V24.2098C96.6673 20.3642 95.1396 16.676 92.4204 13.9568C89.7011 11.2375 86.013 9.7098 82.1673 9.7098H62.834V4.87646H53.1673ZM29.0007 24.2098C29.0007 22.9279 29.5099 21.6985 30.4163 20.7921C31.3227 19.8857 32.5521 19.3765 33.834 19.3765H82.1673C83.4492 19.3765 84.6786 19.8857 85.585 20.7921C86.4914 21.6985 87.0007 22.9279 87.0007 24.2098V38.7098C87.0007 42.5554 85.473 46.2436 82.7537 48.9628C80.0344 51.6821 76.3463 53.2098 72.5007 53.2098H43.5007C39.655 53.2098 35.9669 51.6821 33.2476 48.9628C30.5283 46.2436 29.0007 42.5554 29.0007 38.7098V24.2098ZM45.9173 43.5431C47.8401 43.5431 49.6842 42.7793 51.0438 41.4197C52.4035 40.06 53.1673 38.216 53.1673 36.2931C53.1673 34.3703 52.4035 32.5262 51.0438 31.1666C49.6842 29.807 47.8401 29.0431 45.9173 29.0431C43.9945 29.0431 42.1504 29.807 40.7908 31.1666C39.4312 32.5262 38.6673 34.3703 38.6673 36.2931C38.6673 38.216 39.4312 40.06 40.7908 41.4197C42.1504 42.7793 43.9945 43.5431 45.9173 43.5431ZM70.084 43.5431C72.0068 43.5431 73.8509 42.7793 75.2105 41.4197C76.5701 40.06 77.334 38.216 77.334 36.2931C77.334 34.3703 76.5701 32.5262 75.2105 31.1666C73.8509 29.807 72.0068 29.0431 70.084 29.0431C68.1612 29.0431 66.3171 29.807 64.9575 31.1666C63.5978 32.5262 62.834 34.3703 62.834 36.2931C62.834 38.216 63.5978 40.06 64.9575 41.4197C66.3171 42.7793 68.1612 43.5431 70.084 43.5431ZM29.0007 106.376C29.0007 98.6852 32.056 91.3089 37.4946 85.8704C42.9331 80.4318 50.3094 77.3765 58.0007 77.3765C65.6919 77.3765 73.0682 80.4318 78.5068 85.8704C83.9453 91.3089 87.0007 98.6852 87.0007 106.376H96.6673C96.6673 96.1214 92.5935 86.2864 85.3421 79.035C78.0907 71.7836 68.2557 67.7098 58.0007 67.7098C47.7456 67.7098 37.9106 71.7836 30.6592 79.035C23.4078 86.2864 19.334 96.1214 19.334 106.376H29.0007Z" fill="#051F20"/>
</svg>
