<svg width="24" height="24" viewBox="0 0 24 24" fill="none" xmlns="http://www.w3.org/2000/svg">
<path d="M20.4521 0.76416C22.0335 0.76416 23.3153 2.04608 23.3154 3.62744V20.8081C23.3154 22.3895 22.0336 23.6714 20.4521 23.6714H3.27148C1.69012 23.6713 0.408203 22.3895 0.408203 20.8081V3.62744C0.408288 2.04613 1.69018 0.764244 3.27148 0.76416H20.4521ZM18.4824 6.46826C18.0894 6.29073 17.4897 6.09794 15.917 7.20752C14.2757 8.36785 12.5103 10.7181 11.8623 11.978C11.2137 10.7174 9.44805 8.36777 7.80664 7.20947C6.2339 6.09989 5.63422 6.29027 5.24121 6.46924C4.78612 6.67339 4.70312 7.37357 4.70312 7.78369C4.70327 8.19675 4.92849 11.1541 5.0752 11.6489C5.56196 13.281 7.29035 13.8325 8.88379 13.6558C6.55023 14.0015 4.47659 14.8511 7.19434 17.8774C10.185 20.9734 11.2939 17.2145 11.8623 15.3081C12.4307 17.2145 13.0847 20.8378 16.4746 17.8774C19.0201 15.3076 17.1744 14.0016 14.8408 13.6558C16.4335 13.8325 18.1624 13.281 18.6484 11.6489C18.7952 11.1548 19.0205 8.19458 19.0205 7.78369C19.0205 7.37208 18.9374 6.67447 18.4824 6.46826Z" fill="#80A942"/>
</svg>
