<svg width="24" height="24" viewBox="0 0 24 24" fill="none" xmlns="http://www.w3.org/2000/svg">
<path d="M20.9248 0.76416C22.2818 0.76416 23.3818 1.86422 23.3818 3.22119V21.2144C23.3818 22.5713 22.2818 23.6714 20.9248 23.6714H2.93164C1.57467 23.6714 0.474609 22.5713 0.474609 21.2144V3.22119C0.474609 1.86422 1.57467 0.76416 2.93164 0.76416H20.9248ZM11.9297 6.05029C8.52385 6.05051 5.76292 8.81145 5.7627 12.2173L5.77051 12.5347C5.93018 15.6883 8.45882 18.2174 11.6123 18.3774L11.9297 18.3853C15.2294 18.3851 17.9249 15.7934 18.0898 12.5347L18.0977 12.2173C18.0974 8.91769 15.5057 6.22319 12.2471 6.05811L11.9297 6.05029ZM11.9297 7.79053C14.3744 7.79066 16.3572 9.77258 16.3574 12.2173C16.3574 14.6622 14.3745 16.6449 11.9297 16.645C9.48491 16.6448 7.50295 14.6621 7.50293 12.2173C7.50315 9.77264 9.48504 7.79075 11.9297 7.79053ZM17.6562 4.28857C16.9264 4.28857 16.3341 4.8801 16.334 5.60986C16.334 6.33976 16.9264 6.93213 17.6562 6.93213C18.386 6.93201 18.9775 6.33968 18.9775 5.60986C18.9774 4.88017 18.3859 4.2887 17.6562 4.28857Z" fill="#80A942"/>
</svg>
