<svg width="24" height="24" viewBox="0 0 24 24" fill="none" xmlns="http://www.w3.org/2000/svg">
<path d="M20.704 0.76416C21.3791 0.76416 22.0265 1.03232 22.5038 1.50965C22.9811 1.98699 23.2493 2.63439 23.2493 3.30944V21.1264C23.2493 21.8014 22.9811 22.4488 22.5038 22.9262C22.0265 23.4035 21.3791 23.6716 20.704 23.6716H2.88707C2.21202 23.6716 1.56462 23.4035 1.08729 22.9262C0.609959 22.4488 0.341797 21.8014 0.341797 21.1264V3.30944C0.341797 2.63439 0.609959 1.98699 1.08729 1.50965C1.56462 1.03232 2.21202 0.76416 2.88707 0.76416H20.704ZM20.0677 20.4901V13.7451C20.0677 12.6447 19.6306 11.5895 18.8525 10.8114C18.0745 10.0334 17.0192 9.59627 15.9189 9.59627C14.8371 9.59627 13.5772 10.258 12.9664 11.2507V9.83807H9.41571V20.4901H12.9664V14.2159C12.9664 13.236 13.7554 12.4343 14.7353 12.4343C15.2079 12.4343 15.6611 12.622 15.9952 12.9561C16.3293 13.2902 16.517 13.7434 16.517 14.2159V20.4901H20.0677ZM5.27963 7.84003C5.84667 7.84003 6.39049 7.61477 6.79145 7.21381C7.19241 6.81286 7.41767 6.26904 7.41767 5.702C7.41767 4.51844 6.46319 3.55124 5.27963 3.55124C4.70922 3.55124 4.16216 3.77783 3.75882 4.18118C3.35547 4.58453 3.12887 5.13158 3.12887 5.702C3.12887 6.88555 4.09608 7.84003 5.27963 7.84003ZM7.0486 20.4901V9.83807H3.52339V20.4901H7.0486Z" fill="#80A942"/>
</svg>
