<svg width="24" height="24" viewBox="0 0 24 24" fill="none" xmlns="http://www.w3.org/2000/svg">
<path d="M20.583 0.76416C22.1644 0.76416 23.4462 2.04608 23.4463 3.62744V20.8081C23.4463 22.3895 22.1644 23.6714 20.583 23.6714H3.40234C1.82098 23.6713 0.539062 22.3895 0.539062 20.8081V3.62744C0.539147 2.04613 1.82103 0.764244 3.40234 0.76416H20.583ZM11.9922 4.55811C7.76235 4.55844 4.33334 7.98745 4.33301 12.2173C4.33301 16.4474 7.76214 19.8771 11.9922 19.8774C16.2225 19.8774 19.6523 16.4476 19.6523 12.2173C19.652 7.98724 16.2223 4.55811 11.9922 4.55811ZM8.33008 12.7192C8.45499 14.6105 9.17433 16.6685 10.8213 18.77C7.86395 18.2448 5.58272 15.7693 5.35547 12.7192H8.33008ZM18.6289 12.7192C18.4016 15.7697 16.1209 18.2452 13.1631 18.77C14.8104 16.6683 15.5294 14.6107 15.6543 12.7192H18.6289ZM14.6484 12.7192C14.5147 14.5223 13.772 16.5288 11.9922 18.6177C10.2127 16.5291 9.47062 14.5221 9.33691 12.7192H14.6484ZM10.7031 5.68604C9.71492 6.88167 8.77165 8.57202 8.4375 10.5786C8.37592 10.9485 8.33493 11.3282 8.31836 11.7163H5.35547C5.57969 8.70687 7.80319 6.25535 10.7031 5.68604ZM11.9922 5.75342C13.0464 6.82139 14.2001 8.58463 14.5596 10.7427C14.6121 11.0579 14.6462 11.3832 14.6621 11.7163H9.32324C9.33918 11.3831 9.37329 11.0579 9.42578 10.7427C9.7852 8.58487 10.9381 6.82143 11.9922 5.75342ZM13.2812 5.68604C16.1816 6.255 18.4046 8.70659 18.6289 11.7163H15.666C15.6494 11.3283 15.6094 10.9485 15.5479 10.5786C15.2137 8.57184 14.2696 6.88168 13.2812 5.68604Z" fill="#80A942"/>
</svg>
