<svg width="24" height="24" viewBox="0 0 24 24" fill="none" xmlns="http://www.w3.org/2000/svg">
<path d="M9 22L6 15L3 22H9Z" stroke="#FBFFFB" stroke-width="1.5" stroke-linecap="round" stroke-linejoin="round"/>
<path d="M18.193 13.3342C19.486 14.6272 20.133 15.2742 19.979 16.2722C19.9694 16.3298 19.958 16.3872 19.945 16.4442C19.705 17.4242 19.045 17.6982 17.729 18.2442C15.9147 18.9961 13.918 19.193 11.9917 18.81C10.0654 18.4269 8.29598 17.4811 6.90731 16.0922C5.51864 14.7033 4.57311 12.9338 4.19036 11.0074C3.8076 9.08104 4.00481 7.08442 4.75704 5.27016C5.30204 3.95316 5.57504 3.29516 6.55704 3.05416C6.60204 3.04416 6.68204 3.02716 6.72704 3.02016C7.72704 2.86716 8.37304 3.51316 9.66604 4.80616L18.193 13.3342Z" stroke="#FBFFFB" stroke-width="1.5" stroke-linecap="round" stroke-linejoin="round"/>
<path d="M19 6C20.1046 6 21 5.10457 21 4C21 2.89543 20.1046 2 19 2C17.8954 2 17 2.89543 17 4C17 5.10457 17.8954 6 19 6Z" stroke="#FBFFFB" stroke-width="1.5" stroke-linecap="round" stroke-linejoin="round"/>
<path d="M12.5 7.1333L17.713 5.5293L15.877 10.5293" stroke="#FBFFFB" stroke-width="1.5" stroke-linecap="round" stroke-linejoin="round"/>
</svg>
