<svg width="24" height="24" viewBox="0 0 24 24" fill="none" xmlns="http://www.w3.org/2000/svg">
<path fill-rule="evenodd" clip-rule="evenodd" d="M3.69156 0.685059C2.11013 0.685059 0.828125 1.96706 0.828125 3.5485V20.7291C0.828125 22.3105 2.11013 23.5925 3.69156 23.5925H20.8722C22.4536 23.5925 23.7356 22.3105 23.7356 20.7291V3.54849C23.7356 1.96706 22.4536 0.685059 20.8722 0.685059H3.69156ZM8.60761 11.6376H5.64302C5.86703 8.62739 8.09273 6.1746 10.9936 5.6058C10.005 6.80155 9.06073 8.49202 8.72649 10.4994C8.66486 10.8695 8.62417 11.2493 8.60761 11.6376ZM9.71508 10.664C10.0746 8.50508 11.2274 6.74012 12.2819 5.67216C13.3365 6.74012 14.4893 8.50508 14.8488 10.664C14.9013 10.9794 14.9371 11.3043 14.953 11.6376H9.61086C9.62679 11.3043 9.66256 10.9794 9.71508 10.664ZM12.2819 18.5405C10.5014 16.4511 9.75762 14.4433 9.62401 12.6398H14.9399C14.8063 14.4433 14.0625 16.4511 12.2819 18.5405ZM8.61927 12.6398C8.74416 14.5322 9.4641 16.5912 11.1129 18.6939C8.15397 18.1698 5.87009 15.6912 5.64302 12.6398H8.61927ZM15.9446 12.6398C15.8197 14.5322 15.0998 16.5912 13.4509 18.6939C16.4099 18.1698 18.6938 15.6912 18.9209 12.6398H15.9446ZM15.9563 11.6376H18.9209C18.6968 8.62739 16.4711 6.1746 13.5703 5.6058C14.5589 6.80155 15.5031 8.49202 15.8374 10.4994C15.899 10.8695 15.9397 11.2493 15.9563 11.6376ZM12.2819 4.47903C8.05161 4.47903 4.62225 7.90839 4.62225 12.1387C4.62225 16.3691 8.05161 19.7984 12.2819 19.7984C16.5123 19.7984 19.9416 16.3691 19.9416 12.1387C19.9416 7.90839 16.5123 4.47903 12.2819 4.47903Z" fill="#0A612B"/>
</svg>
