<svg width="24" height="24" viewBox="0 0 24 24" fill="none" xmlns="http://www.w3.org/2000/svg">
<path fill-rule="evenodd" clip-rule="evenodd" d="M0.761719 3.14207C0.761719 1.7851 1.86176 0.685059 3.21873 0.685059H21.2122C22.5692 0.685059 23.6692 1.7851 23.6692 3.14207V21.1355C23.6692 22.4925 22.5692 23.5925 21.2122 23.5925H3.21873C1.86176 23.5925 0.761719 22.4925 0.761719 21.1355V3.14207ZM12.217 16.5656C14.6619 16.5656 16.644 14.5835 16.644 12.1386C16.644 9.69359 14.6619 7.71154 12.217 7.71154C9.772 7.71154 7.78995 9.69359 7.78995 12.1386C7.78995 14.5835 9.772 16.5656 12.217 16.5656ZM12.217 18.306C15.6231 18.306 18.3844 15.5447 18.3844 12.1386C18.3844 8.7324 15.6231 5.97116 12.217 5.97116C8.81081 5.97116 6.04957 8.7324 6.04957 12.1386C6.04957 15.5447 8.81081 18.306 12.217 18.306ZM17.9437 6.85273C18.6736 6.85273 19.2652 6.26103 19.2652 5.53114C19.2652 4.80125 18.6736 4.20956 17.9437 4.20956C17.2138 4.20956 16.6221 4.80125 16.6221 5.53114C16.6221 6.26103 17.2138 6.85273 17.9437 6.85273Z" fill="#0A612B"/>
</svg>
