<svg width="15" height="11" viewBox="0 0 15 11" fill="none" xmlns="http://www.w3.org/2000/svg">
<path d="M5.53221 9.4511C5.36578 9.60648 5.23698 9.71049 5.10536 9.78648C4.46104 10.1585 3.66722 10.1585 3.0229 9.78648C2.78547 9.6494 2.55724 9.42117 2.10077 8.9647C1.64431 8.50824 1.41608 8.28 1.279 8.04257C0.907001 7.39826 0.907001 6.60444 1.279 5.96012C1.41608 5.72269 1.64431 5.49446 2.10077 5.03799L4.06413 3.07464C4.5206 2.61817 4.74883 2.38994 4.98626 2.25286C5.63057 1.88087 6.4244 1.88087 7.06871 2.25286C7.30614 2.38994 7.53437 2.61817 7.99084 3.07464C8.4473 3.53111 8.67554 3.75934 8.81262 3.99677C9.18461 4.64108 9.18461 5.43491 8.81262 6.07922C8.73662 6.21085 8.63262 6.33964 8.47724 6.50607M6.52276 4.5516C6.36738 4.71802 6.26338 4.84682 6.18738 4.97844C5.81539 5.62276 5.81539 6.41658 6.18738 7.0609C6.32446 7.29833 6.55269 7.52656 7.00916 7.98303C7.46563 8.43949 7.69386 8.66772 7.93129 8.8048C8.5756 9.1768 9.36943 9.1768 10.0137 8.8048C10.2512 8.66772 10.4794 8.43949 10.9359 7.98303L12.8992 6.01967C13.3557 5.5632 13.5839 5.33497 13.721 5.09754C14.093 4.45323 14.093 3.6594 13.721 3.01509C13.5839 2.77766 13.3557 2.54943 12.8992 2.09296C12.4428 1.6365 12.2145 1.40826 11.9771 1.27118C11.3328 0.899189 10.539 0.899189 9.89464 1.27118C9.76302 1.34718 9.63422 1.45119 9.46779 1.60656" stroke="#FBFDFF" stroke-width="1.13042" stroke-linecap="round"/>
</svg>
