<svg width="22" height="22" viewBox="0 0 22 22" fill="none" xmlns="http://www.w3.org/2000/svg">
<g clip-path="url(#clip0_276_1620)">
<mask id="path-1-outside-1_276_1620" maskUnits="userSpaceOnUse" x="0" y="0" width="22" height="23" fill="black">
<rect fill="white" width="22" height="23"/>
<path d="M7.64292 1.85696H2.50001C2.10219 1.85696 1.72065 2.015 1.43934 2.2963C1.15804 2.57761 1 2.95914 1 3.35697V20.5C1 20.8978 1.15804 21.2793 1.43934 21.5607C1.72065 21.842 2.10219 22 2.50001 22H7.64292C7.8399 22 8.03496 21.9612 8.21695 21.8858C8.39894 21.8104 8.5643 21.6999 8.70359 21.5607C8.84288 21.4214 8.95337 21.256 9.02875 21.074C9.10413 20.892 9.14293 20.697 9.14293 20.5V3.35697C9.14293 3.15999 9.10413 2.96493 9.02875 2.78294C8.95337 2.60095 8.84288 2.43559 8.70359 2.2963C8.5643 2.15701 8.39894 2.04652 8.21695 1.97114C8.03496 1.89576 7.8399 1.85696 7.64292 1.85696ZM2.28573 6.57129H7.85721V17.2857H2.28573V6.57129ZM2.50001 3.14268H7.64292C7.69975 3.14268 7.75426 3.16526 7.79444 3.20545C7.83463 3.24563 7.85721 3.30014 7.85721 3.35697V5.28556H2.28573V3.35697C2.28573 3.30014 2.3083 3.24563 2.34849 3.20545C2.38868 3.16526 2.44318 3.14268 2.50001 3.14268ZM7.64292 20.7143H2.50001C2.44318 20.7143 2.38868 20.6917 2.34849 20.6515C2.3083 20.6113 2.28573 20.5568 2.28573 20.5V18.5714H7.85721V20.5C7.85721 20.5568 7.83463 20.6113 7.79444 20.6515C7.75426 20.6917 7.69975 20.7143 7.64292 20.7143ZM21.1109 19.1071L17.5548 2.19553C17.5147 2.00193 17.4366 1.81817 17.3252 1.65483C17.2138 1.49148 17.0712 1.35177 16.9056 1.24374C16.7401 1.1357 16.5547 1.06146 16.3604 1.0253C16.166 0.98914 15.9664 0.991764 15.773 1.03302L10.7576 2.11089C10.3694 2.19621 10.0306 2.43114 9.81455 2.76472C9.59852 3.09829 9.52274 3.5036 9.60365 3.89269L13.1598 20.8011C13.2002 20.9953 13.2788 21.1797 13.391 21.3433C13.5032 21.507 13.6467 21.6468 13.8133 21.7546C14.0544 21.9124 14.3363 21.9965 14.6244 21.9968C14.7325 21.9973 14.8403 21.9858 14.9458 21.9625L19.9612 20.8857C20.3479 20.7994 20.6852 20.5646 20.9003 20.2318C21.1153 19.8991 21.191 19.4951 21.1109 19.1071ZM12.2383 10.1799L17.6737 9.01202L19.1866 16.2078L13.7501 17.3725L12.2383 10.1799ZM11.528 6.79843L16.9644 5.62735L17.4091 7.74987L11.9737 8.91774L11.528 6.79843ZM11.0287 3.36983L16.043 2.29303C16.058 2.29145 16.073 2.29145 16.088 2.29303C16.1281 2.29315 16.1672 2.30507 16.2005 2.32732C16.2251 2.34299 16.2463 2.36352 16.2627 2.38766C16.2791 2.41179 16.2904 2.43902 16.2959 2.46768L16.6976 4.37698L11.2633 5.53628L10.8626 3.63126C10.8501 3.57432 10.8605 3.51474 10.8916 3.46541C10.9226 3.41608 10.9719 3.38097 11.0287 3.36769V3.36983ZM19.687 19.6343L14.6716 20.7143C14.6447 20.7202 14.6169 20.7207 14.5899 20.7158C14.5628 20.7108 14.537 20.7005 14.5141 20.6853C14.4894 20.6697 14.4683 20.6491 14.4519 20.625C14.4355 20.6009 14.4242 20.5736 14.4187 20.545L14.0169 18.6357L19.4512 17.4678L19.8573 19.3675C19.8636 19.396 19.8642 19.4256 19.859 19.4544C19.8539 19.4832 19.843 19.5107 19.8272 19.5353C19.8114 19.5599 19.7908 19.5811 19.7668 19.5977C19.7427 19.6143 19.7156 19.626 19.687 19.6321V19.6343Z"/>
</mask>
<path d="M7.64292 1.85696H2.50001C2.10219 1.85696 1.72065 2.015 1.43934 2.2963C1.15804 2.57761 1 2.95914 1 3.35697V20.5C1 20.8978 1.15804 21.2793 1.43934 21.5607C1.72065 21.842 2.10219 22 2.50001 22H7.64292C7.8399 22 8.03496 21.9612 8.21695 21.8858C8.39894 21.8104 8.5643 21.6999 8.70359 21.5607C8.84288 21.4214 8.95337 21.256 9.02875 21.074C9.10413 20.892 9.14293 20.697 9.14293 20.5V3.35697C9.14293 3.15999 9.10413 2.96493 9.02875 2.78294C8.95337 2.60095 8.84288 2.43559 8.70359 2.2963C8.5643 2.15701 8.39894 2.04652 8.21695 1.97114C8.03496 1.89576 7.8399 1.85696 7.64292 1.85696ZM2.28573 6.57129H7.85721V17.2857H2.28573V6.57129ZM2.50001 3.14268H7.64292C7.69975 3.14268 7.75426 3.16526 7.79444 3.20545C7.83463 3.24563 7.85721 3.30014 7.85721 3.35697V5.28556H2.28573V3.35697C2.28573 3.30014 2.3083 3.24563 2.34849 3.20545C2.38868 3.16526 2.44318 3.14268 2.50001 3.14268ZM7.64292 20.7143H2.50001C2.44318 20.7143 2.38868 20.6917 2.34849 20.6515C2.3083 20.6113 2.28573 20.5568 2.28573 20.5V18.5714H7.85721V20.5C7.85721 20.5568 7.83463 20.6113 7.79444 20.6515C7.75426 20.6917 7.69975 20.7143 7.64292 20.7143ZM21.1109 19.1071L17.5548 2.19553C17.5147 2.00193 17.4366 1.81817 17.3252 1.65483C17.2138 1.49148 17.0712 1.35177 16.9056 1.24374C16.7401 1.1357 16.5547 1.06146 16.3604 1.0253C16.166 0.98914 15.9664 0.991764 15.773 1.03302L10.7576 2.11089C10.3694 2.19621 10.0306 2.43114 9.81455 2.76472C9.59852 3.09829 9.52274 3.5036 9.60365 3.89269L13.1598 20.8011C13.2002 20.9953 13.2788 21.1797 13.391 21.3433C13.5032 21.507 13.6467 21.6468 13.8133 21.7546C14.0544 21.9124 14.3363 21.9965 14.6244 21.9968C14.7325 21.9973 14.8403 21.9858 14.9458 21.9625L19.9612 20.8857C20.3479 20.7994 20.6852 20.5646 20.9003 20.2318C21.1153 19.8991 21.191 19.4951 21.1109 19.1071ZM12.2383 10.1799L17.6737 9.01202L19.1866 16.2078L13.7501 17.3725L12.2383 10.1799ZM11.528 6.79843L16.9644 5.62735L17.4091 7.74987L11.9737 8.91774L11.528 6.79843ZM11.0287 3.36983L16.043 2.29303C16.058 2.29145 16.073 2.29145 16.088 2.29303C16.1281 2.29315 16.1672 2.30507 16.2005 2.32732C16.2251 2.34299 16.2463 2.36352 16.2627 2.38766C16.2791 2.41179 16.2904 2.43902 16.2959 2.46768L16.6976 4.37698L11.2633 5.53628L10.8626 3.63126C10.8501 3.57432 10.8605 3.51474 10.8916 3.46541C10.9226 3.41608 10.9719 3.38097 11.0287 3.36769V3.36983ZM19.687 19.6343L14.6716 20.7143C14.6447 20.7202 14.6169 20.7207 14.5899 20.7158C14.5628 20.7108 14.537 20.7005 14.5141 20.6853C14.4894 20.6697 14.4683 20.6491 14.4519 20.625C14.4355 20.6009 14.4242 20.5736 14.4187 20.545L14.0169 18.6357L19.4512 17.4678L19.8573 19.3675C19.8636 19.396 19.8642 19.4256 19.859 19.4544C19.8539 19.4832 19.843 19.5107 19.8272 19.5353C19.8114 19.5599 19.7908 19.5811 19.7668 19.5977C19.7427 19.6143 19.7156 19.626 19.687 19.6321V19.6343Z" fill="#0A612B"/>
<path d="M7.64292 1.85696L7.64292 2.04787L7.64292 1.85696ZM1 3.35697H0.809091H1ZM1 20.5H0.809091H1ZM9.14293 20.5H8.95202H9.14293ZM9.14293 3.35697H8.95202H9.14293ZM2.28573 6.57129V6.38038H2.09482V6.57129H2.28573ZM7.85721 6.57129H8.04811V6.38038H7.85721V6.57129ZM7.85721 17.2857V17.4766H8.04811V17.2857H7.85721ZM2.28573 17.2857H2.09482V17.4766H2.28573V17.2857ZM7.85721 5.28556V5.47647H8.04811V5.28556H7.85721ZM2.28573 5.28556H2.09482V5.47647H2.28573V5.28556ZM2.28573 18.5714V18.3805H2.09482V18.5714H2.28573ZM7.85721 18.5714H8.04811V18.3805H7.85721V18.5714ZM21.1109 19.1071L21.2979 19.0685L21.2977 19.0678L21.1109 19.1071ZM17.5548 2.19553L17.3679 2.23429L17.368 2.23482L17.5548 2.19553ZM15.773 1.03302L15.7332 0.846316L15.7329 0.846375L15.773 1.03302ZM10.7576 2.11089L10.7175 1.92424L10.7166 1.92443L10.7576 2.11089ZM9.60365 3.89269L9.41674 3.93156L9.41683 3.93198L9.60365 3.89269ZM13.1598 20.8011L13.3467 20.7621L13.3466 20.7618L13.1598 20.8011ZM13.8133 21.7546L13.9178 21.5949L13.9171 21.5944L13.8133 21.7546ZM14.6244 21.9968L14.6253 21.8059L14.6246 21.8059L14.6244 21.9968ZM14.9458 21.9625L14.9058 21.7758L14.9047 21.7761L14.9458 21.9625ZM19.9612 20.8857L20.0013 21.0724L20.0028 21.072L19.9612 20.8857ZM12.2383 10.1799L12.1982 9.99324L12.0124 10.0332L12.0515 10.2192L12.2383 10.1799ZM17.6737 9.01202L17.8605 8.97274L17.8211 8.78509L17.6336 8.82537L17.6737 9.01202ZM19.1866 16.2078L19.2266 16.3945L19.4125 16.3546L19.3734 16.1685L19.1866 16.2078ZM13.7501 17.3725L13.5633 17.4117L13.6027 17.5993L13.7901 17.5591L13.7501 17.3725ZM11.528 6.79843L11.4878 6.6118L11.302 6.65181L11.3411 6.83772L11.528 6.79843ZM16.9644 5.62735L17.1513 5.58821L17.1119 5.40029L16.9242 5.44072L16.9644 5.62735ZM17.4091 7.74987L17.4492 7.93652L17.6349 7.89662L17.5959 7.71073L17.4091 7.74987ZM11.9737 8.91774L11.7868 8.95703L11.8263 9.14467L12.0138 9.10439L11.9737 8.91774ZM11.0287 3.36983H10.8378V3.60609L11.0687 3.55648L11.0287 3.36983ZM16.043 2.29303L16.0229 2.10318L16.0128 2.10425L16.0029 2.10638L16.043 2.29303ZM16.088 2.29303L16.068 2.48289L16.0777 2.48392L16.0875 2.48394L16.088 2.29303ZM16.2005 2.32732L16.0944 2.48611L16.098 2.48836L16.2005 2.32732ZM16.2959 2.46768L16.1083 2.50368L16.109 2.50699L16.2959 2.46768ZM16.6976 4.37698L16.7375 4.56369L16.9237 4.52397L16.8845 4.33767L16.6976 4.37698ZM11.2633 5.53628L11.0765 5.57558L11.1159 5.76293L11.3031 5.72299L11.2633 5.53628ZM10.8626 3.63126L11.0494 3.59196L11.049 3.59027L10.8626 3.63126ZM11.0287 3.36769H11.2196V3.12694L10.9852 3.1818L11.0287 3.36769ZM19.687 19.6343L19.7271 19.8209L19.8779 19.7884V19.6343H19.687ZM14.6716 20.7143L14.6314 20.5276L14.6302 20.5279L14.6716 20.7143ZM14.5141 20.6853L14.6189 20.5258L14.6166 20.5243L14.5141 20.6853ZM14.4187 20.545L14.6062 20.509L14.6055 20.5057L14.4187 20.545ZM14.0169 18.6357L13.9768 18.449L13.7909 18.489L13.8301 18.675L14.0169 18.6357ZM19.4512 17.4678L19.6379 17.4279L19.598 17.241L19.4111 17.2812L19.4512 17.4678ZM19.8573 19.3675L19.6706 19.4074L19.6709 19.4086L19.8573 19.3675ZM19.687 19.6321L19.6472 19.4454L19.496 19.4776V19.6321H19.687ZM7.64292 1.66605H2.50001V2.04787H7.64292V1.66605ZM2.50001 1.66605C2.05155 1.66605 1.62146 1.8442 1.30435 2.16131L1.57434 2.4313C1.81984 2.18579 2.15282 2.04787 2.50001 2.04787V1.66605ZM1.30435 2.16131C0.987241 2.47842 0.809091 2.90851 0.809091 3.35697L1.19091 3.35697C1.19091 3.00978 1.32883 2.6768 1.57434 2.4313L1.30435 2.16131ZM0.809091 3.35697V20.5H1.19091V3.35697H0.809091ZM0.809091 20.5C0.809091 20.9484 0.987241 21.3785 1.30435 21.6956L1.57434 21.4257C1.32883 21.1802 1.19091 20.8472 1.19091 20.5H0.809091ZM1.30435 21.6956C1.62146 22.0128 2.05155 22.1909 2.50001 22.1909V21.8091C2.15282 21.8091 1.81984 21.6712 1.57434 21.4257L1.30435 21.6956ZM2.50001 22.1909H7.64292V21.8091H2.50001V22.1909ZM7.64292 22.1909C7.86497 22.1909 8.08485 22.1472 8.29001 22.0622L8.14389 21.7094C7.98506 21.7752 7.81483 21.8091 7.64292 21.8091V22.1909ZM8.29001 22.0622C8.49516 21.9772 8.68156 21.8527 8.83858 21.6956L8.56859 21.4257C8.44703 21.5472 8.30272 21.6437 8.14389 21.7094L8.29001 22.0622ZM8.83858 21.6956C8.9956 21.5386 9.12015 21.3522 9.20513 21.1471L8.85237 21.001C8.78658 21.1598 8.69016 21.3041 8.56859 21.4257L8.83858 21.6956ZM9.20513 21.1471C9.2901 20.9419 9.33384 20.722 9.33384 20.5H8.95202C8.95202 20.6719 8.91816 20.8421 8.85237 21.001L9.20513 21.1471ZM9.33384 20.5V3.35697H8.95202V20.5H9.33384ZM9.33384 3.35697C9.33384 3.13492 9.2901 2.91504 9.20513 2.70988L8.85237 2.856C8.91816 3.01483 8.95202 3.18506 8.95202 3.35697L9.33384 3.35697ZM9.20513 2.70988C9.12015 2.50473 8.9956 2.31833 8.83858 2.16131L8.56859 2.4313C8.69016 2.55286 8.78658 2.69717 8.85237 2.856L9.20513 2.70988ZM8.83858 2.16131C8.68156 2.00429 8.49516 1.87974 8.29001 1.79476L8.14389 2.14752C8.30272 2.21331 8.44703 2.30973 8.56859 2.4313L8.83858 2.16131ZM8.29001 1.79476C8.08485 1.70979 7.86497 1.66605 7.64292 1.66605L7.64292 2.04787C7.81483 2.04787 7.98506 2.08173 8.14389 2.14752L8.29001 1.79476ZM2.28573 6.7622H7.85721V6.38038H2.28573V6.7622ZM7.6663 6.57129V17.2857H8.04811V6.57129H7.6663ZM7.85721 17.0948H2.28573V17.4766H7.85721V17.0948ZM2.47664 17.2857V6.57129H2.09482V17.2857H2.47664ZM2.50001 3.33359H7.64292V2.95178H2.50001V3.33359ZM7.64292 3.33359C7.64912 3.33359 7.65507 3.33606 7.65945 3.34044L7.92944 3.07046C7.85345 2.99447 7.75038 2.95178 7.64292 2.95178V3.33359ZM7.65945 3.34044C7.66383 3.34483 7.6663 3.35077 7.6663 3.35697H8.04811C8.04811 3.24951 8.00542 3.14644 7.92944 3.07046L7.65945 3.34044ZM7.6663 3.35697V5.28556H8.04811V3.35697H7.6663ZM7.85721 5.09465H2.28573V5.47647H7.85721V5.09465ZM2.47664 5.28556V3.35697H2.09482V5.28556H2.47664ZM2.47664 3.35697C2.47664 3.35077 2.4791 3.34483 2.48348 3.34044L2.2135 3.07046C2.13751 3.14644 2.09482 3.24951 2.09482 3.35697H2.47664ZM2.48348 3.34044C2.48787 3.33606 2.49381 3.33359 2.50001 3.33359V2.95178C2.39255 2.95178 2.28949 2.99447 2.2135 3.07046L2.48348 3.34044ZM7.64292 20.5234H2.50001V20.9052H7.64292V20.5234ZM2.50001 20.5234C2.49381 20.5234 2.48787 20.5209 2.48348 20.5165L2.2135 20.7865C2.28949 20.8625 2.39255 20.9052 2.50001 20.9052V20.5234ZM2.48348 20.5165C2.4791 20.5121 2.47664 20.5062 2.47664 20.5H2.09482C2.09482 20.6075 2.13751 20.7105 2.2135 20.7865L2.48348 20.5165ZM2.47664 20.5V18.5714H2.09482V20.5H2.47664ZM2.28573 18.7623H7.85721V18.3805H2.28573V18.7623ZM7.6663 18.5714V20.5H8.04811V18.5714H7.6663ZM7.6663 20.5C7.6663 20.5062 7.66383 20.5121 7.65945 20.5165L7.92944 20.7865C8.00542 20.7105 8.04811 20.6075 8.04811 20.5H7.6663ZM7.65945 20.5165C7.65507 20.5209 7.64912 20.5234 7.64292 20.5234V20.9052C7.75038 20.9052 7.85345 20.8625 7.92944 20.7865L7.65945 20.5165ZM21.2977 19.0678L17.7416 2.15625L17.368 2.23482L20.9241 19.1464L21.2977 19.0678ZM17.7417 2.15678C17.6965 1.93854 17.6085 1.73139 17.483 1.54726L17.1675 1.7624C17.2647 1.90495 17.3328 2.06532 17.3679 2.23429L17.7417 2.15678ZM17.483 1.54726C17.3574 1.36313 17.1966 1.20564 17.01 1.08385L16.8013 1.40362C16.9458 1.49791 17.0703 1.61984 17.1675 1.7624L17.483 1.54726ZM17.01 1.08385C16.8233 0.96206 16.6144 0.878378 16.3953 0.837613L16.3254 1.21299C16.4951 1.24455 16.6568 1.30934 16.8013 1.40362L17.01 1.08385ZM16.3953 0.837613C16.1761 0.796849 15.9511 0.799806 15.7332 0.846317L15.8128 1.21973C15.9816 1.18372 16.1558 1.18143 16.3254 1.21299L16.3953 0.837613ZM15.7329 0.846375L10.7175 1.92424L10.7977 2.29754L15.8131 1.21967L15.7329 0.846375ZM10.7166 1.92443C10.2794 2.02054 9.89766 2.28518 9.65431 2.66094L9.97479 2.86849C10.1635 2.5771 10.4595 2.37188 10.7986 2.29735L10.7166 1.92443ZM9.65431 2.66094C9.41096 3.0367 9.3256 3.49326 9.41674 3.93156L9.79056 3.85383C9.71988 3.51393 9.78608 3.15988 9.97479 2.86849L9.65431 2.66094ZM9.41683 3.93198L12.9729 20.8404L13.3466 20.7618L9.79047 3.8534L9.41683 3.93198ZM12.9729 20.84C13.0184 21.059 13.107 21.2668 13.2335 21.4513L13.5485 21.2354C13.4505 21.0926 13.382 20.9317 13.3467 20.7621L12.9729 20.84ZM13.2335 21.4513C13.36 21.6358 13.5218 21.7934 13.7096 21.9149L13.9171 21.5944C13.7717 21.5003 13.6464 21.3783 13.5485 21.2354L13.2335 21.4513ZM13.7088 21.9144C13.981 22.0924 14.299 22.1874 14.6242 22.1877L14.6246 21.8059C14.3735 21.8057 14.1279 21.7323 13.9178 21.5949L13.7088 21.9144ZM14.6235 22.1877C14.7457 22.1883 14.8677 22.1753 14.987 22.1489L14.9047 21.7761C14.8129 21.7963 14.7193 21.8063 14.6253 21.8059L14.6235 22.1877ZM14.9859 22.1492L20.0013 21.0724L19.9212 20.699L14.9058 21.7758L14.9859 22.1492ZM20.0028 21.072C20.4384 20.9748 20.8183 20.7103 21.0606 20.3355L20.7399 20.1282C20.5521 20.4188 20.2574 20.624 19.9197 20.6994L20.0028 21.072ZM21.0606 20.3355C21.3029 19.9606 21.3881 19.5056 21.2979 19.0685L20.9239 19.1457C20.9939 19.4847 20.9278 19.8375 20.7399 20.1282L21.0606 20.3355ZM12.2784 10.3665L17.7138 9.19867L17.6336 8.82537L12.1982 9.99324L12.2784 10.3665ZM17.4869 9.0513L18.9998 16.2471L19.3734 16.1685L17.8605 8.97274L17.4869 9.0513ZM19.1466 16.0211L13.7101 17.1858L13.7901 17.5591L19.2266 16.3945L19.1466 16.0211ZM13.9369 17.3332L12.4251 10.1406L12.0515 10.2192L13.5633 17.4117L13.9369 17.3332ZM11.5682 6.98506L17.0046 5.81398L16.9242 5.44072L11.4878 6.6118L11.5682 6.98506ZM16.7776 5.66649L17.2222 7.78901L17.5959 7.71073L17.1513 5.58821L16.7776 5.66649ZM17.369 7.56322L11.9336 8.73109L12.0138 9.10439L17.4492 7.93652L17.369 7.56322ZM12.1605 8.87845L11.7148 6.75914L11.3411 6.83772L11.7868 8.95703L12.1605 8.87845ZM11.0687 3.55648L16.0831 2.47969L16.0029 2.10638L10.9886 3.18318L11.0687 3.55648ZM16.063 2.48289C16.0647 2.48272 16.0663 2.48272 16.068 2.48289L16.108 2.10318C16.0798 2.10019 16.0512 2.10019 16.0229 2.10318L16.063 2.48289ZM16.0875 2.48394C16.09 2.48395 16.0924 2.48469 16.0945 2.48608L16.3065 2.16857C16.242 2.12545 16.1661 2.10234 16.0885 2.10213L16.0875 2.48394ZM16.098 2.48836C16.1007 2.49007 16.103 2.49231 16.1047 2.49494L16.4206 2.28037C16.3896 2.23473 16.3496 2.19591 16.303 2.16628L16.098 2.48836ZM16.1047 2.49494C16.1065 2.49757 16.1078 2.50054 16.1084 2.50367L16.4833 2.43168C16.4729 2.3775 16.4516 2.32602 16.4206 2.28037L16.1047 2.49494ZM16.109 2.50699L16.5108 4.4163L16.8845 4.33767L16.4827 2.42837L16.109 2.50699ZM16.6578 4.19027L11.2235 5.34957L11.3031 5.72299L16.7375 4.56369L16.6578 4.19027ZM11.4501 5.49698L11.0494 3.59196L10.6758 3.67056L11.0765 5.57558L11.4501 5.49698ZM11.049 3.59027C11.0473 3.58234 11.0488 3.57405 11.0531 3.56718L10.73 3.36364C10.6722 3.45543 10.6528 3.56629 10.6761 3.67225L11.049 3.59027ZM11.0531 3.56718C11.0574 3.56031 11.0643 3.55542 11.0722 3.55357L10.9852 3.1818C10.8795 3.20652 10.7879 3.27185 10.73 3.36364L11.0531 3.56718ZM10.8378 3.36769V3.36983H11.2196V3.36769H10.8378ZM19.6468 19.4476L14.6314 20.5276L14.7117 20.9009L19.7271 19.8209L19.6468 19.4476ZM14.6302 20.5279C14.6283 20.5283 14.6263 20.5284 14.6244 20.528L14.5554 20.9035C14.6075 20.9131 14.6611 20.9121 14.7129 20.9007L14.6302 20.5279ZM14.6244 20.528C14.6224 20.5276 14.6206 20.5269 14.6189 20.5258L14.4092 20.8449C14.4535 20.874 14.5032 20.894 14.5554 20.9035L14.6244 20.528ZM14.6166 20.5243C14.6139 20.5226 14.6116 20.5204 14.6098 20.5177L14.294 20.7323C14.325 20.7779 14.365 20.8168 14.4115 20.8464L14.6166 20.5243ZM14.6098 20.5177C14.608 20.5151 14.6068 20.5121 14.6062 20.509L14.2312 20.581C14.2416 20.6352 14.263 20.6866 14.294 20.7323L14.6098 20.5177ZM14.6055 20.5057L14.2037 18.5964L13.8301 18.675L14.2319 20.5843L14.6055 20.5057ZM14.057 18.8223L19.4914 17.6545L19.4111 17.2812L13.9768 18.449L14.057 18.8223ZM19.2645 17.5077L19.6706 19.4074L20.044 19.3276L19.6379 17.4279L19.2645 17.5077ZM19.6709 19.4086C19.6718 19.4125 19.6718 19.4167 19.6711 19.4207L20.0469 19.4881C20.0565 19.4345 20.0555 19.3795 20.0438 19.3264L19.6709 19.4086ZM19.6711 19.4207C19.6704 19.4247 19.6689 19.4285 19.6667 19.4319L19.9877 19.6386C20.0172 19.5928 20.0373 19.5417 20.0469 19.4881L19.6711 19.4207ZM19.6667 19.4319C19.6645 19.4353 19.6616 19.4383 19.6583 19.4406L19.8753 19.7548C19.92 19.7239 19.9583 19.6844 19.9877 19.6386L19.6667 19.4319ZM19.6583 19.4406C19.6549 19.4429 19.6511 19.4446 19.6472 19.4454L19.7268 19.8188C19.78 19.8075 19.8305 19.7857 19.8753 19.7548L19.6583 19.4406ZM19.496 19.6321V19.6343H19.8779V19.6321H19.496Z" fill="#0A612B" mask="url(#path-1-outside-1_276_1620)"/>
</g>
<defs>
<clipPath id="clip0_276_1620">
<rect width="22" height="22" fill="white"/>
</clipPath>
</defs>
</svg>
