<svg width="71" height="24" viewBox="0 0 71 24" fill="none" xmlns="http://www.w3.org/2000/svg">
<g clip-path="url(#clip0_1041_2809)">
<path d="M70.4887 9.15667C70.1467 8.37951 69.6853 7.70276 69.108 7.12401C68.5312 6.54817 67.8545 6.09313 67.0763 5.76325C66.2982 5.43433 65.472 5.26842 64.6012 5.26842C63.7047 5.26842 62.8723 5.43433 62.1082 5.76325C61.7264 5.9277 61.3665 6.12224 61.0288 6.34782C60.6887 6.57534 60.3705 6.8344 60.0746 7.12401C59.8917 7.30351 59.7219 7.49319 59.5647 7.69161C59.3886 7.91331 59.1941 8.20972 59.0835 8.3897C58.9471 8.61091 58.6192 9.29251 58.4751 9.76162C58.495 8.96408 58.6114 7.77456 59.0835 7.10703V1.34282C59.0835 0.966363 58.9481 0.648608 58.676 0.389553C58.4067 0.130013 58.0933 0 57.7397 0C57.3627 0 57.046 0.130013 56.7845 0.389553C56.5269 0.648608 56.3959 0.966363 56.3959 1.34282V6.47007C55.854 6.09264 55.2694 5.79769 54.647 5.58521C54.0236 5.37369 53.3678 5.26794 52.6847 5.26794C51.812 5.26794 50.9887 5.43385 50.2106 5.76276C49.432 6.09216 48.7552 6.54769 48.1755 7.12353C47.6001 7.70276 47.1378 8.37902 46.7997 9.15619C46.774 9.2144 46.7512 9.27359 46.7269 9.33277C46.7041 9.27359 46.6813 9.2144 46.6561 9.15619C46.3141 8.37902 45.8527 7.70228 45.2754 7.12353C44.6986 6.54769 44.0209 6.09264 43.2438 5.76276C42.4656 5.43385 41.6395 5.26794 40.7687 5.26794C39.8722 5.26794 39.0397 5.43385 38.2756 5.76276C37.5072 6.09216 36.8304 6.54769 36.2425 7.12353C35.654 7.70276 35.1927 8.37902 34.8638 9.15619C34.84 9.21198 34.8191 9.26777 34.7973 9.32307C34.7745 9.26777 34.7527 9.21198 34.7289 9.15619C34.3888 8.37902 33.9284 7.70228 33.3512 7.12353C32.7734 6.54769 32.0957 6.09264 31.317 5.76276C30.5389 5.43385 29.7157 5.26794 28.841 5.26794C27.9474 5.26794 27.1154 5.43385 26.3489 5.76276C25.5834 6.09216 24.9047 6.54769 24.3182 7.12353C23.7259 7.70276 23.2674 8.37902 22.9366 9.15619C22.9157 9.20761 22.8968 9.26 22.8759 9.31143C22.8551 9.26 22.8352 9.20761 22.8124 9.15619C22.4694 8.37902 22.009 7.70228 21.4307 7.12353C20.8544 6.54769 20.1782 6.09264 19.401 5.76276C18.6224 5.43385 17.7957 5.26794 16.9249 5.26794C16.0275 5.26794 15.196 5.43385 14.4329 5.76276C13.7212 6.06742 13.092 6.48462 12.536 7.00079V6.78685C12.536 6.03152 11.9238 5.41784 11.168 5.41784H1.57471C0.819371 5.41784 0.206662 6.03152 0.206662 6.78685C0.206662 7.54316 0.819856 8.1549 1.57471 8.1549H9.11398L0.270213 20.0627C0.0945987 20.299 0 20.5852 0 20.8787V21.7718C0 22.5276 0.613194 23.1408 1.36901 23.1408H11.5794C12.3012 23.1408 12.8916 22.5814 12.9435 21.8727C13.3957 22.2331 13.8978 22.5344 14.4518 22.7692C15.2304 23.101 16.0522 23.2645 16.9269 23.2645C18.2479 23.2645 19.4252 22.9123 20.462 22.2035C21.2998 21.633 21.9619 20.9233 22.4432 20.0743V21.9202C22.4432 22.2977 22.5713 22.6169 22.8337 22.8749C23.0913 23.1355 23.4105 23.2645 23.7879 23.2645C24.1421 23.2645 24.4521 23.1355 24.7242 22.8749C24.9964 22.6169 25.1308 22.2981 25.1308 21.9202V17.1277H25.1259C25.1259 17.1267 25.1308 17.1214 25.1308 17.1214C25.1308 17.1214 22.1536 17.1214 21.7776 17.1214C21.4962 17.1214 21.2396 17.1961 21.0179 17.3504C20.7933 17.5037 20.6332 17.7113 20.5415 17.9689L20.3218 18.4201C20.0156 19.0823 19.5621 19.6052 18.959 19.9938C18.3585 20.3834 17.6817 20.5764 16.9274 20.5764C16.4311 20.5764 15.9552 20.4838 15.4938 20.2956C15.0373 20.1064 14.641 19.842 14.3106 19.5C13.9798 19.1589 13.7154 18.7626 13.5145 18.3148C13.3156 17.8665 13.2152 17.3965 13.2152 16.9002V15.699H21.8091H22.4442H25.1312V11.6313C25.1312 11.1389 25.2239 10.6659 25.4136 10.2186C25.6023 9.77132 25.8677 9.37449 26.2116 9.03297C26.5507 8.69193 26.9461 8.42705 27.3958 8.23688C27.8411 8.04866 28.3272 7.95503 28.8424 7.95503C29.3387 7.95503 29.8175 8.04866 30.276 8.23688C30.7344 8.42754 31.1307 8.69193 31.4592 9.03297C31.79 9.37449 32.0535 9.77084 32.2553 10.2186C32.4551 10.6659 32.5565 11.1384 32.5565 11.6313V21.9197C32.5565 22.2972 32.6856 22.6164 32.9441 22.8745C33.2037 23.135 33.5219 23.264 33.9003 23.264C34.254 23.264 34.5654 23.135 34.8385 22.8745C35.1068 22.6164 35.2431 22.2977 35.2431 21.9197V20.0748C35.5284 20.5648 35.8655 21.0121 36.2619 21.4084C36.8387 21.9852 37.5164 22.4388 38.295 22.7687C39.0722 23.1005 39.8974 23.264 40.7701 23.264C41.6409 23.264 42.4671 23.1005 43.2452 22.7687C44.0224 22.4388 44.7054 21.9857 45.2958 21.4084C45.8833 20.8311 46.3447 20.1524 46.6745 19.3763C46.6925 19.3302 46.7104 19.2841 46.7274 19.2375C46.7463 19.2841 46.7633 19.3302 46.7822 19.3763C47.1111 20.1529 47.5706 20.8311 48.161 21.4084C48.7494 21.9852 49.4257 22.4388 50.1931 22.7687C50.9567 23.1005 51.7906 23.264 52.6862 23.264C53.557 23.264 54.3841 23.1005 55.1627 22.7687C55.9389 22.4388 56.6152 21.9857 57.1925 21.4084C57.7702 20.8311 58.2311 20.1524 58.5741 19.3763C58.5988 19.318 58.6216 19.2603 58.6449 19.2016C58.6687 19.2603 58.6905 19.318 58.7157 19.3763C59.0568 20.1529 59.5172 20.8311 60.0945 21.4084C60.6713 21.9852 61.349 22.4388 62.1276 22.7687C62.9057 23.1005 63.73 23.264 64.6027 23.264C65.4735 23.264 66.2997 23.1005 67.0778 22.7687C67.8559 22.4388 68.538 21.9857 69.1284 21.4084C69.7159 20.8311 70.1763 20.1524 70.5071 19.3763C70.836 18.5971 71.0019 17.7724 71.0019 16.9002V11.6318C71 10.761 70.8287 9.93481 70.4887 9.15667ZM3.4269 20.4042L10.5863 10.7629C10.5485 11.0477 10.5276 11.3373 10.5276 11.6318V16.9002C10.5276 17.7729 10.6974 18.5971 11.0414 19.3763C11.2005 19.7411 11.3902 20.0836 11.6022 20.4042C11.5944 20.4042 11.5871 20.4037 11.5794 20.4037H3.4269V20.4042ZM20.6376 13.0095H13.2147V11.6313C13.2147 11.1389 13.3064 10.6659 13.4961 10.2186C13.6858 9.77132 13.9502 9.37449 14.2941 9.03297C14.6322 8.69193 15.0296 8.42705 15.4768 8.23688C15.9241 8.04866 16.4083 7.95503 16.9274 7.95503C17.4222 7.95503 17.8986 8.04866 18.358 8.23688C18.8184 8.42754 19.2137 8.69193 19.5422 9.03297C19.873 9.37449 20.1364 9.77084 20.3382 10.2186C20.5391 10.6659 20.6376 11.1384 20.6376 11.6313V13.0095ZM44.4798 16.9002C44.4798 17.3965 44.3882 17.8665 44.1975 18.3148C44.0088 18.7631 43.7434 19.1589 43.4034 19.5C43.0614 19.842 42.6645 20.1064 42.2172 20.2956C41.7709 20.4838 41.2858 20.5764 40.7696 20.5764C40.2734 20.5764 39.7975 20.4838 39.3361 20.2956C38.8777 20.1064 38.4833 19.842 38.1529 19.5C37.822 19.1589 37.5567 18.7626 37.3568 18.3148C37.1569 17.867 37.0575 17.3965 37.0575 16.9002V11.6318C37.0575 11.1394 37.1501 10.6664 37.3398 10.2191C37.5276 9.77181 37.7929 9.37498 38.1349 9.03345C38.475 8.69241 38.8723 8.42754 39.3191 8.23737C39.7664 8.04914 40.2506 7.95551 40.7696 7.95551C41.2635 7.95551 41.7418 8.04914 42.1993 8.23737C42.6606 8.42802 43.055 8.69241 43.3844 9.03345C43.7143 9.37498 43.9777 9.77132 44.1805 10.2191C44.3804 10.6664 44.4798 11.1389 44.4798 11.6318V16.9002ZM56.3964 16.9002C56.3964 17.3965 56.2979 17.8665 56.0971 18.3148C55.8972 18.7631 55.6309 19.1589 55.301 19.5C54.9711 19.842 54.5772 20.1064 54.1158 20.2956C53.6584 20.4838 53.1795 20.5764 52.6852 20.5764C52.1661 20.5764 51.6829 20.4838 51.2357 20.2956C50.7874 20.1064 50.3915 19.842 50.0524 19.5C49.7095 19.1589 49.4451 18.7626 49.2554 18.3148C49.0657 17.867 48.9721 17.3965 48.9721 16.9002V11.6318C48.9721 11.1394 49.0744 10.6664 49.2724 10.2191C49.4742 9.77181 49.7386 9.37498 50.0684 9.03345C50.3993 8.69241 50.7942 8.42754 51.2517 8.23737C51.713 8.04914 52.1899 7.95551 52.6852 7.95551C53.2033 7.95551 53.6855 8.04914 54.1338 8.23737C54.583 8.42802 54.9769 8.69241 55.3189 9.03345C55.66 9.37498 55.9263 9.77132 56.115 10.2191C56.3037 10.6664 56.3964 11.1389 56.3964 11.6318V16.9002ZM68.3129 16.9002C68.3129 17.3965 68.2193 17.8665 68.0315 18.3148C67.8409 18.7631 67.576 19.1589 67.2355 19.5C66.8934 19.842 66.4966 20.1064 66.0503 20.2956C65.603 20.4838 65.1189 20.5764 64.6017 20.5764C64.1064 20.5764 63.6295 20.4838 63.1682 20.2956C62.7107 20.1064 62.3154 19.842 61.9855 19.5C61.6546 19.1589 61.3888 18.7626 61.1884 18.3148C60.9881 17.867 60.8881 17.3965 60.8881 16.9002V11.6318C60.8881 11.1394 60.9817 10.6664 61.1714 10.2191C61.3592 9.77181 61.6245 9.37498 61.9665 9.03345C62.3076 8.69241 62.703 8.42754 63.1507 8.23737C63.599 8.04914 64.0822 7.95551 64.6012 7.95551C65.0961 7.95551 65.5734 8.04914 66.0319 8.23737C66.4922 8.42802 66.8876 8.69241 67.216 9.03345C67.5469 9.37498 67.8103 9.77132 68.0131 10.2191C68.213 10.6664 68.3124 11.1389 68.3124 11.6318L68.3129 16.9002Z" fill="#60883C"/>
</g>
<defs>
<clipPath id="clip0_1041_2809">
<rect width="71" height="23.264" fill="white"/>
</clipPath>
</defs>
</svg>
